<mxfile host="www.draw.io" modified="2020-02-10T11:49:41.192Z" agent="Mozilla/5.0 (Windows NT 6.3; WOW64) AppleWebKit/537.36 (KHTML, like Gecko) Chrome/79.0.3945.130 Safari/537.36" etag="EtSpj7Qmk9qHlE5TX8x9" version="12.6.6" type="github">
  <diagram id="rBvjMufOkWCzEtyCXysv" name="Page-1">
    <mxGraphModel dx="1550" dy="836" grid="1" gridSize="10" guides="1" tooltips="1" connect="1" arrows="1" fold="1" page="1" pageScale="1" pageWidth="827" pageHeight="1169" math="0" shadow="0">
      <root>
        <mxCell id="0"/>
        <mxCell id="1" parent="0"/>
        <mxCell id="cFyhvxQL20xE6J7yEOg1-4" value="&lt;pre style=&quot;font-size: 13px&quot;&gt;&lt;pre&gt;&lt;pre&gt;&lt;ol&gt;&lt;li&gt;&amp;lt;select class=&quot;basic-multiple&quot; multiple=&quot;multiple&quot;&amp;gt;&lt;/li&gt;&lt;li&gt;    &amp;lt;optgroup label=&quot;Alaskan/Hawaiian Time Zone&quot;&amp;gt;&lt;/li&gt;&lt;li&gt;        &amp;lt;option value=&quot;AK&quot;&amp;gt;Alaska&amp;lt;/option&amp;gt;&lt;/li&gt;&lt;li&gt;        &amp;lt;option value=&quot;HI&quot;&amp;gt;Hawaii&amp;lt;/option&amp;gt;&lt;/li&gt;&lt;li&gt;    &amp;lt;/optgroup&amp;gt;&lt;/li&gt;&lt;li&gt;    ...&lt;/li&gt;&lt;li&gt;&amp;lt;/select&amp;gt;&lt;/li&gt;&lt;li&gt;&amp;lt;script src=&#39;select2.js&#39;&amp;gt;&amp;lt;/script&amp;gt;&lt;/li&gt;&lt;li&gt;&amp;lt;script&amp;gt;&lt;/li&gt;&lt;li&gt;    $(document).ready(function () {&lt;/li&gt;&lt;li&gt;        $(&#39;.basic-multiple&#39;).select2({&lt;/li&gt;&lt;li&gt;            closeOnSelect: false&lt;/li&gt;&lt;li&gt;&lt;span style=&quot;font-weight: bold&quot;&gt;        &lt;/span&gt;});&lt;/li&gt;&lt;li&gt;    });&lt;/li&gt;&lt;li&gt;&amp;lt;/script&amp;gt;&lt;/li&gt;&lt;/ol&gt;&lt;/pre&gt;&lt;/pre&gt;&lt;/pre&gt;" style="text;html=1;strokeColor=#000000;fillColor=none;align=left;verticalAlign=middle;whiteSpace=wrap;rounded=0;" parent="1" vertex="1">
          <mxGeometry x="10" y="90" width="470" height="230" as="geometry"/>
        </mxCell>
        <mxCell id="BILoep5oak9ykKTMsQ5e-2" value="&lt;ol style=&quot;font-size: 15px&quot;&gt;&lt;li&gt;Click the &quot;&amp;lt;input&amp;gt;&quot; element&lt;/li&gt;&lt;li&gt;Click the &quot;Hawaii&quot; option, then there will be a &quot;Hawaii&quot; item in the &quot;&amp;lt;input&amp;gt;&quot;&lt;/li&gt;&lt;li&gt;Click the &quot;&amp;lt;input&amp;gt;&quot; element again, the background of &quot;Hawaii&quot; option in the option-list turns grey&lt;/li&gt;&lt;li&gt;Click the &quot;Hawaii&quot; option again, the item in the &quot;&amp;lt;input&amp;gt;&quot; will be deleted&lt;/li&gt;&lt;/ol&gt;" style="text;html=1;strokeColor=#000000;fillColor=none;align=left;verticalAlign=middle;whiteSpace=wrap;rounded=0;" parent="1" vertex="1">
          <mxGeometry x="10" y="360" width="320" height="150" as="geometry"/>
        </mxCell>
        <mxCell id="BILoep5oak9ykKTMsQ5e-5" value="" style="shape=image;verticalLabelPosition=bottom;labelBackgroundColor=#ffffff;verticalAlign=top;aspect=fixed;imageAspect=0;image=data:image/png,iVBORw0KGgoAAAANSUhEUgAABKsAAAF/CAYAAACG6UoWAAAgAElEQVR4Aeyd328TR/f/v38VN7nhpje9QUIICS4iRFCLKNDqAX1SUQRCDxVUTQQRRCGNmycRGBr4hCRKAomoKWn4kSdtAnLTDylExGsn+TfOV7P2eOfHmd1ZxzF2eFeq1ji7szNnXnN2ztszZ/9fvrBF+B82AANgAAyAATAABsAAGAADYAAMgAEwAAbAABhoBgb+XzNUAnXAYAADYAAMgAEwAAbAABgAA2AADIABMAAGwAAYEAxArMLKMqysAwNgAAyAATAABsAAGAADYAAMgAEwAAbAQNMwALEKMDYNjFDQoaCDATAABsAAGAADYAAMgAEwAAbAABgAAxCrIFZBrAIDYAAMgAEwAAbAABgAA2AADIABMAAGwEDTMACxCjA2DYxQz6GegwEwAAbAABgAA2AADIABMAAGwAAYAAMQqyBWQawCA2AADIABMAAGwAAYAANgAAyAATAABsBA0zAAsQowNg2MUM+hnoMBMAAGwAAYAANgAAyAATAABsAAGAADEKsgVkGsAgNgAAyAATAABsAAGAADYAAMgAEwAAbAQNMwALEKMDYNjFDPoZ6DATAABsAAGAADYAAMgAEwAAbAABgAAxCrIFZBrAIDYAAMgAEwAAbAABgAA2AADIABMAAGwEDTMACxCjA2DYxQz6GegwEwAAbAABgAA2AADIABMAAGwAAYAAMQqyBWQawCA2AADIABMAAGwAAYAANgAAyAATAABsBA0zAAsQowNg2MUM+hnoMBMAAGwAAYAANgAAyAATAABsAAGAADEKsgVkGsAgNgAAyAATAABsAAGAADYAAMgAEwAAbAQNMwALEKMDYNjFDPoZ6DATAABsAAGAADYAAMgAEwAAbAABgAAxCrIFZBrAIDYAAMgAEwAAbAABgAA2AADIABMAAGwEDTMACxCjA2DYxQz6GegwEwAAbAABgAA2AADIABMAAGwAAYAAMQqyBWQawCA2AADIABMAAGwAAYAANgAAyAATAABsBA0zAAsQowNg2MUM+hnoMBMAAGwAAYAANgAAyAATAABsAAGAADEKsgVkGsAgNgAAyAATAABsAAGAADYAAMgAEwAAbAQNMwALEKMDYNjFDPoZ6DATAABsAAGAADYAAMgAEwAAbAABgAAxCrIFZBrAIDYAAMgAEwAAbAABgAA2AADIABMAAGwEDTMACxCjA2DYxQz6GegwEwAAbAABgAA2AADIABMAAGwAAYAAMQqyBWQawCA2AADIABMAAGwAAYAANgAAyAATAABsBA0zAAsQowNg2MUM+hnoMBMAAGwAAYAANgAAyAATAABsAAGAADEKs+WbGqREOZAh3sKtD+yv/t/UXKfbL2gDPAAwEMgIFPl4G5qYDau6PnwcHrBcr8sUvs8b5IXTeV5113gb68U6TFT+F59+cz6vymn9qO9NEe8f+xfjr+8+td9yPV0uw4Hfqi0sYjfdT2xSBdmlzbde2Ej94lPulT8D2ije8W6Yrqf47206HuF7TwqbS/yds5n71L+45FfnPviTvU+xJjDH62uRiAWNXkjmTnBkyRripCVVmwCmhil9tjcT6gM9ejgOzwzYAy/93AhHaX9/vOjaMEh75eouxQgQ5LEaC7QGdGSp9GkAymWsqvTNyO/KL8AePqbwl8e/fxJs1NB/Tltege7f0BTazUq/yEcl4X6WvzeddXpDnv+ieU38zlPH5QFqmkWCWOZ2do3qzzYk4TtUTQ0vVkvWUYnh8ettrZMfy2Zer/0Z5RJgf4N5ipJwN/zlCH6ntc/qee90RZ3gyP/RgJVeGPGUf66PzjFn7eefT90pNJOn4iavdn34zQwPPA22bw1Y3nI71Ytb5Bs+MBdVSCr4M3Apr1gMPq3JUSZUcD6uxVAjkxmewuUEd/QNfHizS3lsYgm7S8XKRMNqCvepRfULsKdLinQJ3ZIk282fx4MK6VaHoqoMuZAnUoE/awvb0BdY0XaXalkfX7FMWqEmVuRcGSDMj2//SJ/MJeyzjFNdvyGYvTQXXlYpW3rgJl8ml8G861nh+N5nK5SBdvMr5DPF9uBnQ9V6qJEyGed7rKvRXQ9PvG9f3OilVFuioFW0U0OvxLbXZLzQPEKl3IscSqNRq6EE3eZdCy59sntqjV6LHneT+IVY3zFanHn2cfotxd2IcQq6K5wYc1mp2coa7v79ABRSzZc7SfDpy+Q50DOZpabKxo8umJVf/QwLfMs+5CDqv9mthPpxOr3hSpq8+csKdcjbNeotGsLiapQZz2ubtAl2c9JrPrJRoZ9ivzK7GqYb2RDwRd3NPap0za5fdfZYv0siH1+xTFKq7NBdr/qfzC3sSOaLdOUufGTX9Z/nf9Vqw00pd9uveayPL9KP22OHY9T/ljw19F6mQEHLXMzunGrfrcUbGKE4vE8+92MZrI76R/4u7/qfh9r5VVb6n3LDOBP/KAxnayX+pYNsSqT9c/79b5w65oF8Sq8Bk3P/mQ2pXtdtUfBMxVZ0f66MC/Z2h2tTHj+dMTq17Recbm7GrjOj6fdsVY/oj28BSr4gSXFGLVeoky/cmTfnWyLj5f/S1mwi7K5FbLMEKQLLf9dqNW0mwQFwDIeriOjQlQOOEmRV9+RGjloLdyrFwrUNdcDCsFBytYWdWYgLHRzJh5aroK1J5p7NYfrKxqzIRL+oSdOnr58cEiLadgfPqX5Gfh1+MeP9akuGecfbg28qLqBk38oq+IPng9oKHXcX2NlVVxtt/Rv3mJVVhZtaN9UKcxijrG+Zga/2bmVDrSR/su5FpmRWHTM/ERxSozH5PIY3dltrErl0T/PB0ejnIGckIJ893nN5YaMi9vdbEqfR9jZVXT+wzmeZksVv1douvWaip1ku0vcLycDrSE3gd7A8oulGi5ut1vk5bflChrrry6HtA0u9pok8wJ/8G+gEb/3KBlef77DZqdCegr4xfsi7NxokaNDz3DwGZ7XeKU+X1jApTWF6u44CrJdlzOquxyyhURRj+34sD/JOrMrabo8vdXdbHR+xLdUl9kgJxVDZmA1aXvlHHO+RrTb+/vCmjEd9veeom6lNx5dlnlZ2ySP6tnO7k28mJViTLMnIA/Vz5L+ZxV0w369TjP+QKsrNLG4tLzGTqlbE1BzirJLo719DNNVxYnprTQisKms6fy3AzrxtnX2oa8M2OME2IanscuN077GDEqbmVV+LcfX2n+eaf6mbNRK+Ws4uqf1MdczqqhxZ1hcKf67VMrN1asWvwtyk0lJ9Nim9rEaC1ilTHBFRNFKSiZzq2wSXNj6j0KdHWOAcmYgIYrplxlLhfpa1Ww6nEJYMx9rPp5nOMIRsoCnS6m5Z4V6fKtaBtjYwKUT1Os+tQG+CfdXsM/lH1Yg8WqWnwHrmnIJC3N2OCEnM6f7Hxk3qti5wM6bKz+vTikP/MEr415FpSfZ1wbeQHKeJZX2sGf6/GsbATvnC+AWNV04yzNmDTPxTbAJhlrjRjP9bwHJ6ZArKqfb+Ds+8mIVf/QwDlme/WJu9TzeIWW5EKNtXWaf/6Mui4M0l4pbEGs8mKwFrHKfHbg383/7IgVq9TJa7hiqZKgXM/D4hn8rRfpsjI5T5zUvy/SReX8ryfN7RCbNH1Pmdx3BzSS8CutXu8Cdc3v4Iqa53Ywsj+2jpu0+KJI390o0MUnO7/qK1+AWAUH1fwOalt9xAWojV5ZVc9JNcrymrxsixmHjdVnofzh5up0kTqVZ1T4fX+RXjrKiOq1QSOmMHUzoBEmvxnEqjr5KM4XQKz6aOMpGgt16t/CFkGsqp8td6J/mrZMTkyBWFU/38DZ91MRq1ZydEqKT9XjIPU8jxmryy/oytk+OjSQr18fxMxJOLFnt6+salpfFNNPn3qdk8Wq7gJ1/aoLRbro4ylW5fVXRyf/CquLKba4pW+j8Hqr0N96cOF1TY3wvJxUhDQZ0DTV5Fi3byuuOuECyEYGd5+682j69nMBKsSqhkyAmp6NlH6d8zUil+LIoOnnAxr6K2YiKu4rfohRV/l2FejL0RLpz9VyuY30Z3wbubZgZVVL8e2Vs4rr59b6DmJVa/VX04whTkyBWFW/eQJn309FrJp9yOSqaq6XVkCsgt9sGl8cMy+PFavy7zeUfFJRh+qTak+xSqzkUSboiZPwv4p0Roo8XQW6+d/o/qFhl4v0lfL3rjilumoAY5J9y+dXcOO+1bLiv9dtVAlobgQ069qm6FluFao3JRoaDejMjWj7oBCcDl4v0JnBgIae6wJj9brqfWoUq9Y3KPdrkboyBeq4pgRq3QXq6A2oa7xIub/TrFjbpJcLRcpkA/qqR2mLKK8/oJsz+tsbl5/oec/kKoeaj91JiYEr/Vyxd2dvgdoVjveLet4oUGe2SKMLSSviygneD1a4PXhNuff6Bs2J7aD9evntvQFdN2xg92U8i+z570s0PRXQReN+h3vKbZmorKJkr5UMVVi4PligDrXvKhyG/TdVorn3CTz8XaSrNyOWDt4MaELm/lkr55wTdj8s7V5hI/OMY7xEt5SyfLj4bsbot/WNkEkxvi4Lzo0xJsoUdhLjTNShmh9P2kU9mkneuwv05R3mBQ91tUEMD9v2GzEMvynS9UzUT4LdrJV0uzzebzLMtN+o2PRXfczHMqjaegc/u4Sc5Vl7K6AQnuLqzCXdz7ze8harFmcDywdd/dVgWLEFdz73IgpXG2Vbctr2/2i8+owx7pyDN5RxXq1vDF+FTVr8o8yY6oPFWLw4WqQ5uaWiWpYyDjjh2ufHozXeT4Z+XzyfhH+Lu2+lLouvAuqUOcqEDxiKS4Og1Jtri/qdeBX66CPqPJehz45WtpuI16Cfe0ADv62VOfQUq5Zmx+nQF9GWFZGM+NJkpQz1nvLzuxUaG35Ip85maJ/ylqu2LzJ04OxdOi9ew75sc7kw+ZAOKecfurFIS7LMtbc0NvyAjp/sj4K8Y/3UfuFh1B55rnFMJVa9+4dmZ3PUc+1BWH/tNfJiBYR8lXzvDI1xr5LPP6NOJb+XyDHz2b+fJb76fHZA2eZzpI/2nn5A2XyK/i5skSij2tdH+qjti2Hqfekuwz7/Dg386Tp/gxaeP6Oe7+/QAbUPRNLx0xk6/v0k9U7maeGD6/ro+4WXL6j32l1qN8r57OQgnbo2Q/dfxrCl9m2NnEm/xR/z1PNNxHpi/qAjfXTmQUx9l5doYGCEjp/uj7Zxif49IWz2iAZyb2OfCflCnnr/J2K+7Quljz4E9HSCG+Mj1DPK9EVoL30MiTF5/McZGmPGY2SfmDoUtmjhZXmbmjrWPzt5hzoHXtB8nA9MI1Z9CGj++SsaGHhI5y8M0gHDnuE4O1nhUGyjYzhcmhiJfEd1NVNMX5+YpFmVN/Wz8K+TM3RJ1EXxjaF/OHuXLg2/oNmViPnIlpXvON975C5lE3YBWeWodVI/r72lqXtlNtR+2XNMPANGqOfeUnzfFLaoVrGqbuM7bI/wO4y/kO0wOE/dx0kcHFPGm2pf8/NKnu4PT4bPW42Hqn8UY53nUu3Tp/8Zjnz40X46lY38w9LiK+r98Q6pz6S9JwbpVO+zeNbMuu6yf8eLVY7G6kKMr1hlbH24HtCoc8AaidO5SWVODRICyv4d4zCUdmivIO/2rbtf2SqMXBAjJuxf/VKiRaU+6jVen9dKNPSzIuoogp0ZEIhgYCTvEgrSilWbtDhnJ6o37yn/fWbUo52JyfvLAZFoh0yCrrO3/YBJ1DdWOP27RBlPe4uywu2yKWwerjD8o7z9U9qOO4aBnXO8pOFzk3JTdi467p5fjbj6cJPmfvVnQQR23427ytoiLvlx5rUfbwf7zaCP4zqBk9vFaCJZw9tFVT6tMewbJDPn1W4Dhocd9BtXf9ukxRzPlLZ9ezXpZR1RP2nXbcdf1ulap5BjbFcPx9HNgHLO+27QkPlG3MrWQc63cb7J9zzJou/5zjZW2sL9nfMbab6zV1jb4zc8Z7Xsh2PL7g7o1itbHAntwIyv/dy8otpv/n5S+LfLs3ECJf8W2m2/5OXN73T+ZEwQFr4CPUdPJx6QFYwzKxvSiD1PR+7SASmOxQUCRx/SWNWmZb9k3adSF/Fq90MJZR744XeaZwJU0cdWuUf6iE20uzhDHQn3Me114N85eqrelwvAjwxSzwLje6vtX6Irx83+ysRvCapeG5WbNrj0Pn91kbrOmvXj/91x+5/omWnWccW/nL3nHtFszLxmO5xJ/8cfHa+vj2OZyyG0lqeBf2e8xJG2kw8o+ybqR71edn3CrVgLOTqTMMbbvpU23KD50QcJ4zJDZ0ZWHH3nqMPqa+q9lLF9iGqrY3eo5/d1vlxurDD+J/9hhXq/5Xkzx6P8d9vJu2Qmxub8gDyfPw5TLyPeLsxOUrsiqvPXlut7fOB1JLir4+H5Izqg2qnyed8lw5+o13h93qCn93x9cIbOj7nHq7d/kPWq4/gOx4BneWpfp+/jZK7YZ4Vs89pbut8zrAnRcTyIuva6xgMnEArf4uNLjmbo0mPHOJN13aXHBopVW5RnkpxnrRUcm5QbU8SY7gJlmLe16RNwf9HJvG60XiudTEC4ybFcUdMXUPYPx6TaLEf992qRrt6IArrYibsUsRz2S5ezapPmJtOvaAoT3qv1Vz8vF+mMXCkj6xp3rAQWev+ltIWjfC4gDJ3ocpG+66nhHils/t1tPsjn+vbgLVOYcU18XN9vkBBr5cou7h7md0KI0CdVG+EbONOUIct08sCMlctZf970cu1gV97fdTyYVcQqpi6u67TvewKa4CbdXHlckMycV7sNjP7fYb8hGG5PGlvihRNpxpIqIKp+4yN95oSastDCbQVkVgLLejP9fGaq/CzgfBvnm3zPk+PW93x3G8s8cX/XxoCDgbhzfMSqy2Mp/LDL9zJ2d4tV6f2kaCPXV+U+4H2S+3xj/Ep21OPqKzpvrOxxTZ7bOGGGCRa5AICbwC+M3PEKzsv1sQNB6z5nJ2ngxqB3mft+fMUGhla5DrGKO89lO/V7/b584uQD/TF5ZrjA9ZtH9FTtV4/PaYNLr/M/LNEVT55Cm3DCjaj74hM67hngV2174gGNMc/O7XIm/R9/tIWZan0YcUH8re3aoj4XWn1FlxKEJKvMo8PUy751zK7P8StJwlMUgLd9/4Sy1/xEsz1HMnRpNtDbEnJn1+H8f3J0xpcLV9t8xSruPEdfaHY1+Ek/vodpYFn3uU9v3/EWJmRddP9QKe/DKzrP+V/B00mRZD1aUcNzqterfM46jXn3dcRIxzAvUnr5B+mX6ji+w7akLU/+sDE8HC+e+nBjnMM968I6ri7SlX9FdpT9nXzM0HmHsGTZ/NIDf1/iGmeyj3bpsbFiVWGLxBsGzcBGvGEw3Cq0Yvx6KvJlzfOijjZx5oI/R4eZK57E9gt/J5HmXD6IUSfuYruT/xYv/tdZtTznZ/FLvyXKcRNoXvRbnrP7zHkvI2Bhfz1OG7iGZZbrVvdtgK4g432RrqYJro127+/htrhwNk8nhm0n+f7LaX8BSPavGVDNTaYTu2Q58siumOECSdOeCf++9Yccm9vcBriNurDbv7jyOH/FnZfQZmlTeYxsIG0hjo3wG26GJT8vp9SVsO7zZVv2t4xYtUWcT3LlQ7S30kU5rnxFJd/z5HPN93ztmVphTxWT7Lp79GMCw2r55fpu30ce/InZ3s+NL24cFrZoOz7u5n9NcV+MQb5NcmzIfvI//kNDF2qZPCvX1CpWfVhkVgcp5RoBwJ4jHmKVdU1ceeJvGbqSU31c+TMXpHIBCHdecuAh7quvnFq4d8cOmI6P05Rj7jnbb69OqSWJshXoHOmjuITIPuezbYnrF06serdIl3yFDaPstu9/1wXIOnAWP562uw3wLQ2kXAVUZeybRzSrrtILebGFour5hq3q8v25HLNldft1aLvAlMuJUIz/yXPnebZdHUept4gZ2wCXZh/SPs/7mn3ROWavepntH7T9hFK+2MZ7fvhV4nY9yfP87WFvYV+vH5/Y3cc/hPeu5/gWzKcVyEOblfN9pe5jxd66TaJnDfesyBe2Mc7FPY8Os1uuOZu76sV933bF8JeOZ45kZjccGy5WCaOJ/A3WqppuPQiO3061RdrE2jHpZDvoNz1o2jmxaovyYkWDj+AhthFMxedpEXlHrNUsPQHdEjlz5H7xtQ2ae85vKbNFDm4CzYhV6yW6yeQAEgLj7F9SSNyk5bclGuVW7TBbYrjgSQSposzcamWyv7ZBuWdB+HbEcgBr101joBIUJQUAftcY21CVgCus41ul3X8W6dbPfNBmixeczSvXdhfo6q+VvhT5q1zb7AaLtFyLYxLim8yZorRHbGHLPN+o5F3apOW/SpRV+lGz519F6mRWw5XLUDh8X84z9RVzbvhGTJmPSraDCyRlHXuU+q1t0PQ4L5x2/C+zDYct1+ZI8xMVIVXkfhN5cEafl2ix2t8iKCrbSGwNrQorsq69RZqTbZJHrg6cv+LOk+VuwwaN8RuMLSp1L78YgxHMugt0s8rdFuXXN2jxTYlGxwPqvBm3SsUOUrX+k3av85HzG1WhhUmYvv96QNPWDwT6S0FCfn6K8pdxflEbf5U2+Z4n7eJ7fmwbNXsauR8rfV21h3au7C/fa+J9pNhO/DLMgbdJy8tFuuxYaWzlsOTGFzcOV+3k96KfvhtVnk3CB7zht4cfHOL8M992+6Ux0lYJx4VHdIiZfIstVVNvKismVlfity0wwSIn4lgTeCZh8L4rz+jpqnwminnPGj3N5ajn+2H67NgDGjMCc+4+ckK+9+xDur9QCfjW1mhqwLHCgQmKuXKt+gs2c+NhMLovzOnygqYW1mjhnWJzkTcnN8OuKGn/j7I64d3v1GmtmuinK0+UsqpjgRNHdPFLjtekIxfobE+s+scWXo4OU0/unygn0IeAFpZf032Ro+w0v72SC8rb/vWQss+Vct6t09OJh8z2KsMWdeAsyY7Vv7MiSXwS7KUxJi/SCbFSZoWWqvPx9TJHzOqrzglzZVOMUHR0kC5NVPLgiDHRHy9WCJvfl3nW8kvUw4pqd2jIyrUUV4cMnRleovnKOFlafObYgtxvC8mcfRn/I8WLvSdEHqwc3c+t0ML/6XZaerPEb0n81wy7QpEbK6xPkOP0AzdO++jQtWc0K31rYYuW/s/hX7mVkr7bG49m6FRvQv6vVc7nZOjMwCvFB2/Q0vIS9TLbUzmRg7MR50/qOr4d27bFc6C950XUlrV1evr4kbIV1h6XXP1j+5jbhudYheta3Xng3zM0tRwJk0tvXlP2Gr862Nfm8hl46FrU/qXFF3SJXdU1Qln1mSX53cXHjyJWhQ+JtRKNZAt0WAZk6vFWQLMJSbq1iTU36XR1WiPFKlEHsZXMMaE2g90w6GdzbjCT3e6Asq63ThnJ6cV9DlorFbiggAnkf7NFsvZfGGEgtPcmTd+zA1ddECzRTcYeX485ylwv0chwgQ7+HAV1cpKhMVDhhwvu5Pni6HUNF3y6VmCF7d6g0WG73ftvmLlrOJsXSKzCkjm51LpyQWYYBLvYjvneXFEYsheTN04KytdfRRNvdmVFj2P7m6iL2ParjuvKZ2u1HRdICmZ7A5q2tgdssH24Xwn6qzZky2UYj7FbtSzzHC5XURdTNlcHzl9x523bBo3yG2X2pfAZ2kwIls9EgC/4YerBCXumjZvo35zfiMQZIx9jhfOueWOVzXxgPe/UscCNd86f+Z4n2fU9P76NkR9g+7OrQJE91HPlZ4YB9hqHj+wu0K0/DHsKPsS4YURxS7zmxhczDjlbuUUlJv+YyINpiZRbtDgf0Bn5Y8E2E6xP3ei3f6k/MU5Thigk+n9+bIRfJcAEi15iD5Mw+Pyk7GO/I3cfMVHf9+MLJnF3EG55kRP56GhP1rlyk4IWOUa4oxAkovtVfoE3VhRxgVKbcU5YNicwMn3A1cP8jrsnF1zK65LPf0u9Zq4qR/Avy7SO3HYnB5PhtU/G6XNDcNX6qg6cWXV0PU84MSX2bYCMvY7eoSFXovx8jo4bbbUZcQhFJ+ycTPkCvwVVsNr27YyeW020mRU4uNV4jjqIbUfcy4P+fMLmfrO2wnL2rZH9sE+FSGzYc4+jvzj2Nc5MJh4/sFYt7bux5Nx9M9Vj+mJ7JWlY5xT54PYcG6Yrk3yOKc7HnRrhz2U5OWr/eMDZyPIn9R7fhTz1nI5WNUk/26H+GKD2zYd/KPtDhvZesl9iwdU/to+9xSpeuGS3e1bqKhKny7ZER/tZxdVZrBhm88lx4+cIIwqr9tqFnz+OWLVWotGRhFw9MikzM/ETg1+bWDOTztBBcB3WaLFK1EG0VwhzzKTaFKxEslbxSnSt/n8XqdMM+oeVPDtWO5nAwEs4sYPt6V9sEeaWsb9bq6thX9E+NSDL/zegDrMt3QGNmKttrDbZE2GNgUqZXHCn1s/rGkagE8JT7Jsc/wjoS7NdXQXKaBMYPhC7xeRkC+uc58Qeu4/U9vGf+S2p9sov28ZReQxTYsWB+SY9rd/4IF7LESXO5wLJGCEtP2cLqGz+Ga5cTlDS6hxnA/VvXF8GZOXA4+rA+SvuvO3aoGF+o0Ain1pO/qJs2ZNZWVVZSenzJrWIQdX+jf3M+Q1VnOG2Auo/EGzqz6zQV+h+jxNKOH/me560m+/5SW2U5X0Mscp6JlYZ4+xaIEu85saXNQ43KPuT+bxjxnT13vwbHK03FyvnRzasld8V6mV+aT1+zxWwbBE7gWaCRS4Qsib9zIqXPSfuUq9886BHW7n7sEG2LMtzss6Va9VflulzZASTPT+80OdmjOiy5+gI3Td+9a5n3bhAxwoulfYln8+srDoiVpMkrPJQ7iFWq5nik7YKTT03/MwII+pWwDpw5j3WWL7sFRzV8lZydMoUS0wutPYy4tbpR8Yb6Bh7iC20bH6rLRIrPqJguBL0n55kthcKP7PGbhvuHNNXLeULXLktC+8AACAASURBVB3ceXeEPTi29pirHjn7Mv6nal/Ndpyf5Or5gO4zYj1XvzifYP8QMOjsg7C+jI+w7Vppw4c1mhoe0d6EavWhwtXx28oqztAmXD/y7Za2tP2O/UIHzkaWP6n3+Oby9zF+U7Yj7sjVP66PRVle13DcJr3JkV1t20eXZnWO2fu7hDohTjOrI60+Shw3eh3ibNqMf2u8WGW++ay7QBfF0v7VEk2M2gKWWF0xwayy0ibW1qQzplMMMUVf9RNzXT1AeF8W6b5MEq2EeKOuKDHqbAlcjEhin2OKHHywPaG1kxco7LLNCb7+bzXgYlf41Li1TWOgjmJV7n/1+ov2unLQRIOaXzF2dU5lysfm2zlfvVb9zNctVVDlWEmU9BZOtr9vGTllvAJJpT2+53PnpRGrVsrb0i5nCtRxQ9+m7BoDlj/h6sD5K9/z5Pj0Ob+BfiPpVcycYBLasLtAX98u0ij3y61sq9dxg7Lc1kzTN/ZwueQUthz34nyNKlbludWYqgjP/N3cMsbZSPWd0tf4npf2/MQ2Vm3DPxc0e1TPlbb1vSatj9yixWl9a3/IlfnjjM94ceSWco111/fxdpD2qPXIBWqOX/NlHzAB1R4mWLQDG2a717tXdN56o105WN57+i513Vuip4ZQIzmUR6/7yLqHR+4ten1kBoXpy628Lr33AZ06m9FeFe4MIi278b++69u8GLHiyB0a0H7I8ueBC3TiAhef8znbhTY42k8dP87Q/edrukin9Q//JkanDZWAXDtHtW0dOJO8JR7ZoDRGrOLGk6tNzu/N8rlxbZ6jMMLVQbWf0T8cA3ZAn7IOBZdoZghxnH1j6hr2V15sOZ2k8xcG6cDpfo9k57wP9Gu3tCs3Tu3VPxqzTP/adpXlV45iK+e9B9TxRVLZZo4prn+SyrD/bvoKzkbmOU7/wLTfaR+lz9lVq6pYbfAbN4a5+if1gc81bB1NIdaqZ0DZ722bm29P5e5v2lxtc9rz1Wt3y+eGilUiuXqHItR0/Mz8Gv++RFmx7UsNMkSAoYo321lZldMntvrKF8OpWCDW6e9r5Zw+X1+zRRE5AVZXvbycdJ8nz08+1iJWFemq0l/J9+DrqQZcXKBlrbTxtDsXXKn34gapzzXsOZOObYrVuvKrR/TAJW0glvZ8F59cOeaqL9e1le+5YE9seam233G9zyoormxO0JH38j2fO89HrFrl89H48N9MYtXH8xsMC+slus5s/1VtevBagbpm4nP3cWO6/B3PuFq+/Gz1keQq5sj5BH1s86sIZa5ATrSVf5Nt4nwj5898z0tbbnIbZb/6Ck/yfHH0vYbrxwQ/w4qyxjWcLzB9DLuSlX+mSZa4o86FaoM6fOYCP8cWGNn/ec/AlgtIuEn/woO7icHjoe8f0diysUK8Mr5871Otf4EPIs26pSl36fcZJQ+KHVz4BFyyfk8HmATKauDFbAPbwya49uMjbeDidf6HJepiciupdhCJoK+M5pmtmls0di2FDV0BrhLMCttulzPZP4nHlGNKJLhW7VLbZ1OI4oQI8xyFD88xLdvOMWCOH35lVUwdxHjm6mH6I86+Rl/LeuZXX7O5lpJtXA+xapEuWTno0nNt21XpN3WO8SEI8zF1MtvhZHu1fEfLT6jDNXZSfG+KIhwb1jl1Ht+cr7betqnaKuYzV/+kPvC5ptY6cr7QrA93f9Pm1THhWAkWd7567W753DixykjOrL9u3hzMm/RyVk+kfPi2nrhUX/1iTExjwNYn+v7X7UiHr2/QxC+GMCdFOiWni17n9JPn8oTabKtPUMCdk/7+asDFtUX9exo7c8FVUlk+13Dn+AQgyddx9jT7RR0Lac9Xr1U/16Ecn2CPG3c+1/mco5btez53XpJY5ftSBDlOjaMlhHB1MINk0Tbf86QdPM7nxhoXXMd/Z/K5DZZWS3SrP9l/iNxX5o8TyX6Bqxd/L6uPpE1jjslje4vy3PbhMJeaX24jrr84f+Z7nrSZ7/lebQxt5Cs8qT7I9xquH00G1XLLdrcZNq7xGC/sGDTGt30fmzGfZ4Xsm9RHLvAzg0OTYy6gZIJFbnJuTrJlfefHHtABj8DO3srCr8Jx3ad8v/qKVUuPH/B5vHwCPsZueU6MOhIlsObetBe3bVPa2HXcsUBn9TX1nEsOzttOPqQx48djrk4y4PY+MrbdDmcu+1nfpxxT3DjxbmOVMVMEgliVX31F52t8myT31lHRzxyXbl/D9UHyeDD73l2+8dyq+ukNenrvrsMnKdv8WE7T188UOTgb+Zxjtjvx38r45sZQeruV7cnVP6ksn2tqraPPddz9TZurfirt+eq1u+Vzg8QqI/G2eEOcIxdVZNhNMgWpISWhuL5qIKCk7Uiy3ImsMrlUBCH598Yf+XxC+5Wgmgs2fCbN6jkdWTNBuU9QwJ2j2M9nIt8dUEbJycS1BSurXA8xzv5GEFZ94LnKEN9z5WBllT3WHcnbfTivnGMJIT5BsuhD3/Nkf3ucz4011Sf4fK7Nb8SxuEmLfxSpq98h0ktbC0Ev8Rmh3sd/G6D9lj61HP6zl5Czzq1EDWjoVZHOyHZVjno+q/I9uf6CWCWeNwk+r14rq7gxZfRb0pipTWjlmbP90xbxr3c3A1+jvB0Qq8K6rb2lsYEROhS7naWfzk9Gb00S1/lM5vW211GsitlelhhsCaFBCbiiOnK5ZPqoLEhxf6t9C6C4Z9rAJe35Cy+f0ZVzCVuvzuqJvLl7eNmzKt70ESdshjaukbOof4zxIJ+h8siKAO4xxfGbtq0Hrr2iJXn/8MgJJe46sCuaWDbLbef6xw7oU9ZB1JvzLaZ4ztnXqmtAYz+aycrTCDH1WFnFtT9NHfpoz7E7NODIM5bEI/e2PU2E4+yojB8fBn2FZlM44fjxuZ96jjq+uTGElVVuP8XZ3+yjJL5a/e8NEqv0V3Zbb+rRnLbSYUYybu0XS2N7kfWqarZM49fd2CTlSj3Ysur3dy5IUSfo3BaS/dbb/dLWhxMwzKCAz3VkBeQp7MO2tclyVmmCZiVYSWaWt5WeF8rH5mo/pj1fvVb9zJVTIL1u6vnMZ3aLjJ4gmnOGLLtmf3NBIrf6SHLmez53Xlzgy+blKlDHzwFN/LlBy1oCcd6m1tjg6sC1zfe8FDZgbd8Qv8HwI+utHt+XaGI8INd2aHObHMdXo77zEqsKfLLv9h5b4LfeFFjgk3VDrEoWq9icVeYY8xlf7Pg3n4mebKuc1/Mz+yasYRqIe+kJF1BawWItIpK0hcj99Iy6Lgzy2wON17lzgYodOMuyxZHPWWVO1n3KZfOQHK28+n1FF9XYQJyxm/BBSxMj1lvEQmGLS8admPdEbbv9OW3gkvb8qk99t0Jjw+7cOmpertn+jLU1Lr5P7XZV7+scL+k4Sy6vUgdWBHALRSxD3Bsgne3g2s4JJe46pGFT2IFjwO6flHVw5awyxwhnX/Mc1q/10YF/P6KxhTVa0uZeXD3rIVZxb6jjy/VmKw0DnJ8WSfb/rPDC2iiGEc97c2yYvrXe45vz1XvUrdOedfdnWx9zXJvN8cBu902sI5+zysyvyN3ftLnKWNrz1Wt3y+cGiVV6YMdNwFmDGhNMTawy3nSVLCZsUf4v/Rdu9yupdbDZuqUYTEnXz43ZwYx4+1xO3sMQ7cJfd83JuDzX+6j3SfkXY3Nizq/6uvob8wpx3/saImN4XzURsW85Zt6yiqiUxBYXdJrX6Kv2Kn0jVgPG1Y17G6D1GnMfm6vspT1fvVb9zOfTUvOiJTEars5i8pfFCwp8Hh/T3juxqihsj+E/eMYVO3Hn9xvJ4KsMcH1ToGYSq9g3bzbEbyg2rdor5rv1DRq9bfvA5JcaxJTpc98U53B+Q3seybK4rYDm6pzrAXGruzgh3xorDlHLvTp1g0aHbdty5Xq30Tv/lNo/xg9FFZvYNuTHlfONqQXHijrzhyhubFtjgf/BwRrTsq8/ypEXbszJsOrP6/o2wKQ2L8wwr7OPtsSJenGByuc/vDBWmijs/D5JB6wVBPZburhyrQBk2M435NySxwWPZpAt7fFhka5YiecH6dI1+61tp0bik5Wrfcd95gIXM4Fv9boPK9R71l4dEhcYVa+ttm2N7v9oi1Gf31iqJl3nBJy2bQs4CgOyLvLowZnVDnmteeTEFHN1kHoN9yYzFxfqdbGfOQEmRohIw+a2xCr3GwnzhXXKXrLZst6YydnXtBd3jjOvG2crRdRR7MyOleG3VW51RnihIdVYUe6tlx3Dsrxm8oEl+O45MkLZ6gsrdkZM42xktrnu45t722ezvQ2wljqybwO02fSxucpP2vPVa3fL548iVplvQXIa05j466unjMmvIwCIyo7fVhid5+FUpHNxHssT6MO3Ahp9kyDsOHLkaNtE2O0lBbqc4xOY+rWFCwpMsYr/tX+/mOSn2qKj2JT99bpAX4+5EphvUm4qoI4bgfGq3y2qZQUUF5BZgRsnPHUV6OKsw97rvBhkc+5n86j/0p6v2NlgU99SWwlerwc0auSeqN777xJd7yvQdzOyzbzwtD9mS694oUK7Gah3FejWH0Y9vQJJ5Rrf89OuBuPKNYNeadc/AvqaaZsV2HJlWkHyzmwDzH9Ev1HlSNor6cht5dr2KjCFmaT7J/yd8xu20LJF+XV9FXFZINXFosP3eF/nK1axK4nY598GTTtyIlo+zyH+s20UYtUtvU2inU7/GNrWeF6nFKv2dwu/wTxL/xvQl8w4tH6I8hqH/Mq4w8PmFvr0XC3OB3TmemSzL4dqfYbyAZVYxfOUeXX70xFHLhQzWHSISKbYkzyuuS17+mSdE5XEdpF9P75gknevs29X2nN8nKaMMcuVa9afO+f8JNefG/T0Z1vY4rcBlq+f6vHZxqQGn9x9k7+busHchwvsP6zQ0CVbZBK2NoPRxH7lxBFVjOLEBrEqpMYtUYn1YZPu65wll1GxNZu4OqafPryi81a+Nnu7q/f9Q445AaYZxKo+2nN0mHq5t/U+f0SHLBG5jywxlmPD9D/cOT+84EWlhUdMonG+77lk1wf683y5Dh/o8q0+/Tvbm6G9p0eo97cEgVqIyt8ywp9hJ060iBX6DR/J1Zkr0/IPXP9sZ3yzq8T6qOM/K46+Kef1OnBy0ooD0/axsAHXZvNZkWeFpz465ORnncYYUX+PsbLYdX/L5krfcfWNO5/r51b/rkFi1QZlf4omamJie/U3GQQ7Hs6r5WC5OtlnVt+8nNLf7BeXtH3xlR5cmgnbqx25WqSum5W6dheoay6hngpQ1TKMX56FaJWZKVHurVLW2gblngX0neMNWV3P1Ym5kfNLmZx/lS3S7JsNWlbFo/cbtPhniUanArpYyQ1jv/XQUwgxVqPJ/hC5OW49K9Hiql7P5b9LNPusSJlsQF9eK5D9i79D9Ogq0JmRIuVkeesb9HKhSF19khtPIe16QFkpEK6WaHquRMtKH3FBpx248YGVaPt3o3odF/9U6yjrWj7qfSg497R5tb5pz3eMJVGeQ4AT/Ti0oPCzWqKJ0eitnaptln8L6LDCXpWF3oCyRhnT41EZ8jxxPPgTs1LJK5BU2uZ9Pme/An09UqKXYll5hbHZfIVhY7WmrPfFmVK0BXC1RKNZd76lphKrCh/Rb1QZFv1Wols3CyT84PXxir+qLuvfpOU35bcvSnvL49eJb+BUmNDuV//vOb/BCzlum8t26T+6RHX1FavYFXNdBWr/uUjTK4LlTVpeLtKtn3V/JO8vjuq4ls8t/zZuEXfu/r6AZv+u3P+vEk1oAQ7vU20b8mM2rHt3gS5PVcZuYZNePg/oDLPacz8zV/BevTnv8HF9wseVaPG98rxb36DFv0s0/WuRbg4WqL27QDyzvLhnCWqeDLNbzoTYc2mGpvKVOcbqCt2/NmhvTZPBpREECQY4IcecwIf3PjZIp354RAO5FVr4vyAKLt6t09OJh3TIDOSPPqQxpW3cfWRuk73nJmlssVLmuxXK/pBh23BowA44uXLN+i+M2Cud9pwYoeyC3AK4QUsLL+gKsxoprCNjNzl+8gt88C7bFh4Tt5FE/qBarmI78R23ykGUfejaC3oarsIob5e79C8m+K30vx7o5Knnmz767H9GqGv4Bc0uq9uuNmhpeYl6GdFLX831Dw1wydldWyxX12j++SvKDj+kU9/0U5vBSD04c9nP/p4Tivqoo2+JFsRz6kMQ1nXqTdQ3LmGyvecZzS6v05IqHL9bp4WFJbp/7xF1hrnAuG27XB2aRKwSzBzN0Pl7r8v2KGzQQu4RHT/G8MWtjuGEDnMccdtlj2Soc3Ql2gIofFrPML/VWN0up4wXzifsOT5CQ9LHrK7Q1OxKtKqTfVlCH7WdvEs9j1doYVWJ4QobtLTylmZnn1Hvtbth7j4z75IqMuw9fZe67r0K+agyGLL1zOlvTo38E/lX0a4n4/S59OHKce/Zh5R9/pYWqquwytwurKzQ1GSOer6/Q/uO9ZE+Zss8q3WUvkr3D+K8+o7vfCGg+1cYfo700fG+V/RU2tmyjz0mnH0s30Yr+viJ0se+YlXBnUft0LVnNPtGPvsqPvLf/LPK6kPH/W2bR/7Gr4+i86t8KWOh1b9rkFi1RYuzAR00Al0htEyLXDBVoWWTlt+WaHYmoE5DxPnyf5lfo8Wv2EY+EJlfptoxRvBdnvQGlFWStVfPLWyR9au1mV/Hq/P5ibkaLMR9ZkU3422Kcddzf7OCaG/hZDP8dZ4r0+s7bnXEcpFdlRJfni1W5bkthQZjau4v0c9ckMUFbstz/Kqg+DpGwSHbh942l06HC9wYO3gxyW8HSmqPbhs+6Eoqo/r37oKWbL867rzFp4pdvM+3RfJqXRROou1mzFvblPO4a83vrHHmW1ff82Rf+57/0fyGZFgcOY6jsWLasPzvgNQXalRZke1v8JHzG7bQUmmzQ/AI26Vu7zba4C1WVcQ/3m5Jdi3/XR/X5XqnaSO7VdocK9oKQv6ZaNuwFlb0Nrf/wswVfMeL2FZo/LCWxs6cXV388+eq48bx+cMSXan5rVmVAMEMFj3FKjYwUIImGeyox897FrWAq5Yy1PL2HL1DQ3nbNly5pljFv7mPD5q0e8o2MnaLfBO3qkwvW83zFF1ntyX2b45f/Nn6ynobRz0w4oQSvd522UyS+Ny4441mSWWJv+tBKNeXdh30ck3OYm2o+V4uCb5etri3uu1RcHTKFGUNG7vry60C4vpAt4nWHm6lWwybXLBrjY0CVwfbDu529dE+ZWtotb4+YpVLDNmWTbcon+PFHb0N+jblqRv8akT9Godd1NWGDlHCq5wjfdT2Lbda9h8auuC4t4et7D7nVxnp/qHin+o4vkM2FmeYFXJJbWPGBLddz7KFfp3feBAvNHnCbGtPqmP0d74PU9i84qe4+rJ9pPm1lM+VJr82VqxanLEFJt+J2/VXpqFqf9PWwVsxS+aF8MH9umpOnJV/x63qsgIGbcJttsn179qDevHruGuLndhW1ZGyrbK/rCCaDSAdQojY5ubxynl5L+3IiVWFTRJ2NsVL7Tqlv8LvxTYXczAxYqVdht4mLiDjg4Ya6lip88F+Vx9ygZhev+oDPmxr2vNdPFa+d2w5tW0WBX/Wr/81lBGW3x2zmtI7kKy0I8X5nEhutVdhdLsipTXOfOvqe54cAynO/2h+Q9aV9TURY1Z/OFb+6GMjgfXqvetzHuc3bKGlcq+YrYBxuRWtZ0+MHRZz/AogzpbtPwd0uVe3N+fzUrXRRwTVnp3bE6u4JPVcW51zhRTjJS98nPFjGXcv7jvOrnUXq8TqmscPvIUB8Qao3j5jSxsT2HICgRnccOfEBl8nHtCYsdWcK+PzE/yv0nbZGTr/WK6C0sc2V65Zf/GL/ti1bQSjjN1Uv7Rwj1m5JQMnbtVJjX6KzUMm72McD90YpzPGd3qgk16k6Bjmt+s8vX3HsfIlCuDsPhV/04NJri/56yrlMpyp/ZL0WaxWazNsZN3PECKWHj+kAzUJVq0kVmVon6cw7grM2TeYMuNoafaht0+z+saxsir/obxq0D5f5dHojw8r/CrBJD7E3w1GuC1q8XUp16vtX+M0ZfjNKsOrr+jSSbX+/p9tf5hOOKnX+JZteTo8nDzuVLsz27/zXj/e6P6FE38424h6pnnWqn3LvXlRtpu7v+6T9Wdb2vPlfXbTMVas4nICcRM07jt2Ir++QRMj6UQKsfrqZXXlld6BsiMWXxXpO2OFFVcnsT3g1it1GaddXn1WVm1RPu/eHsbXrUAXx0u0mDR5+aPo3DrIlisEFG5bBBtAxggnNfSdqI87ifcmvcwF9JWH+Ca2qmVc/ZYkVook54pNuYCMDzAEG/51DG3fXaDvRB86eU0rPqU93+ZZjpHqcbW85cpHKHSOvRRlCLsc7EvI3ZYmkBR9mer8ZJFc7/9NmptOFoUFk9mcvUKwGcWqsO8/lt8Ix155G6DTP6nCtBhDU8zKGGUMV1lu4Hec32CfcWGd3FsBrXxtShvSiFXCN+XGE35MqvojWyjSmS/7jXRt3CJXTrpqP99St/zadRDn2Tbkfd5oJYdetWyVmeqPBAHNuib4qXzGFuXXSjT0c7q5iqgb/8IJ/scr64cAhQUfxhdmx+0td+rE/oh4m1aOnq4xW/yYYJETCMwJvGsLojpJl5/3np2ksRX7mcTfJ09P792ND/7FVqQxY1uMYjO+XCaZssjl5NiyIesujsJ29/+TLPJpfeXIxSLKa7vye7TdSKm3dr3v9x/W6P61BIHv2DBdmRDtt8UoPTDyCegrAbHY1nfP3oKptmFhdpLauS1iBpuqrc28LvXgTK1T8mdHvhmlzuZYCMtcyNGZtMIBK1rafWQKeFobGray6gHdX1mkLte22Ip99p575Pa9Xiuryn5C5NhLEgDFlryhSXNVjiE4qeNIrOCJExWPPqAxddumuPbDGo31urYcusUha3vy6mvq9fA11bFwtJ86el7QvFkftT3i81qeBtKUW+knbmVnWiGkHuNbZXl+8qGXvxD93vs7/0NFPrGP9a3oXJvZ8V2x+9LvM6nGebvow2qqC/sZyN1f98n6NWnPV+27Wz7HilX1XVmlGL/yynKRT6lDSToqJnsHrxeoo7+S2yTMv6FcZw5Y9d/rG5SbKedoErkj5KT24LVyeTdn4kQE5R5Kzipx7c3n8eJWPAibtPxXiUbHy/Uy23q4p0BnBgPKPFNy4qhtcn7eDPM5ZUYCOnOjQIeV9op2i3I7egO6PFKk7HNX2eUJtCpaHL5pJzG32ve+RNNTAV3O2H0nkuB23Ci36eZUkWb/8rDdWrk8wYLWb9cV2zjFn0q//V2ioWxAX6ksibr0BzT0Qq/D3FSg3+eaR16y9Q2ae1ak64MF6ujRAxjB61eZgG5OlWguxjmV7ZjW5mnPVzh2siPO2aTFP8p5xb5S2yNsJrgZLdKsz9hbKVF2NKDOXr3vJAcXR4o0+oduf4snUc+/i3RV5omrBJ7tcUmN054vVvI9K9JlgzExTjpFzjcuwBVtGwnIsk9/QFVf8neRLl5TfM1N5i1vvnX1PU/2a9rzw+s+ot/4u+wHQ79xwxhDFR8t8lnNqTmBZFub4Jgb1xkX4z5jvihAredykS4aTIdJtdVzjM+Lv5bz/KnPrsSciW/K+ZI6FA4F1xdFbr0wf5QY7+U8gVVfL1Y5/mqPS9FG9VkSPv+sFdKGj2HuL64TPlF/ucgGTfxilH89oKHXRnmxP6Js0tyvZX+jtkXcSzxDWd8ibVzTeNmi/Iry/FZsHM5VBLc3CtR5u5KTUuZblPdUjlqC9e4C1Z5g3bDXSp6yvXep/WR/9Rfqti8ydPz7R5R9GSX1XRgdoc+UgO3QjUVLOFmYfEiHVJHhWD91jkZllO27QfO5HPVcG6HjpzN04As9cNt3upzPKvvcvC6qd6yotLJEAz/e0cr97OQd6hx4RrOM8KX2uV/9ZT3KeZ26Lgxq99p7QredZbf+6A146r2jzwGN9fAiEhcoRtfJeqU7LvyWo0sXBsN8NDLg3Xf2Ll0afqUES6+p53TUT21fDFPvS+M+K3m6PzxJ54U9Tvdrq6METwfOiXxWryo5sYxrFc6r7fkQ0FPByQ93qd0oT9Rzn2Dn3AhdGsjR2PN/9BxPYXnb56xaF65+7HcbNP94hs6fy2j2/OzkIJ26luPnCZW6Ljx/Qb295TGhjjPR1s9OZujA2bt0vneGsjklB5NWhzz1/k80hsPrvnlkJZOutunPHJ1SVzwd7adDMWzOZ+9qbWr7YpCuzMqcO7I/4wSzDZqfmKRTZxU2jvVT+4WH1PuYEYTVtq28oEsKf2H/X/mdFtRz1M/515ZP23OsP+SlZzRffgnDyu/UqfievacnaSpO4GH8ZLXMSbcAnn+3QlP3HpXHhWpvIf6IOp0W/uIh9YhcVNUcRtKeylHkTZLlKL5a2EL4nPYLD6hn9DXNqzmnVJu4Pudfh+O285zti8NxG/rjSeodXYryQBlliVWaKrOCjZ7flbob54cMbnt8G+WvvQ3tI9ohcmsJu0jbHP9+knofrzA+wihDPDuu3aV2tZ9Cbh7QgJHg3m88GOWLXG3Pn7E+LfKRLxKfU8J+aW2e9vyqn+D6rkW/ixWrdmOD0SZzAOLfYAIMgAEwAAaagQF+ZZW6Ohb91Az9VHsdYsWqFp1Ia0xySZC51Ru7oa1oQ7xI3lL2iROrah/v2thoKXugzeg7MNAsDECsgvPcRQ9bOJZmcSyoB1gEA2AgPQMQq9LbrLU4291iFf+Wq9qTf7dW3+52dnd3+yBW7e7+hS9B/7YuAxCrIFZBrAIDYAAMgAEw0AQMQKza7RPqXS1W5XN0vLKFRW5l2XOkn648ad0gYbfziPZJNiFWgQXJAo5gobkYgFiFAKUJApTmGhRwUugPMAAGwMDHYABi1W7nbjeLVU8HBqv5IhgS5QAAIABJREFUVqpiFfcGK8w7Me9sOgYgVu1234v2fYw5De5ZD+4gVjXdAwNg1wNslAGOwAAYAAOtxgDEqt3O7K4Vqz4s0pXjUXJgKVZ9fiMpKXurjVHUd3eOUYhVu7NfMV7Rr63PAMQqiFX4hQsMgAEwAAbAQBMwALFqt0+sd6tYtTQxUn0joxSq9hzJUM/z1g8UdjuTaJ9gFGIVOICvAgPNyQDEKgQoTRCgNOfggNNCv4ABMAAGGslAiYYyBTrYVaD9lf/b+4uUw3N61zynl2bH6ZDy2nnxqvRLk2st37757B3jFfAZOt67SEtgt+X79tN4BrylgQv9tFfJubbv3Aw9Bb/gFwyAgY/MAMSqj9wBn8ZDsJHBDu4FpsAAGAADYAAMgAEwAAbAABgAA2AADLQyAxCrIFZBMQYDYAAMgAEwAAbAABgAA2AADIABMAAGwEDTMACxCjA2DYytrPqi7vjVAgyAATAABsAAGAADYAAMgAEwAAbAQH0YgFgFsQpiFRgAA2AADIABMAAGwAAYAANgAAyAATAABpqGAYhVgLFpYIQCXR8FGnaEHcEAGAADYAAMgAEwAAbAABgAA2CglRmAWAWxCmIVGAADYAAMgAEwAAbAABgAA2AADIABMAAGmoYBiFWAsWlgbGXVF3XHrxZgAAyAATAABsAAGAADYAAMgAEwAAbqwwDEKohVEKvAABgAA2AADIABMAAGwAAYAANgAAyAATDQNAxArAKMTQMjFOj6KNCwI+wIBsAAGAADYAAMgAEwAAbAABgAA63MAMQqiFUQq8AAGAADYAAMgAEwAAbAABgAA2AADIABMNA0DECsAoxNA2Mrq76oO361AANgAAyAATAABsAAGAADYAAMgAEwUB8GIFZBrIJYBQbAABgAA2AADIABMAAGwAAYAANgAAyAgaZhAGIVYGwaGKFA10eBhh1hRzAABsAAGAADYAAMgAEwAAbAABhoZQYgVkGsglgFBsAAGAADYAAMgAEwAAbAABgAA2AADICBpmEAYhVgbBoYW1n1Rd3xqwUYAANgAAyAATAABsAAGAADYAAMgIH6MACxCmIVxCowAAbAABgAA2AADIABMAAGwAAYAANgAAw0DQMQqwBj08AIBbo+CjTsCDuCATAABsAAGAADYAAMgAEwAAbAQCszALEKYhXEKjAABsAAGAADYAAMgAEwAAbAABgAA2AADDQNAxCrAGPTwNjKqi/qjl8twAAYAANgAAyAATAABsAAGAADYAAM1IcBiFUQqyBWgQEwAAbAABgAA2AADIABMAAGwAAYAANgoGkY+H+E/2ABWAAWgAVgAVgAFoAFYAFYABaABWABWAAWgAVggSaxAMSqJukIVAMWgAVgAVgAFoAFYAFYABaABWABWAAWgAVgAViACGIVKIAFYAFYABaABWABWAAWgAVgAVgAFoAFYAFYABZoGgsgZxX2pDbNnlQkoqtPIjrYEXYEA2AADIABMAAGwAAYAANgAAyAgVZmAGIVxCqIVWAADIABMAAGwAAYAANgAAyAATAABsAAGGgaBiBWAcamgbGVVV/UHb9agAEwAAbAABgAA2AADIABMAAGwAAYqA8DEKsgVkGsAgNgAAyAATAABsAAGAADYAAMgAEwAAbAQNMwALEKMDYNjFCg66NAw46wIxgAA2AADIABMAAGwAAYAANgAAy0MgMQqyBWQawCA2AADIABMAAGwAAYAANgAAyAATAABsBA0zAAsQowNg2Mraz6ou741QIMgAEwAAbAABgAA2AADIABMAAGwEB9GIBYBbEKYhUYAANgAAyAATAABsAAGAADYAAMgAEwAAaahgGIVYCxaWCEAl0fBRp2hB3BABgAA2AADIABMAAGwAAYAANgoJUZgFgFsQpiFRgAA2AADIABMAAGwAAYAANgAAyAATAABpqGAYhVgLFpYGxl1Rd1x68WYAAMgAEwAAbAABgAA2AADIABMAAG6sMAxCqIVRCrwAAYAANgAAyAATAABsAAGAADYAAMgAEw0DQMQKwCjE0DIxTo+ijQsCPsCAbAABgAA2AADIABMAAGwAAYAAOtzADEKohVEKvAABgAA2AADIABMAAGwAAYAANgAAyAATDQNAxArAKMTQNjK6u+qDt+tQADYAAMgAEwAAbAABgAA2AADIABMFAfBiBWQayCWAUGwAAYAANgAAyAATAABsAAGAADYAAMgIGmYQBiFWBsGhihQNdHgYYdYUcwAAbAABgAA2AADIABMAAGwAAYaGUGIFZBrIJYBQbAABgAA2AADIABMAAGwAAYAANgAAyAgaZhAGIVYGwaGFtZ9UXd8asFGAADYAAMgAEwAAbAABgAA2AADICB+jAAsQpiFcQqMAAGwAAYAANgAAyAATAABsAAGAADYAAMNA0DEKsAY9PACAW6Pgo07Ag7ggEwAAbAABgAA2AADIABMAAGwEArMwCxCmIVxCowAAbAABgAA2AADIABMAAGwAAYAANgAAw0DQMQqwBj08DYyqov6o5fLcAAGAADYAAMgAEwAAbAABgAA2AADNSHAYhVEKsgVoEBMAAGwAAYAANgAAyAATAABsAAGAADYKBpGIBYBRibBkYo0PVRoGFH2BEMgAEwAAbAABgAA2AADIABMAAGWpkBiFUQqyBWgQEwAAbAABgAA2AADIABMAAGwAAYAANgoGkYgFgFGJsGxlZWfVF3/GoBBsAAGAADYAAMgAEwAAbAABgAA2CgPgxArIJYBbEKDIABMAAGwAAYAANgAAyAATAABsAAGAADTcMAxKpPFsYSDWUKdLCrQPsr/7f3Fyn3ydqjPuovVHTYEQyAgVZkYG4qoPbu6Hlw8HqBMn/skr58X6Sum8rzrrtAX94p0iKed00zGW2mMbM0O06HvuijPUfK/7d9MUiXJtdgq2YYL+8W6co3/dRW6Zs9R/vpUPcLWmiGuqEOGCO7nYE/n1GnOv6O9dPxn19vu9/nH4xoPnfviTvU87xB8w/4lG33304/vyFW7XbH4mxfka4qQlVZsApownl+g5zGDt9/cT6gM9ejgOzwzYAy/91o+oG6044A5e8Q3+slyg4V6LAUAboLdGakhCB5h8c5eE7P88TtyC/KHzCu/pa+HN72mzQ3HdCX16J7tPcHNLFSr/ITynldpK/N511fkebAIZ59DAPzw8NVoUoKVh3Db2Erxlb8eE8Yj9sp588Z6pBClTyenaH57ZTZAtc+HdGD+X3nHtJYfgft3AI2aTh7sAnlHz+wfOOeOoy/sR+jHwca7nM/UZ/SSuMnvVi1vkGz4wF1VIKvgzcCmq1lAK+UKDsaUGevEsiJyWR3gTr6A7o+XqS5tRodcb3qWEu7XNeslWh6KqDLmQJ1KBP2sL29AXWNF2l2ZbOBk6FPUawqUeZWFCzJgGz/T/iFvZWcVivVdXE6qK5crPLWVaAMJpkN9HU1PkdUX75cpIs3Gd/RVSAheF/PlWpqjxDPO13l3gpo+n0d6q62I+bzzopVRboqBVtFNDr8S212S+0DIFbVxGdqO8fw1UplQaxS/M7aW5q694jOXxikA8pqsz3H+unA2bt0afgFzeYb+IPfJxlYLtKlo3Yw//mNJYzrXeJzWsY/NqtY9W4l8lMn9LHy2ckMHf9+knofr9ASpyt8kj5F8fEtMIbSiVVvitTVZ07YU67GWS/RaFZZjq9MXNVgLvzcXaDLsykns/WoY107Thf3rDYa7f8qW6SX642A6FMUq7g2F2g/fmHHhKeuYz4av3Pjpr8s/7t+K1aie7XMZGeHbL2T7Z/I8v2o+vOu5yl/bPirSJ2MgKOW2TnduCBwR8UqTiwSz77bxcb4Hu7+8PuNsX0LjneIVeK5sk6zw3fpACOSyJUP6rG95wXNf2jA8+hTDCy5NotVZT++whhuQf+yk3OVHS+72cSqlSUa+HGY9spVlknHoxk6M/yallRuuPFVh9ViO94Xaht2+WdPsSpOcEkhVq2XKNOfPOlXJ+vi89XffCbsdapjXTt8g7gAwGyf+e/GBCiccJOiL+tqp9omOFaOlWsF6pqLYwUrqz4p52nmqekqUHumsVt/sLKqtrHdbJx6+fHBIi2n8IvTvyQ/C78eT/ljTYr7mzbm2siLqhs08Yu+Ivrg9YCGXsf1NVZWmfbe1r//zNEp9ddjkbfnxqI+Ad8GC9uq2y6478cTqwIauzFInykC0d4Td2ngz7ixtRN/W6exHzP2dp+EQPDUSAPyerV8YFlLH2Nl1afuk5qm/U0kVi39/oiOH9NXUakCetznzokgEnpb3qfsxDOgucpMFqv+LtF1azWVOsn2FzheTgdaQu+DvQFlF0q0XF2Wt0nLb0qUNVdeXQ9oOm61UR3rWE+HYLbXFKVc/25MgNL6YhUXXCXZjstZlV1OuSJiF0zG68l505bFrabo8vdXdWnX+xLdUl9kgJxV0QShhcYR52ts/x3QiO+2vfUSdSm58+yyys/YJH9WF0Yr/cC1kRerSpRh5gT8uXLCw+esml6Vf9/hI+cLWnll1Q4FDPXkqZXL+nhi1VvqPWsHX+cf7/D4MHzxwsidKIF5gkClBoQNyevV8oFlbX1s56yapKlG+U+Dj1Ye26j7Nn3JDj170uasWnr8gPal8E2qnxKfNV/V8j5lm33aAuM7Vqxa/C3KTSUn02Kb2sRoLWKVMcEVE0WnALVJc2PqPQp0dY7vjPrWkb9HTc7NEYyUBboNWpZtf79BuWdFunwr2hrZmADl0xSraurLFhjIaBczdrkAtdFiFdhpSXHKHE+ckNP5k52PzHtV7HxAh40t4BeH9GeeeOY25llQHjtcG3kByniWV9rBn8uMy48xJjhfALFqV4xNc6zW49+ftFj1YZGuHLcFs7Z/PaTs839oSW71e7dOTx/P0Pn/id7MpwWAOzXOWz6wrE2sqgfXKKNJnkc7NTYaUW4ziFV/PqEOZfWpKkTtPfuQBnJqbqoNWloR+awm6dTpyK9pvqrlfcru5zpWrFInrwf7Ahp9U16Boudh8VypsF6ky8rkPHFS/75IF5Xzv57kt0PUtY71HOjP7WBkf3dAI85fQjZp8UWRvrtRoItP4ray1QtKiFV4cNeLpSYthwtQIVYhQK3Bz6vPGfnDzdXpInUqz6jw+/4ivUwsf4NGTGHqZkAjTH4ziFV18i2cL4BYBV/gGKuftFiVG6fPzRULR0co65y7btHCbzN05mQfaVtrHLbd9ryr5QNLiFXbZmCn2EK5yc+Ejy5W/UNDFyLRSRWqOvqNXFRWf27Q/MRDaj9m+KqW9yl1midZ9mqecpPFqu4Cdf2qC0U1iVV5/dXRyb/C6mKKS9wKg4h61bGOHfVy0v6VvLkSeev2LQdgnsJjHe20nYcWF0A2MrjbTt1xbQOcIBegQqxKnow0yfhupjHC+RqRS3Fk0PTzAQ39lcC2+CHGSKz+5WiJ9OdqudxG+jO+jVxbsLLqo7O5QwHDR29Xk/ieT1msmr89bOeqaqZkwy0fWEKsgp/hnqst8t0OPXu8twHmxtntf/t+fFV7zsaW9yktws42nu+xYlX+/YaSTyoyhj6p9hU49ASriZPwv4p0RvnV+uZ/o/trjq6udXTcowYD6zaqBDQ3ApqV2/9qKFNr95sSDY0GdOZGtH1QCE4HrxfozGBAQ891gVG7Nrx3jWLV+gblfi1SV6ZAHdeUQK27QB29AXWNFyn3d5ocUJv0cqFImWxAX/UobRHl9Qd0c6ZEi4rNlp/oec/kKoeaj91JiYErTFTs3dlboHY10BT1vFGgzmyRRheSVsSVE7wfrHB98Jpy7/UNmhPbQfv18tt7A7pu2MDuyxq4fV+i6amALhr3O9xTbstEZRVl7L0qLFwfLFCH2ncVDsP+myrR3PsEHv4u0tWbEUsHbwY0IXP/rG3Q7ExAwu6Hpd0rbGSecYyX6JZSlg8X380Y/ba+ETIpxtdlwbkxxkSZwk5inIk6VLf0cmPaTPLeXaAv7xRp0Ty3rjaI4WHbfiOG4TdFup6J+kmwm7WSbpfH+02GmfYbFZv+qo/5WAZNO+7Qv11CzvKsvRVQCE9xdeaS7mdeb3mLVYuzgeWDrv5qMKzYgTufexGFq42yLTlt+380Xn3GGHfOwRvKOK/WN4avwiYt/lFmTPXBYixeHC3SXDX3JcM/J1z7rKxa4/3kfvl8Ev4t7r6Vdi2+CqhT5igTPmAoLg0CU39RzrvfqdOx9UH9dTn6nKGu3x1lFbZo4eUL6r12l9pPRtu4xLWfnRykU9dm6P7LhGTZKy/okrKtYu/pcRp7V7nf2hpN3XtIp872R29pOtZP7RceUu/jt/b4yL+mbO9daleSxu89MUinep/R7Iq7Dfm4OhQ2aF5sUzuX0RKW7zt7ly7dW6IFuZ2tyl50n1Ri1bt/aHY2Rz3XHtCpsxk6oLQh7Iuj/XTg9B3q7J2hsUUlqa9y36cDg7ZAZK5uUv7ddukZLSjXyzEaHtfehq9w7zyXoX1q8uFj/XTg3Aj13Fui+RhmubbvOT1JszH20u7vqpf8fnmJBgZG6PhphY0jfbT3hHi9/CMayDF8yGvFsdbAcpt2sdr4IaCnuRz1fH9H6/O2LzIs52n7OBrH/CqStpMPo/Gm2kf7vEHzoo4/3KV2w96ingfEWBh+QbN59/Oj3O489SrbPdu+uBMl/Rd2qIwzlTcxzrpG87HjzLKpVvdoPGrn5V/T/WHhW4xxLcbYQIy/+BDQ/PNXNDDwkM5fGKQDhj3Kvk8wOEm9j1ei7a5cneL8ztoazY5O6vUTPuDcA973ceUnfVfPtqj3+iDq/oiE76i+5KFS94HfKs+DWsSqlTxlxZhXnjWCv+M/5miq4t99xSruvD0JKz81ftT2ys9pfMpO2L4yhi4JLtXnR/jsGKRTPyT5xQ1aeP6s7IsUGwum952uMD25A2NR2q8Bx3ixylEBXYjxFauMrQ/XAxp1LiveJO1NST6TSqOutdXR4RyNshPBL2wRF8SICftXv5TsQDVN+WslGvpZEXUUQc8MCEQwMJJ3CQVpxapNWpwL6CspGMTcV9TjzKhHOxMT45cDItEOmQRd79ftB0yirrHC6d8lynjaW5QVbpdNYfNwheEf5e2fZv+p/w4DO+d4ScPtJuWm7Fx06r3k569GXH24SXO/+rMgArvvxl1lbVGeCSQzr/14O9hvBn0c1wmc3C5GwZN4Y+mthPMN9lU+Ld/AtI1dYcmcV7sNGB520G9c/W2TFnM8U9r27dWkl3VEdteuS+Mfd+hcp5BjbFcPx87NgHLOemzQkPlG3MrWQc63cb7J9zzJou/5zjZW2sL9XfqKWo/2Cmt7/IbnrJb9cOx9ugO69coRdDHjix2H1X7z95PCv12ejRMoeZ9ycdZR12odjHHMTagVAYMLbrW8HLLclUXqYpJ4c9fvPfeIZl3PHas+w9T75xYtzE6G2yy48uR3+678TvNC/PiwRlMDdyJBi2vP0UG68mQ98tGyHeLoqEP+zQu69C8+yJd1aDv5gLJvDBtXyuYEG9aWizPO3CnyPubxwL9z9NQQftgAjLNF9bsHNKbaIfy8QU/v3aUDPoLm0QydH/uHtenS2AgrnG37bZNreRr4d8YrcXtc39h93kd7Yld+1ccu0p+Gx4VcuO3R7Fvz33vPRknQ0/dxPL/iXnGJ9+XWTLNOrn+397woj0mLKzFGXtH5KnvleoX39rBDKKq5fAh7L35MCl8x1jsc7ytEHY9m6MzIis72hxXq/TbZnqpt2k7epaFFR10cfsfH9+0998Qa/xpbSTapd1vk/d78TudPxtso9F0TD2z/EDP+5scexPsk0V/38nT/R/vels/98IrOM/7t855Fvb9lm3yPVn86fMpO2H7Rz5cINi/NMjyu+j/PO27zPj8Vf742rfN5DRSrtii/XKSvVbGjJ6CstYJjk3JjihjTXaBMDW9r0yfovoIaA0KtBucmx3JFTV9A2T9STlRFPVaLdPVGFNDFTtxlQO20nx0U7Hdukdqkucn0K5rabzMrSKQ9l4t0RmVB1td1rAiWer+mtIWjbC4gDAfvcpG+66nhHils/t1tPsjn+vbgLVOYScvrBk2Yb9p02ETeXwgRuiPbCIVkuTpMnudzdPLAjJXLWX/e9HI5ruP78GBWEauYuvi0bX9PQBPchIwrjxPfmfNqt4HBxQ77DcFwu4Oj6tgSL5xIM5ZUAVH6jI945ISastDCbQUskHMlMNPPZ6bKzwLOt1Xtp7Td9zw5bn3Pd7exzBP3d6+x4WBDXOsjVl0eS+GHXb6XsbtbrErvJ0VbuL4q9wHvk9znG+NX9j03oTYCSDXYEp+tyenik/Sv+j7xgMY432bVJ0OdPyQIT0p9D/U9o95zdoBitiH899HhaCWHtIc4WnUYpq5743SICWjYch1t8xWruPPY+yjtFn83t6ykFjKOPjTEqnUau+YnBKn16xg2gnrWplEfieTF2aQVd2r/yM+rr+hSQiCs1iv8fHSYejmxwOpzR2AZ3ruOdqm0Zenxw/jg2+jrth9fhXOo1H1slGPZJ0asejpyl90qxZWhftf27YxDSLHFqjM/+tvBXa7D10lu5PHDCg34+orQbmXhXD4DbT8RMa223/rs8A92eYN0/pq/7zPHf7Wesr1xR45/D1b2uNoi7rX6is6rK3piymvjfKtDrErzxj6uXEusev6IDjB1Oz/pyZHLrpxNuTZx5zH18eYon6NTnD0dZVr2+LBEVzz7LaxTxRel4s1lswZ/31ixqrBF4u19ZmAj3jAYbhVaMX49Fbmo5msQdQrmloqPIFYV+CBGndyL7U7+W7z4X2fV8pyfxS/9ylY69wSat9PynN1nznsZgQn763HawDUss1y3um8DdAUZ74t0NU1wbbQ7FC/kVrbqoOaDFl9bivO2k3z/5bS/ACTrZAZUc5OKkGy22ePf7IoZLpD0KEvWURxv/SEfVtvcBriNurDbv7jyPMUqtX0+nyMbSFuIYyP8hlsMlPy8nLK3y8W2qWXEqi3ifNLhX/iVNvZWuijHla+o5HuenJD4ns+JUaqYZNfd3e+xfauMbbV893Mp3X0O/sQkufcdh2LusA0fd/O/prgvxiDv9+XYkP2UeNzuNsB3i3QpzcRWmTC3ff+7nQ+k1om7Uq41qY/5G/vreR3qsO/GkvGDzBZxIpQVKBT48/zaNEg9C5GfTrtFzNwGKPJMtcXYzl2nQep5HtWjzOA6Zb+PD+b3nk6zxestDaRc1VKt7zeP7O2HXJ9zgaXon7raZYvyKYPLsB2VuqXt46oNYvqVW1m1NPuwJqFK3m/ftUV7rDMrq+T5vsftJN+fupGxV/PE2EXUSbMNx0zC9bJdhwbyln+wxar48SLLio76+E/0/dUYghPo/e/NtqXgTlge1TfhHtz4q2WsGH1i+lx+1achTKq28v3M8cG1iTvPqLPLZpztp3r6U3Ft2mPh3p1U1++BWGU+7OL/LfI3WKtquvUgOH47VXz5YuDrE3RehEnlIHyhV88TKxp8BA+xjWAqPk+LyDtirWbpCeiWyJkj8w+sbdDcc35LmS1ycBNoxk7rJbrJ5AASAuPsX1JI3KTltyUa5VbtMFti9L6JAhFRZm61Mtlf26DcsyB8O2I58LHrxgVXSQGA3zXGNlQluArr+FZp959FuvVz1AY1SLPFC87mlWu7C3T110pfivxVrm12g0VaVhnz/SzEN5kzRWmP2MKWeb5Rybu0Sct/lSir9KNmz7+K1MmshiuXoXD4vpxnit0yKt6IaYp4XCAp69ij1G9tg6bHeeG0438ZcYAt1+ZI8wMVIVXkfhN5cEafl2ix2t/C75RtJLaGqn0dfu4t0pzZH1wd0opV27BBY/wGY4tK/5VfjMEIZt0Fulnlbovy6xu0+KZEo+MBdd6MW6WS7Pu1/jT7o8Z/c36jKrQwCdP3Xw9o2vqBoERd5hj8KVp9yvlFbfxV6u57nrSD7/mxbdTsVkuCdd9r4n2k2E78MsyBt0nLy0W67Fhp3GUG4L7jcNVOfi/G9nejyrNJ+IA3/Pbwg0Ocf+bb7nppjOy32GMNeUNm++28SG3/ekjZ5/9E+VnerdPTytuS9Ek3E1zFTdxP3KXeXCXHybsVyl6JDzb3XZqhqUrenKXFZ9TJiWrHx2lK4zAhcDs2TFcm5CvMN2gh98ixquwODRl5sXzFqnwl2e++MBfUC5paWKMFmbdL1FXkN8nN0BmmPe3/YVY1FWpIvr3K5TLL0JmBV/R0Vc5VNmhpeYl6mW14bVcYIdJ3pcWxYTqfkP9LBJiWkHbiLvWIvEDVuet62U7M6itL5OC44wLLutsloLEfmeBSbGMaXqJ52e8ih9lo+Y1j4Riy6lZDH/ty4VppURkLVTbX1unp40csl3uOMGM9Tqw6OkiX5DgTuXcmHvIrGznB2xzP3L+5/hY5zs4+pPsLcnvwBi0tvKIehW9NrKrYZe8JkdcqR/dzK7Twf3r+uKU3S9R7ifFT/5qhp2a9HHUK+zv0fRWfKnL3DfOr3A70MyKYeR/u3/Vuy8IjOsQILmIL+NSbio1WV+h+T8wWTIvxLXKJs8cH5FgRffaCrsRsSTfFGc4v7znCbYlOOU/k+pNpU76utl+kS+aqqhMjlK0yvUX5tXVaWCjn+Ov4whBgC//YPwIcHaaenPI8/xDQwnIlx9vpPjLtGTvH4Nj7iN81fGVV1ThrJRrJFuiwDErV462AZlMl6bbB1CfoCQHqTnaA2ErmmFCbwW4Y9LM5N5jJbndAWddbp4zk9OI+B62VClxQwNjpN1ska3esGhCB/PQ9O3AVyYOr/V4o0U3GHl+PMWKD6Jf1Eo0MF+jgz1FQJ8vigisuuJPni6PXNVzw6VqBFbKzQaPDdrv33zBz13A2L5BYhSVzcql11RmulC+C4Bp4ZXOoxeSNk4Ly9VdR37ErK3oc299EHcW2X3VcVz5bq+24QFJJmQmYAAAgAElEQVQw2xvQtLX9ZIPtw/1K0F+1IVsuw3gN9sxzuYq6mLK5OqQQq7Zng0b5jTKbUvgM7S8Ey2ciwBf8MPXghL1a+qFB13B+oypWiVW0Q/b475o3VtnMB9bzTh0L3Hjn/JnveXIc+J4f38bID7D9yW7pq+Uah4/sFqsnDXuKvhfjixHQLfHacxxytnKLSkz+se6AJiyRcosW5wM6I4XKWhOsq6ynFau4XB8nxmnKyJ0kmck/GafPjQDGmuhyE/wjfdT2r3GaMv32h0W6cpz/dZ7dEvOcC6CYX9AddRBbXu4bApRom2vVSeeYHrhyQZHVfrU/Ej6zKwLYX7nTCxlcXU+NuHKT/GNvpzr6gMY4DlLkUhH5fXp/l8KBOu6Z9hy9Q0N59Rzlcz5Hxw3u5Da6KptcnzOBZd3tIlY2GnXbc6Sfzk9y7RZbq15Tz7k+2tf7Wpn/irYyNjFXAlk8+V2zNMEIg67tlOIeqy/oPDMubSHF3gYohRkurxNn+z2c2Gy1U2Gh8rfZfkZAOuvarrhFYY6kY3ctAbrKT9w92T5mxBCOQZfvKzhEzgs590sS4uro+zfPtkzdYARYx7NhfmyEX7Vnjb8l1t9zq1jzH/5x/phh+ly2ro0Uq+pqe2ZM/fDC8BX2eIg4ZnwCJ6z61rnJz/s4YtVaiUZHEnL1yKTMzMQv6ix3R+qTTiaIbGTHiPYKYY6ZVJuClUjWKl6JrrXx7yJ1mkH/sJJnx2oLExx6CSe2nbRE95U63Fp22z3/m73dRw3I8v8NqMNsC7faxmqTfU8uuOKCO9WWXtcwAp0QnmLf5PhHQF+a7eoqUEablPGB2C1XTrY8J/bYfaS2j//Mb0m1V37ZNo7KY5gSKw7MN+lp/cYH8VqOKHE+F0jGCGn5OVtAZfPPcOVygpJW5zgbqH/j+jKgUdNfcXXwFau2a4OG+Y0CiXxqOfkruWVPZmWVeNmE2P7tvEa19cf/zPmNSKzitwLqPxBsMiKrvspQf2aVxS/On/meJ8eu7/lJbZTlfQyxynomVhnj7FogS7z2GocblP3JFB2ZMV29t7mCu3ytM1+Zcl1kyxrZTitW5WzxiV/ZI+vDTKTNlRFcwHb8Ad03hapKu9lA49IzZsuRqAMX7GTsLWtcHeKCc4dQ8LmxFZALts3AKVUfcv3FBiZMABIrZKzR0AVTBHxA9znxqdIPdtsYu0pW196GKyqqbwazxBrl3kczdOmxIdys5OiUeQ3bbskd0/7Tj2hW1kccuT63guX624UVHL95ZK+6UevKfmbaGNvHwjZ+13B5sQ70mWKZtHX5yK6A+fYJzWt1Z/zBEUdOMXHd8hPqMPu9JlEhTz3KG0flak9rtZ1WV719qcYpu4KMGU8cgzG+Lz/70F5daDG7nXpz13J9ZrZlhXqZF1Ecv+cSu7fo6X+G7a1nZlsWZ6jd6v87NKDFQ0qdReJyZoWV6XM5vhu6ssqbMx/bMyurjpRXaca9qTbimVlZdaSPDl17Efu21+h6xf7e7fp41zRerDLffNZdoItiaf9qiSZGbQFLrCyYqGGVlT5BryXA34FOeV8W6b5MEq2EeKNO+BgByBK5GKFEP8e0AR9sT2jQ8gKFXq45ubf/rQZc7AqfGre2ccGVei9uUPpck/tfuw2uHDTRPfgVY1fnVI58bL6d89Vr1c983VIFVY6VRNm/1fvYn9n+vmXklPEKJJWyfc/nzksjVq2Ut6VdzhSo44a+Tdk1BvRVhA4hzles4s6T45Nrm3l+A/1GVvVXso7KUffHyvjqLtDXt4s0umAI9Mq10RhTGLD+vkFZbmum6Rd7Apowt6FaZdn34fyGKlaFK+1Mv66K8MxqTXPLGGcjzp/5nift5nt+YhurduKfC5o9qudKW/pek9ZHbtHitP0DibWq1We8OHJLuca66/t4O0h7bPPIiR9mwKD0gS1QKCKDFVQ4/maWzwVs5jlJdWBXFwnb+AXnfsKFbmtWNDOEOM5eZuAkx1f5KF4d/oJ6ex+Er6zXXj/usi9rK892V+3KBUWO/nPVI1Eo2aL8uxW633uXDh1LKNt8hTzHaUw9pBihH42VLV7c1d8u3AofewWSzprOiPxb2j72HQ+csNNPV3Lyvo4jl7TaSuDP2dPolyqT4j5pz3fUjV0dNEJZueVSu6ejDPOcvNgWNUnnLwzSgdP9yW8XFKLcn0bZXgwq16Q936yz69/bbgvXT0x71ftzY9r0ZT7nqGUWtogTokyfy43BjyZWbdv2jhV3wj8eG6RTvTmaWtRX/Jr+hHtOhb7zaD91/DhD959XtuIbtjbLaYV/N1SsEsnVO5QJfcfPzK/x70uUFdu+1CBDBBgJwZBpbH2Cbgo1ihP5GJ24Vs7p8/U1JWhT29tVIHXVy8tJ93muCbP9vWkDn6CgSFeV/rLL9KuXGnDp/VK+3lpp49knXHCl3stkQvzb5xr2nEnHNsVqXfnVI3rg4mNzlc2056vXqp+5csxVX+r5zGcu2BNbXqrtZ64Rf/NZBcWVbQov6n18z+fO8xGrVvl8ND78N5NY9fH8BsPCeomuM9t/VZsevFagrpn43H3cmC5/xzOuli8/W32ksuX4zPkEfWzzqwhlrkBOtJV/k23ifCPnz3zPS1tuchtlv/oKT/J8cfS9huvHBD/DirLGNZwvMH0Mu5LV7xkn2RJHnQvVBnX8nDIYGLuWIDL4CAhmQJIyAGMn1h9BrGLrYbSNO8cMnOT4Wvp9hs4wuZZ0wYWxv3HPcnkphQx2BQtzr4T+1fL7OHxgWL+1tTAfk8if4mqfmkhYJDh3nef/vSGK+HC3A3Zhg+maXgWfso/D/vC5hhceBuJ2QoiyWVsZNk8tPnF1Mcv08IdcX1tCmkc5op2rr9mcbckcMuINVy92PFfqlvb8uDFYz7Zw9UpaAefx7OH8Z1Jyb3Z8Db/Vdhmx5R4ZpkTGk+zJ2cHVn/XkKP+MziT8ALD39Aj1PNbtIJ89IodWV8Kzp+2LYboymie/1VqeYynJnjvw98aJVUZyZv1186aBNunlrJ5I+fBtLnGpeV30b31Cb0xcd8CQVXjSlL2+QRO/GMKcFK2UnC56W9JPnssTadMGPkEBd076+6sBF9cW9e9p7MgFV0ll+VzDneMTgCRfx9nT7JeIYf4tUnHnq9eqn9PeV7228tkn2OPY97nO5xy1bN/zufOSxCrflyLIcWocLSGEq4MZJIu2+Z4n7eBxPjfW1KDa77PJ2zZYWi3Rrf5k/yFyX6X9cYIfK/y9rD6SNo05Jo/tLRJboLUfWQQbYS41v9xGXH9x/sz3POlLfc/3amNoI1/hSfUjvtfUwFe9xCpuTBnj22fM+DwrZN/UfPQIGNSyuUAgOUgzBAlz8p5mgu96c16Li1VpXs1u2du0Zzi2fEQJZVxxfZAgTFn18FlZZfrGD2s0dmPQ3tok7q3kTeGDS4OrxPoaIgfXZtOW3DmJ97HrpYp43BhS/66Ot/jPKfvYm4taBSKf63zOUbhMLW6p1yqfuX40+9pkk/u37wsDWEaaTKyqZ1s4+zaxWJWffMCK35dmFWa4/k/6jrMDx1k9bS/r9OZ3Op8gOAmfvffcE3rKbe+u5Mbj/Lr6XdvJhzSWctFPvB/bps1l+z2PDRKrjMTb4g1xZm4Xq8KbpG/Hil7x7WNAfYJuBlyNNXJ8ffl8QvuVoFpvCx+AJU2iO7JmgnKfoIA7J+X9uwPKKDmZuLZgZZWLR87+tbDMlYOVVfa4dCRvTxGwWkIIFwC3kFhVm99w8Sy+36TFP4rU1e8Q6aWthY0SnxHqffy3Adpv6VPL4T97CTnr3ErUgIZeFemMbFflqOezKt+T840Qq8TzJsHnNZFYVZvQyjNn+yflvI8gVh2/bby9zneCX5nbscJFK4tV716xyanVACH2MxcM+W5/lPNlrg/YgNsWYmTdag9i1in7PVduJC6xfZ6yfgeuvdLzmnFtNm3JnZPyvqZdOLGqAyurtJUvkc9KK24pvk2yLY5cP6ZeWRWz3cqLiWYSq+rcFs6+zSxWsfXto9q24yrMceWaPsWVKN+LIeEnGY6qrG/Q/ONH1PlNP/8DQOUen//wQveF1eu3aOHlM7pyLmFba8yLCaKxq9hFKf9j/71BYpX+ym7rTT0ugxjJuNP8YqlP/BMmu677N+h7va5SDIrqzG0h2W+93S8tYJyAEd2zDCaf68gKyFPYiW1rk+WsmsjKPoiOyczyttLzQvnYXO3HtOer16qfuXIKpNdNPZ/5zG6R0RNEc86MZdfsb19BR3Lmez53Xlzgy+blKlDHzwFN/LlBy1oycN6m1tjg6tAgsYq1fUP8BsOP7Dv1+L5EE+MBubZDm9vkOL4a9Z2XWFXgk32390R+RP6oYL0psMAn64ZYJWxnPpd0vticVeYY8xmH7PiPv3ej+LPuk1Ks4nJ9uLa1WfdSx6z62WuCH/UVK1x8BLGKzVll1IOrq2kvNuH20QydGXhFT1eMROPe/ZVy1Q2b0ycSi7z7Uu3XFJ85O6k5ZFgbGbZOXUcf7nbALpxYVVuQnLKPw/7wuYZP2NzzPBqDrK25nFVmUvvUK6V2UKw6kjJnFctCHx349yMaW1ijJW1ex9WbERl8GFTHUdrz1WvVz/VuC1tewrY6D1/Gjnsrab/OJTe+TJ+bL3B52foofNMkt+pItV3cZ5/+YW21TY64OuVfU9aZH3CQehZ0u1lj+t0KjQ0/INdW7Z17OUFCvbi2pviuQWKVHthxE3DL4KIRxgRz14pVY3YwoyWINUS7MOAxJ+MpOr1sa71PykGUOTHnV31d/Y15hbjv/bkcRmoiYt9yPPNPmVxxQafJI5vrR6wGjKsb9zZA6zXmPjZXB3za89Vr1c98Pi01L5ppJ/vf3KqRAsULCnweH9Pe5jhP5NvwC87zufPiAl/u/H4jGXyVAa5vCtRMYhX75s2G+A2VPY/P6xs0etv2gckvNfAou9pf2zuX8xvs84jbCmisqtp/PSBudRcn5FtjxSFquVenbtDosG1brlzvNnrnn1Jtvp1tgAVyvjG14FhRZ74tlxvb1ljgf3CwxnSdmLJ9rGqvhM8eAYNaPhc8tDVCNFBsxQobzjr4BOeOlRdxb+X68Jq6mLeLmW9G5OpqBk7cOc63aHn3l2e7q3blgjcmuK6en8BVyvOe/mfQ3pajCh2cEGKtWEhZJ5/Akg1qt2cXNv9WU70N0PF2sIG8Y/VT2e7c2wBt38CJOHGiaNrzXQxwAlwfpQq4OV7O5WiBZZ2rN8MNV2Yc12nPZ+vm8Hfbagv31tU+6hxzJ/b2ehsg8/bZPXEio+fbAMUzjeNVrBLt+I+x8tdlQ+57n/7hztmW7V3MV75fy1Pvt/bK1VMjnknTP6zR/R8zln8233yrzhOa+fNHEavMtyA5DWRM/LuSfiFQINQn/qYIkwCJUo6zbrHnlCfQh28FNPomQdhx5MjRtomw20sKdDm3nTdoccG2bSfdjpWgR0zyU23RUezN/npdoK/HXAnMNyk3FVDHjUB/fbEQq2pYAcUFZFbgxglPXQW6OOuw9zovBtmc+9k8Yi7t+YqdDT71LbWVfrwe0KhrD/PfJbreV6DvZmSbeeFpf8yWXvFChXYzUO8q0K0/jHp6BZLKNb7np10NxpVrBr3Srn8E9DXTNiuw5cq0gmRbmHcKcPL+PuV+RL8RMaz0m6w7d+S2cm17FZjnvbn6GN9xfoMVq9b1VcTlHwF0sejwPd7Xcb7W8k0Fx9vvWAFsg6YdORG5cr3bKMSqW3qbRDud/jG05fbEqv3dwm8wz9L/BvQlMw47p6XfqjDgM14cK+MOD5tb6NNztTgf0Jnrkc2+HNrGM1TYk3sVuioSGPyy22niXj1vXs/9m5u8xwRsnLjz/9l7298ojnzv+/4D8l/kZV6uxBvyIkLKrWhXOihZ1hIcyUswShAhJAJ2fQRcYVGSA9mYgIV9GccTL1YwrGGN8bEBO8kQ82QcJzbWYBZDLHsebN+7RydnE2Uv5WSvnPO7VT3TPfXwq+7qefIYvpGiGcbd1VXf+tSvq75dVW3fdNfRtOHyIJZM7LxA52fNehKm3Xpj2Yb5xjQury5m1cEh85qp9BJd+4jZaJzVijccwgaP3IyEsOUi4bF5nk4f7qDnf3uRzk9rbUhnwLJ/i2J0LNyhg9v0AVcnHRzSZp7paYf9m6tzRsvK6rJCKc542xpSFrGvV3sPPX94TDNG4tex69sx2YG8/oZGWdvJEWoy6oczgzgTpxZmVYZfahq2nGkiSXt3JajlRqEtcry8d5s38CauUJMRH+rcrCqrLPH0vdZ3ljYa+nTQOr39WWYhsYbSwiydPmyaKp4BpW2w7sWuVJJeZ5hdtzVBzQMP+XqVmJ/4PP9CjL0XJNOHY0QvE3dMWdpz9wr1N5f7UGg85x6SWB8QqdcOTVfSs1bH1cisWqLeD4sdNdGxPfp51I0wP1gOOvsxZ9+oHX/ThLEKPJellrZCXo+lqeV6RD7ZSlM75sK0SozkKPlASmt+iZJjGTpgeUNWyy25Y67t+SV1zl/rzdLozBJNy+bR10s0+VWO+oczdKiwN0wipYPoaITcM/dbEXUi9uY4NZajyTk1n9P3czQ6lqVEb4ZePZ4m84m/xfRoSdPeviwl/fQWl2h8IkstHT43Zh2qdVw47kSGen2DcC5Hl6/naFqqI25AZg7c1PoLGGxJ04F+NY+TX8l59POa/1TrUOjvqHmQ37jH63Us/dtiwIl6PD0h8TOXo8H+4ls7ZW2mP8/QFok9X5eG9gz1amlcvlRMwz/O4+ZDZqaS00BSKovz8Zx+aXqjL0fjYup3gbHRVIHh+1lqZsp3aCRXXAI4l6P+Xvt+S3VlVqVXMW4EDIt6y9GptjSJOHjiUiFeBVPvl2l6Jv/2RZkT8f2NyDdwSkwo16v871zcYM2qEM398tkeunDxTG5/wT2Lm2nbkqbGj7J0eVawvEzT01k69ZEaj/zre9peMg0z9zLyb1V9qSNDo/cL17+Xo8EJ6X7nPBuLb7Ne3o+l6Z3hQttNL9P4rQzt5d5Wy/UVXGPGTUuM6xAxLkeTX0v3u8Ulmryfo8ufZamtO02Nx2zM8uaeYajFYZjrOG/tpOa+WZoSyyHmF+la8g5dCx5GPKSu/bpp0EHrbMvW5ubp5q071NtzkV4X+2hw+8RwedA7+FKZuI531cwqMaDafoZarhb0WMjQtf4LtIkb5DCzY7i86mbVRN8Z46n1up191DvhGzFLNDVxm47sY3QX+bNoxZks6/YN0XAq356mZu7SwOfSoOzTS/RzZgD53L6L1HvrAU08kuLhQoYmZmdpeChJre+eoY3bO0jdd0k1CZ//7QVq75+ia3+WZloItq5esbwBMUFHktL10is03Npp6rS1gxpbx2h0ejHPq8/Jo0WamJii8+euULO3/wqzJMmVu4rqIsqUotY3mbrclqCD5+7STV9nXR+mnq11XDBYvTpWXjuv1ou/35ixwTunjWBj51lqFW3Bv+8+WqRrgxepkXsT2c5LNGwsqVots2qFpgY5g1lsOD1EA0FbWyGhWW9rDz1XaAuBNrNJet1oHwlq7pf0mJul89K5vr75zzoyq6pQFpu+Gw+PBDEnJfQ5bnmhgtDWYDxD548wbWVrgvb2TNGEx2E+Ph7ewx2X/02PuX4fiJ3dVajjTQeHjLg39ecHNNp/hZqlWKykzbUbvUyV1l4Yets6aPNbF6j13JS3dNy7d4tYKOL0xG3itCluJp+PR8//to9aem7T6LS8pHWJpqanqJ0xAdV4r8ZqX996/KyRWbVCk6Pmm5KE0XJZ7AUTGC3LNP0gR6MjGWrWTJxX/2R2rsMEVTv+ptFhO9fY/0LfX8e/qYZ+2s0OecBg+86+KVF7m6LtXNvvxiDa2ThZ9p7O29KN/J2bHTGdZWelhKfF1CG3pNAwG9TzuAEZNyCcvs7PCgrPY3FwyNahs+Z+AOEGbmp5bBybv/PLgaLKo2rDD7qi0gj+fiytbLYf5NF1IOm3OefjTZM8yIvESXG5GfPWNuk47lz9N6OduebV9bi4Gqxa3PAZFp8cx8W2omuY/3e8F2oELPn6VPiTixu8WbVCKYvh4ZXrpH05sXrPyuujtj9f07z5x+sWpas93ThlZJdK621FmUHI3xNNDUthRS1z4x+ZvoJz+3KLGTbt+friy8Qf69dx1Ce/fEMdZHWQsmQgeYl/Km4M5LjBAzOLwqWDL7VDzgCqqlnlVC6hkWT8FPLL5VUZ3IjjUkna4XgNvV68f+uDocK1WRNMv86OSzQcaPuQTr/F1Znbb2q5eFOEzb+ep60dtPF9bTP0gk78TAiX/JVjFFRSl3x7nBq6wBqDofow9cwuKdT1VM7j6yUwZAIWMjRwnJ+lEprH4NoJOnjVN1vlGLR6ZlXKskQsqjxFbSxGfVDmKA7LYbCgYcxYae/PVKEsC1N0ZGeUBhF/V1gtlLms+03+empskngUTDBL5KKYkP+upO1UPxXWnrtmFJMi7gdGMtcmI+pp6xnqMiauSLoGcaT+fgs1qyZHTIPJ1knTfz9xRy9s6W/aajhlnzJf2Twym9wqHW69TLZ/lz6oF0/HbUvsxLKqJu5Jsj5IYP5tDKLZAaTFCBHL3BxeOa8z4P2bM6vSyyQGZsZr3pl8B2mKZS56QxJLbpjNi4NzvPTUMnEDMn7QUEIeC/lv6LTVITdoUfOn3qTiHm/jsfC7Zcmpqpc68DOe/peQhpf+sZDZlM4DyUI5YhzPmeRGeSVGyzUpjXbmmlfX4/w2EOP4VYsbfl7ZWKNyptcJ3yYj+A6uV/njuLhhGi2F64YsBQx7UYO7WbVCk0l+BpCuo/h340cZeqdd1ZvTN1YZXUxQ5d5ZnlnFbVLPldXaV4jRXlIixmkPy7hrcb9xutrMWv5Yd3ZHO5n9grTOrtIhF/t9fHwmmHkgd9yjv68hs2pHgjZyM6g0bUSZWXMlvUJOZpV4O1Q5xgA3wBMxbC7/xD28TrT6mLtDhx1ef86lqTLCL1HjztN/23g4yb9aPb1CU1cv8rPamDpR0y3TKKiYLn67XKQBZh8YNc/agPEtZn8k61Im6VyFD1ezSszKKH0gb7zxM7incgNjjcHgWKFV3ON9fS2fluWKdt3Vpb1ToxfLMOrLZFDowhkTSv1ayq1omj+m4mXx2ucFZ33EWzLbO7RlzWxZ4rWVTcdHqEWa+STqVo1NmkYhywftXBTbl/Igx7F+Kqo9d83QeKgbyVwbK5aP06Cpp4x9vRgW1fGqVj8VPj7UrOL2BOI6aNxvbEd+cYkG++KZFGL21Xgw88oUo9J5rMzMKvHUzb48jNNL7Mlx6FKOJqMq+Musdekgm64wULhlEewAMsQ4KaHuRH7sm3gv03gyQ685mG9iqVrijrykROJAzNIKS0Nsci5pyg3I7IMG9zx62h9L0wFRh1Ze45pPcY+XdJHKrASUufySKxej0Nr2YqQhdGnoiNi7Lc5AUpQr1vHRJrla/8t0/XK0KSyY7E2aMwTr0azy6n+14obHYYyZQKINDTMzY2w81+h3Lm6w9zgvP/bll8Z+bVL+45hVYqlf8lLEw6QgHplGkcp8Pm7EK+MK2fakC+5Dp+Qlv2YexHGmhnzM6y/soRekzTzYaOjM0Giw7E2LhbFihlhGl6PTH8Xrq4i88S+c4B9eGQ8CJBaUmG373WFQWpxdUNRjYnSIX/4T1lFmlsrFHYBxBlBVZlaJ/Wy8fWvCO+6b3rtBN4On1EV9hPZcXtmBkxgwvZ1g9sFSr73p7SSd/4PLAC+fj6mrEYNHbnA4n6Iuh7zogxhjs+qZkKWLHCPbu6m55671leoByw51oudt3bY+Ou8vr/PbATfI4/Twj6+ULn566UUa7TnrZL6JpZjnZ1S2fD0i61h5e1oMs0rkc+FhyLI2lU2h+fpdZ6n9c2kPn6Csft65gXENzSqRH1cuxdJmhkex3xK7DFhiWuhwemhE27eqvswqwU9Fy1Ko64nRS7Q5wuQXcezaPBMfbe1P7Nt2MmT5oNBe1Nc58RIAk3E25ipsLtHNwYvWN98Z8URcz4tXUzQhx/4YMaVi2heWAbJ5lJj0/r69h1pG9fZpWZasn6to7LfntfcZalZVetaSH6RThVeWi/2UmqRNR0Vnr+FEmpo6C3ubePtvhIta8TxKe1Y1HE9T2y2LSaI0GFsel2n6Xo76L+X3jtLLuqU1TXu7M5QYk/bEcUxX7OeU6MvQ3pNp2qKZNSLdpvYMvdOXpd5btrTzHWjZtNjSZm5iHtSZn6+vc3R5OEPvJMy6E4Zb08l8mdqGszR6z0G7+Xx6ggWx54c/GBEcBNpYzZ+C7vdzdLo3Q6/JLIm8dGbo9G01D9eHM+p1jjvsS7a4RNfHsnSiO01NreoARuTztUSG2oZzdN3fD8DXyviMq3nc420c6r8v0+SX+X3FXpPLIzQT3PRnadSh7aVmc9Tbn6HmdrXufA4O9WWp/0tVf4MnodH9LB3194krDEIbwzY1jnu8mMk3lqV3NMZEO2kWe75xA1xRtr4MGfp0ZqhtpGBI3s/SoeMSs23MW95c8+p6nM9U3OO985a9feBWJW7cz8dBL26c1NrQ8WLMvy7vCeSXtQ4+k5dUxkW7T+gvCpDzOZ2lQxrT3qba8jHa98nP8vv8BTHQJTbN5PdLapI4FFwfEnvreftHibaf3ycwiPViluNnZrsUZZTvJd79z5ghrcUS5vriPBET1ZeLLNHgH7X0T2To9F0tvdCHKMt0/bN8vJHLIq4l7qFsbPE1Lqm9rJCIccH9W9LY66sIbk+mqfnjwp6U/n6L/jWlT2WD9WNpKnuDdT/thXka7R+i1/cl6HlpoLFx9xlq7rptNWPEnhjXkklqfe8sNe7uNGZbbdydoE37++hwV5IGbj1U9xXyrz17mw5rb9bbeOSGtpl0sX6nxGDoFWmgvL2Tmsy3AXcAACAASURBVC+YS/Dy9ZjxBjlymZ7beZa6viqm5x0XNshYmKfhcxdox67OwExa/0qCdrx7hXrH9Y6/mu7E0EXaLO/nI/LabztniSZujVHLW920SSrfczvVa0309yl1tLlzKpzZ6TvU/v4Z2iQt0RH5b3zrInXd4JZqFcqQukvne4aoeX9CyY9nSrySoE27u+n194bye1HNmXHAb0diD6AgHSkPIp3nd4myDVG7vA+Sz0Xop9DqNrW399GO3Sqzfrqb9p2lg+0j1JuU9hSS04zJnV+eVIV0CdKbTdF5saeb1vae3yX0vUK9yp5TKl9BGtO3vb3DZG7ydTykbXDv2B5kncR37zX2PAsbPQ6uUFfyQTiHXpopav9tsR15dfXmFeOlR0G50nGPt+ijlye9RDdF3HpXbRfrtnd68aql5w5d081NOY3UXeptP0uNUkzwz23tT+UNjNkb1Cy3491D0tKrQj7jMhj3eDnPtu+VKouc/mzK0IeLmUYsOzkZalZPjJvx8fld4h41RqPBizDmqfddibHt3XRkVNorT86n/n0hQzdvjRXuZ1pc2dZJm8T98LhgvbCHoX5+3PqplPbTU9TVdTEfq2Umt3aQuH80iv2s+u8W9vhi2ogXg4booLj3aPdxUW/iHh7ZJnQt6vTfoWZVMfAwItVpgZBn1BUYAANgAAyAgbXIAD+zSp4di3pdi/VapTyHmVXoozqYEFWqF2gP7cEAGAADYKBCDMCsqpCQ6ECj0wMGwAAYAANgoBwGYFaBnxj8wKzCYAh9eDAABsAAGHisGYBZBcAfa8DR8Y/R8UdbQFsAA2BgVRmAWYV7Vox7FswqxKtVjVcxWEU+wSoYAANgoCQGYFYBnJLAQYcanRQwAAbAABioLAMwqyqr52POJ8wq9N/QhwcDYAAMgIHHmgGYVQD8sQYcHf/HfLCC9ov2CwYeIwZgVuGeFeOeBbPqMWr7MeodMR/1DgbAABh4YhiAWQXYnxjYMQhAZxAMgAEwUM8MwKwCnzH4hFmF/hv68GAADIABMPBYMwCzCoA/1oCj4x+j44+2gLYABsDAqjKQo9OJNDW0pOmlwv+NnVlKrmqeEEPr9j76aJKOvCm97nxbJ20+dpsmwAviGBgAA2AADICBx4IBmFUA+bEAuW470+ALfIEBMAAGwAAYAANgAAyAATAABsAAGIjFAMwqABMLGJhCeMoOBsAAGAADYAAMgAEwAAbAABgAA2AADFSTAZhVMKtgVoEBMAAGwAAYAANgAAyAATAABsAAGAADYKBuGIBZBRjrBsZqurJIG64/GAADYAAMgAEwAAbAABgAA2AADICBtcEAzCqYVTCrwAAYAANgAAyAATAABsAAGAADYAAMgAEwUDcMwKwCjHUDIxzuteFwo55QT2AADIABMAAGwAAYAANgAAyAATBQTQZgVsGsglkFBsAAGAADYAAMgAEwAAbAABgAA2AADICBumEAZhVgrBsYq+nKIm24/mAADIABMAAGwAAYAANgAAyAATAABtYGAzCrYFbBrAIDYAAMgAEwAAbAABgAA2AADIABMAAGwEDdMACzCjDWDYxwuNeGw416Qj2BATAABsAAGAADYAAMgAEwAAbAQDUZgFkFswpmFRgAA2AADIABMAAGwAAYAANgAAyAATAABuqGAZhVgLFuYKymK4u04fqDATAABsAAGAADYAAMgAEwAAbAABhYGwzArIJZBbMKDIABMAAGwAAYAANgAAyAATAABsAAGAADdcMAzCrAWDcwwuFeGw436gn1BAbAABgAA2AADIABMAAGwAAYAAPVZABmFcwqmFVgAAyAATAABsAAGAADYAAMgAEwAAbAABioGwZgVgHGuoGxmq4s0obrDwbAABgAA2AADIABMAAGwAAYAANgYG0wALMKZhXMKjAABsAAGAADYAAMgAEwAAbAABgAA2AADNQNAzCrAGPdwAiHe2043Kgn1BMYAANgAAyAATAABsAAGAADYAAMVJMBmFUwq2BWgQEwAAbAABgAA2AADIABMAAGwAAYAANgoG4YgFkFGOsGxmq6skgbrj8YAANgAAyAATAABsAAGAADYAAMgIG1wcD/Q/gPCkABKAAFoAAUgAJQAApAASgABaAAFIACUAAK1IkCMKvqpCKQDSgABaAAFIACUAAKQAEoAAWgABSAAlAACkABIphVoAAKQAEoAAWgABSAAlAACkABKAAFoAAUgAJQoG4UwJ5V2LMKe1aBATAABsAAGAADYAAMgAEwAAbAABgAA2CgbhiAWQUY6wZGbHS3Nja6Qz2hnsAAGAADYAAMgAEwAAbAABgAA2CgmgzArIJZBbMKDIABMAAGwAAYAANgAAyAATAABsAAGAADdcMAzCrAWDcwVtOVRdpw/cEAGAADYAAMgAEwAAbAABgAA2AADKwNBmBWwayCWQUGwAAYAANgAAyAATAABsAAGAADYAAMgIG6YQBmFWCsGxjhcK8Nhxv1hHoCA2AADIABMAAGwAAYAANgAAyAgWoyALMKZhXMKjAABsAAGAADYAAMgAEwAAbAABgAA2AADNQNAzCrAGPdwFhNVxZpw/UHA2AADIABMAAGwAAYAANgAAyAATCwNhiAWQWzCmYVGAADYAAMgAEwAAbAABgAA2AADIABMAAG6oYBmFWAsW5ghMO9Nhxu1BPqCQyAATAABsAAGAADYAAMgAEwAAaqyQDMKphVMKvAABgAA2AADIABMAAGwAAYAANgAAyAATBQNwzArAKMdQNjNV1ZpA3XHwyAATAABsAAGAADYAAMgAEwAAbAwNpgAGYVzCqYVWAADIABMAAGwAAYAANgAAyAATAABsAAGKgbBmBWAca6gREO99pwuFFPqCcwAAbAABgAA2AADIABMAAGwAAYqCYDMKtgVsGsAgNgAAyAATAABsAAGAADYAAMgAEwAAbAQN0wALMKMNYNjNV0ZZE2XH8wAAbAABgAA2AADIABMAAGwAAYAANrgwGYVTCrYFaBATAABsAAGAADYAAMgAEwAAbAABgAA2CgbhiAWQUY6wZGONxrw+FGPaGewAAYAANgAAyAATAABsAAGAADYKCaDMCsglkFswoMgAEwAAbAABgAA2AADIABMAAGwAAYAAN1wwDMKsBYNzBW05VF2nD9wQAYAANgAAyAATAABsAAGAADYAAMrA0GYFbBrIJZBQbAABgAA2AADIABMAAGwAAYAANgAAyAgbphAGYVYKwbGOFwrw2HG/WEegIDYAAMgAEwAAbAABgAA2AADICBajIAswpmFcwqMAAGwAAYAANgAAyAATAABsAAGAADYAAM1A0DMKsAY93AWE1XFmnD9QcDYAAMgAEwAAbAABgAA2AADIABMLA2GIBZBbMKZhUYAANgAAyAATAABsAAGAADYAAMgAEwAAbqhgGYVYCxbmCEw702HG7UE+oJDIABMAAGwAAYAANgAAyAATAABqrJAMwqmFUwq8AAGAADYAAMgAEwAAbAABgAA2AADIABMFA3DMCsemJhzNHpRJoaWtL0UuH/xs4sJZ9YPeCKV9MVR9rgCwzUNwPXhzPUeKx4P2g4kabEl/WdZ2emvs5SS5t0vzuWplfPZGkS97u66Yw61yXqbO3V2Vdj1PxmJ63f2kHrxP/bO2nHR3fXXjnqnL2p0Uu0+ZWCxls7aP0r3XR4aB4610m9oX6q25+AvtXVdzXv0TCr6iSI1R6CLB2VjKq8YZWhwcdcj8mbGdp7ojgg29KWocQXS7iZP+b1Xvv2VbhpLOao93SatvgmwLE07e3LYZAM3uou5gx+XIyL/gOMo59XqvOzTNcvZ+jV48VrNHZmaHC2UulHpHM3S2/o97uOLF0Hh3XH4arFarBQPRauXsibVL5ZJT73jdBNaF5RzW/29Bg6N/U8qOg10D4j7jUhTKN+StfOhbsnUt+FWTr9bjc9v016ENB6hyZCOHTRst6OiW9WLS7R6KUMNRUGXw0nMzRaiiizOertz1BzuzSQE53JY2lq6szQiUtZuj4fA+zZHPVfMtMTT4f3dmeo98tVNiTmc3R5OEPvJNLUJHXYvfK2Z6jlUpZGZ5dreFN5Es2qHCVOFQdL/oDspQ/xhL3eAtPjkp/Jy5lg5mLAW0uaEqkYsa2U+IpzKhtLp7N0qI2JHS1pEob3iWSupOsJ87zZlu6pDF3+unacVNesytJR37CVTKMtfyxNt9jxAWZVSXzG1hlxBzpzDMCsqgkXT+RgneOtTn9D/VS3P/NE6jt6sThjNXgY0ElHktXVutZ9g3hm1UyWWjr0DnvM2TiLOervlabjSx1XeTDnfT+WpndGIzqzIk+n3NJr+ihLyTgGWEUCnmruGWXUyv9ab5bGF2sB2ZNoVnFlTtNLeMJek45UrYNbPVzv+iU9Xub/XbkZK7WIFbjGYC9fj3I8b7kV82HDvSw1MwaOnGbz5do9ZKmqWcWZReLe93G2NrGHuz7ifm20r0g/CjGoHu5nJecBZlVN2toTOVhfQ/EF9VPdOP4k6suVWSy1Pni1ulqXfC8osb06mlVhhksMs2oxR4nO6E6/3FkX349+bumwf5ml1yI6+3paDaeydL0mZpAAZYm4AYCeJ/3ftRmgcMZNjLosEbhKAm7ssXI8TS3XLax4+cXMqkrqX/dp6fvUtKSpMVHbpT+YWfV43DCd4nh3lqZjxMXLf4y+F75xKeJhTYzrRbVXroy8qbpEg39UZ0Q3nMjQ6bthdY2ZVVH64+9h/JTxt6+S9PrO4j4+67Z10uaTkzRVwbaDuouon1UzqzI0cFJaIrO1g57beZa6vorI7xplgxu4YhlgNeq6NK5QP9Woi2Kaa17fR5N0RN7bb2sHbXwrGb5cGjOrCgDcz9EJYzaV3Ml2NzjGL2eUDb0b2jPUO5Gj6WC20zJNz+SoV595dSJDlzmD6fPiEpsGsRRjOEfJB75ZsUzT95i0WtJUqwGAXl7dlLL9uzb5W/tmFTe4itKO27OqdzrmjIg12pF54jrU3GyKFvd4VRG9vs7RKflFBtizqiZPmCtSd1I752KNGb8z1Oe6bG8xRy3S3nlmWvl7bFQ8q2Q5uTLyZlWOEkyfgD/W70jye1ZdnvP/XuVPLhZgZtWabIuxmV81o6TKTEvxKbYmtT531ergAbXvk4zKwjKZx23WgV//a36wXmsuS75eaVyhfqobE9e8vl+NUFOwlM+PWxdoIIxTbs+q9sfvYUzozKrJz4t7U/mdabFMbbC/FLNK6+CKjiJnQHmVskzXB+RrpOnodQbyOxlv/6eWz8KePptpvXQyU/233lkGI3mDbomm/bJ/vUTJsSy9Iy1lrM0A5ck0q/ybOj6Z9hQWENfi37gBaq3NqrWoG/JsDOI5I6f5w+LDEv/+6Dwr9maGtmhLwA+dVu95Is3a3AvysYArI29AaffyQjn4Y+skznCxAGaVwfljeV9cNaOkTtivh3i+anVQmqmwVtvBmh+s1wOrTnkojSvUT3Vj4prXtxSzyonX6upei3gZalbJndeGjgz1z+RnoKj7sDjOVFjM0jtS5zyyU/91lg5Jx78xFGZIRVQEYxxVfYPjW+Zg5KVjGeqzPklepsnbWTpwMk2HPvVnh0WUqyxIYVbVooHhGtVkOCJtboAKs+rJGKCWFRtNruR7oW9MHb2cpWbpHuX93pml8chrL1Gfbky1ZaiP2d8MZpVZFyXFVC4WwKx6MmLBqhklFWI3Mp6sgeusWh2UZiqUFGPqoJ7W/GC9DjR0q/vSuEL9VDdWrXl9YVZZ+yTRZtWxNOkzl0oyq1Lqq6Ojn8KqZkqkuRUa5Japv0d9ap0I3V+j/AY1PqRezxvI1FXnWNU3PwBzNB5DtS5fO7ebxQq7H1gtB3eu+cRxtWNC0ZoboMKsst4MFO3qpI3XS55Ys+rzJerr1uN8hk7fi+BdPIjR9lp8tT9H6n01n24t4xlfRq4smFlVL1wiHxyf2m+rZpRo+XiSY+qq1UFppsJabVdrfrC+ZtpIaVyhfqobE9e8vjCrrOOTULMq9fWStJ9UETK1U+1qcKgbrEZ2wu9laa/01Lrti+L1S7mR6B3xaptVqkaFAc3JDI36y//KDcozOTrdn6G9J9U3ITacSNPe7gydvhU1E61Es2pxiZKfZaklkfaWYPqzDF46lqam9gy1XMpS8n6cPaCWaXwiS4neDL3WKpVFpNeZobaRHE1Kmk1/qu57FlxfYiXWb8eiNgYucFfQu7k9TY3yQFPk82Samnuz1D8RNSMuv8F7QyGvDcelay8u0XWxHLRTTb+xPUMnNA1K4d845+scXR7O0CHtelta82UZLMyiNM6TuS2wcKI7TU1y3bWkSXDo1d9wjq5/HcHD/SwdbSsO+sX+c4P+3j/zSzQ6kiGh+xZf9wIbiTGO8RydktJyYeHAiFZvi0sek6J9vSM419qYSFPoJNqZyEOwpFfWxv+ub/J+LE2vnsnSpP93/7OiGoTEyrLjRgjDM1k6kSjWk2C313gokG/vbQwzjScLmn6mtvlQBn39qvyp3z8EA+KBy/SouRRQGE9heeY23Rf3I+6ewd0nJ0czRgw6+pnGsKQHdzz3IgpbGf2yJJXl/8X26tLGuGMaTkrtPMhvCF/pZZr8Ms+YHINFWzzUn6Xrwd6XDP+cce3y8Giej5Pe/U7cn0R8C7tuoVyTdzLU7O9RJmLA6bBtEJj8B/owf5t/QMPnrlDz/gRt3O7vc9FB67Z30qb9fdR6bopuhuYxRe2/7Qxef73+lTPFDagXMnRtMJ/289sKaW8rpNufookFLT+PZmmg5wLt2CWnl6Ad74/QwLSdUcHYtT/0kHyN13sfFNvRbIp6289So7RR+vpXErTj3St0nkv30Q1q9vNr7AEiaRT8LUEtN1YolRqjZuka4q1Kz789RhNh+qdXaLSrm54L0uqg53ZfoN6Upo1DGkH5t3bQ+ld6qH3cnoa4pnq8VG/BtULqNr1CE+Nj1PJWt8LN87vOUHPX7QhmpHwtzNNoP8fIBer6fD5fh3HMqoUM3bx1h7q6LtLBt7pp0+5ORVuvTnaJuh+i9quzNKUzKFjq6iZxnOv/6w+H1LEo39AIHRZ5eUVKU7SDfWfpcM9tGp2V9Ai0L+e3JZq4dZvaj5+lRqktBW2aa3vpFSp5sD49RV1dfbRD0/q5nfk21pWU2qK1fEs0NTFFvT1DdPjdM7Rpd0LhU9SFSK/xrQvU2n+XJkqNSdO3PWZ99jfu66PTxob5Qr8xahX5kPUTG1bvLrAzxMQva9nydVkuV6H1M/+g5Njp36P9z4lxhh0Ry3Z10+vHR+j8eKFdRpTXTy/8s0JaV6CdheobVtaK8C+190ez7D3Z11+9F6ao9U0prsSIW7b4tqnVYc+qgt4tTBsR7dTvO1x7JJWL0XBi6CJtlvodystLUnfz922pDXr3bYf+gM5cuFnFZEwkoHaqXc0qbenDiQz1hyyJU96U5NKptOQ1X2D9CXiMjXBD07VXIjeIER321/6YMweqca4xn6PTH0mmTohJIwYDfSmbURDXrFqmyesZ57cv7u13KGfk5v35AZEoh78Juspe+QMmUSfcgDBoKPdzlHDUW6TlLZeNobk3w/DL/PJPbkDn/+YN7Kztxc5hUI6AsWVKDpt70fnXkT9f67PV4TJd/8ydBTGwO3DJltYKpZiBZOKuG28Nnfqgj+M6gpOPs8VBkXhj6amI47U2J/Np6M2U7SUunjHHla4Bw0MV48bRz5dpMskzpSzfnot6WUdRd+W8gF2mXDX6m9XI0Zare+2nLWxPxCU6rb8Rt7B0kIttXGxyPc5n0fV4axkLGnN/l+NFKd/NGdZm+/WOmcvH4dBrHMvQqTsWQ4RpX2w7DHhyj5Mivr0zGmZQ8jHl0Kglr0EeonhfomvnztImF1NmW4IODjwsxjnlGnfooNZB9jagnkjS3l3hnej1/3KFRr370hLd7L8QkZcE7e2bteRhhQbe1671/h1KpRdptOcsbdTyp3fSd3TdVd/uxz6h1tLX0vTemsae102tE2F1MUVHduhpJ6j1Vtg55t+M8ke8ftzteEvdzt2l9sOJcDNn+xlqvbForS8vvszcoIMRjGx6O0nXBi+Y19o3Yr7lamGW2v9F1zL83+t3naXTk6qenDY6M+q/+U2MJ0aHqFEaiKnnqPkyGFTamJo/Pzazn7OT1MJsCq9fmyt37MH6fIq63k4ERrV+Dfnf63ddoN4ZWzkWaeD9CJ609rZuew+1fGrji+dWDIy5eNf0sRTb5tz0E2VTznOor3K54utnlm4OXYzkbMfH9tgZcOTIjij7c/v92G2rU4ffK6R1pdoZr2+I0Vox/n2t3O/JjcEm6Cbrcrsr7Tsfz/KcLNHNwWjegutuS9DeHu3+KrUVQ3MR1xfmaaC9x3jIEKRZiAVOTBeuVUOzaoVS01l6w58dIQZ8rRnqNWZwLFNyQDJjjqUpUfbb2rQ3L9Vig3Wuc+zPqOnIUO+XJXRU57J09GRxQBfacfcH1Fb9zEHBS9YlUst0fSj+jKbGj5kZJD7k01naK7Pg59f2WRjgcwMvJx1s6YaZVdNZOtAaU29xnRiaH/iYH+RzZWo4pRszfoB0/VyiQf1NmyG6iDwIIyK4EXp1t0TCSPZnh3H5tP1m5YFpK+/0uvOmpstxHV6HDb2SWcXkxVYe5ffWDA1yZiKXnqNZVboGGg9VjhuC4UYLR4HZIvYNjNOWZAPRjxmr+MkZNXmjRX8QkmfNOhOY4WHvcP5ewMW2QD+p7K7H+e3W9Xh7GfM8cX9X2oCFgbBjXMyqdwZixGFb7GV0t5tV8eOkKCNXV/k64GOS/Xit/Up179epMHEGjrsNMuUOYlMPN+AxO8s7jkQZT8WB+vp3P6Ve57wk6PBoRrun5MtrDATfG6HTUYaKNABWysaaTsU8y5r43/MD14fUtd88blNnis2zVx+3rtAmKR9eem9eoWtsvdnr1ih/tcyqPyRprzZ7zNfA+NzWQ+2aERQwOHeHDjqms54zVDmzqoR68/K88wINSPdfTkujbHKdbbtovHHr2sdnIgdbepob37+jmqYxGUhNfko7HM0x79qahsbAURgyPZbB+twdOhxhNOrlW2flwYwhxrmy3v73GOntff+C1bQOyrgwRUccmfTy5xni9jYZsF6ox3K54urn57sSjpwl6OBVm7m3QrHZEXWgtRu9vKH/rpDWlWxnnL4BG3pbrCj/gqH49+T8W0lLbDt+G2I/bWbVIg2f7HYyp/X2a4tthuZ7LtBh5h6qp5f/dwTTUp3V1qxKr5B4w6A+sBFvGPSWCs1qT0/Fflk3SzB1pAJ6jU1789KWP4Y9BXUPXKENOc0PYuSOu1ju5L7Ei386K6dn/S6e9EtL6fL55jrQ/Cy56etmnVmvpQ1Y2KfHcQeuXpr5vFV8GaBtkPF1lo7GGVxr5RZGbLCULeCR0zzcSNF1Lmfz/fHL7gaQf119QHV9qDSjKkiPe1ECN5DU9Yz496kv/XZb5jLAMvLCLv/i0nM0q3zNXD+LGvhaiM9axA07wz4/48PmcrnQcq0Zs2qFuJhku8eYS+mKe1y5mkqux/n3J9fjOTNKNpPMvNvrPbRupbYsp2+/L8W7TsOHzCb3ru1QzBwvI8a1faGb+6IN8nHfbxt+PcX5vPlxT0kdznVbu5kZP9XoLJuGT9BZ3Z9kl9XFHgjqnfRtZ+i0v/Su1GWAYmncuTPmLKAdl2g4uI/L8XWFRjvNGSWbu0LMLUs6XPnzgxn1ej4nbseXX7fr3+Lq6yGdfiukjvW64f6tGS1euUo1q7Z2kKx5ucu1pkYvWo2RgGOuTFs7qHkgxFCw1L1X9riDf+/66qDUGDhazaoH1BVzBltQ7jev0Kix9LJ0ztYfucEYfPHS8w0Jtu1a6skrT0yzqlyuuPoJdA3Lp/83mwn+aJIOxzHp/PTEcuN3Of35mOPHHvFZCa0r3c44fX025Lyn0pXmf4Um+s7Evifn81b5ZYDrtqpxwS976f2GfKxv+tg0vjnNK8K0FitrblYJ0cT+DcasmmPqIDh8OVV0Q/IrJ5Veot4P1c5utferCq4tZjS4GB5iGcFw+D4tYt8RYzZLa4ZOiT1z/LXf80t0/Ra/pMw0ObgONGNWLeaojdkDSBiMo/d8I3GZph/kqJ+btcMsieEGT2JwI9JMzhU6+/NLlBzLeG9HzA98zLxxg6uoAYDbOcve7CFuwOXl8YFU7q+ydOojlS//PNO84DQvnHssTUc/K9Sl2L/KtsyuO0vTWiMOeAv7XZhv/p4p0mBRLGFL3Foq7Lu0TNP3ctQr1aOi570sNTOz4fJpSBx+nd9n6jXmWO+NmP5+VH5+uYGkn8dWKX/zS3T5Em+cNv2JMaDZdE2OFP0KRqrYc0vsg9N/K0eTQX2LuJPXSCwN9es5+GzP0nW/TP4nl4e4ZlUZGtQmbjBaFOov/2IMxjA7lqa2gLsVSi0u0eRMjvovZai5LWyWSpzYX7ljubgRGC3MhukvncjQZeMBgTbDV2j0YXH2KRcXlfZXYMr1OJ9r1+NDy+jz7H2WssG66znhMVIsJx739sBbpunpLL1jmWncoi/Bcm2Hc+bm96J9H+iX7k0iBszwy8MbTnPxmS97yS+NmeP2Y0rQ3q47dG3Ovzct0dT0FLUzS3zMwWHIwHBbNx0eLOwLND9Pw53hJtn6PRfp/GRh5lRqilrZAfEZOs3s8cOZL36nd9PbIzQ8U0j30Sz1vsfPKvv5ySlzBlSc/ZIE36zR1UlHPuXiCTfQiFo2yKXDLIOs0swqX9N13vKOKbpZ2JNkanLMsqSvk44ktTxPXKHN0oDXT1MsLQrqaW6WzreGLAXhzKqCYfPcTrFvVpLOJ2dp4s/qTLypmSl+CeOeEWY2WwkbYS9wddpBm4+P0ajPYHqFpv5sKZ/NUFBiqKanZb8poWtj6+1iu55fpGtXr0jLc9VBKTdw5AbrSR07ygAAIABJREFUUwN95sB651lqFXuABeOJRbqZHJGuVTQnmwfVOkml8+bl+lfyeyL1jt6lm7OaaSd4OM7N6rhA58s0v17vE3swPTQNuG091Jp8WNzXbCFDE9N36XzPRXp9d8iss4i6EmZHO7NUM8xcFvdjrn78trPxsBTjUhbGt/LLi0c7zT3aRCzuvSWV/dEiXWOXf5USryqgdRXaGadvTfh/dIcOGkvBO0gs1W2X+JuauUu9Ukw08saa9Wob9/t1wafrOakkvc7McM3n8UGx3T96SKP9F2kzc+y6bX10XtvDitO8EkwH5Su0xVUxq7xMzOeorzdNW/xBqfx5KkOjsTbpNgO/X1Cxl4p8jcaazKqS8iOWklk61MEgt1B2b9DP7rnBdHaPZajX9tYpbXN6cZ0GY6YCNyhgBvKfmyaZXcNlunzOHLiq5mCO2hg93hhgzAYB6WKO+nrS1PBRcVDn1y03uOIGd/7x4tPpHG7waZuB5TWkJeNtk17dGstNOc0Ly2GZpa7cINMbBEfeSCX+Cseye6iF7BvnG8on7hTTYmdWtFqWv4nrimW/crsufDdm23EDScFse4YuS1P78/W4xNahPOgP6ptNl2G8BD1T3F5FLUzaXB5imFXlaVCruJFv877x6ekvDMsxMcAX/DD54Iy9UuqhRudwcSMwq8Qs2tNm3Gu5qc2y0Wb4ihghtwWuvXPxzPU4vx24Hh9exmIcYOuzsOG8f03zk2GAPccSI4+l6dSXmp6i7kX7Ykxxw7x2bIecVnZTidl/7FiGBg2TcoUmb2Zor/+woMwN1rnO4et90p4tSptglrVtu0ADyuDQYlbtNPcC8gaElin+6/9lhK4p6a5QijXWOogb1NnMqqY/cLOULE/Gd1+hUaX8K5SKa1aleeNoPTcLgzNtOBNGzxPzb678nE5+23I73lK3YvkV90KYrz6lJmaQoi+DHD7Zac4+23mJhvX6FwP0gT5+llKJOnnlF4aiYZZxg7oSTIWrFwwjZyNnghbqcLhV16KH2o0Nv+X4yX1PUevuohnkD/aa/sAt212h1MJDz7B9TtsYnosNxoCYM1rkWYk6m6kk7dC0ZtuCfh77b66cnF4WbsVMIM8AKGwQLgbWo8KkF5oydc0amJz+cX9jrhVhLgtuufoRda1sSu3rZjFA8saclN+FO3RQb7OWtui1nU8v0c+1+jQZkdL386N8MuWPq3UV2hmnr1k2Ju9l8i/MX7/NBp87LtB5Y/yS13XqxhXasb3wUg9ZV1fjqYRz2FmBYctAJ0eoSeNElK15QDWqOc3LZlouX+H76phV8znq74vYq8fflJnp+HkNjimM8bs+s0kMrPVZHS7plHuMKK8w5phOtW5Yif2Ojn7uPx0tBIz7WWrWB/090j47Rv6YgYGTcWIOtpWN7gt5ODUdEsg+N5f7yAOy1BcZatLLcqy0De+5wRU3uJO5cDqHMeheinqT45cZelUvV0uaEv6yBK+O+IHYKcao8vKc4swes47k8vHf+SWp5syvkHrlDAcx40B/k57CIj+IV/aIEsdzA8kQIy113TRQ2f1nuHQ5Q0nJc5gG8t+4usxQvx6vuDy4mlXlalCzuJEmsZ9a0n8ia+jJzKwqzKR0eZMaz7RcF9X/zsWNolnFLwVUHxAsMyarGvc4o4SLZ67H+bq5Hh9VRj+91TCrjHtiwBinqzpjzcu3Uzs0Z2GLfRyNNh1cW3/ZTN6wtO5XJp1X1DIuu/PM8ituZkIxXbMzqT+d5waG9r2KxHKHoEPud2Z3DzFLg0QeuPyaHV6hB2e+2PbJ8PRjBjvrtjKztkowq1LMgM71qbI5OCrWRVi9c+WvjlkVvk8Il491ylLAWWrfYxorO87ZDNP8mx4NZsoxq9Ics1w7YAamEaaCacR12/ftEm2a4Usf0IXVu/c3bt8zZhZDVDpmW2dmD80m6XW/3fqf7902ZyQG8YrRkDOFg+PDeGfS2srpy9VvB3mGuLWfwcz2EUbQ8RhvtnQqgygfVw7ehJfrjKufn793m1kGmddw4LjZzoz4kjTNp0abyemVj9E29lLA8rWuRjvj9DX0qjj/Gep916wneVmyzEDo96qZVTyve/u12Y8K/xk6f8Qs1/rjk0qs4DQvm2klH/m2UHuzSn/z2bE0HRJT++dyNNhvGlhiZsFgKbOsmLd6tdxinswyooTCVM7xX+dNulejTCth3siOLGMAGSYXY5Sox+gmBz/YHlTKx5hekdcxZxjIAy52hk+JS9u4wZV8La4eXc5J/sksg20PmuI1+BljR6/LN24Xzcs5Xj5X/s7nLdagyjKTqPe+fB3zO1vfp7Q9ZZwGklLarsdzx8Uxq2bzy9LeSaSp6aS6TFltW0Ve1FmEFiPO1azijvPbJ1c2/fgaxo1eOV75eZQ+OcPE0/BYmt74OEv93FN+6fxiO5M4UP6+RL3c0kw9XrWW9sCCixuyWeXNtNPjumzCM7M19SVjnEZcPHM9ztfM9fjIMgZ68/cFRY/gWL++XM+JGyNXaPKy+YBEPFxIynlwaS+WvaVsbd32e7gOvh6lfjIDDX/AGeNTNUG4NLlZKoU8M4PzdSHGA2d+GAMIi1ml5lPTjBt0cMtkYuY33274pWDq8iduAHCGupQHVFqeZSa175xOYeV3Oz5m3Yq9aFgzUp6xxqXJzY6Ryl5KHaTEcq0hOvhWN23a3emwCTWXB66OwkwF/njDaItoaxzffjzmPtmZGbENBH7mjpEXri4iymOWPyQ+PJql4XNX6PC7Z2jT7gQ9r8/6Ya5lcs4xdpai+hncwNnL+7ZOanp/hM7fKszI0toeVyfhv/GcmOWQ2oBlZpVRP1LeuPLox3PHmPVlmg7KMSHx26aD9bpOWvP6KXliONH/7qKFfgxnLuvpRv9b5p+bLag/EFI5sGmaqpZZxc5EZR7sSOyJPLJx6V8+Vd7iynFgaC6lG/d4X6uamlVic/UmqUPf9BHzNP7rHPWKZV/yIEMMMCIGQ36B8p/mUiGu06+e4wiTJHrJ58/n9/R543hxkKt3fOVZL+ND9uP08+z/LsWsytJRqb7saYfnT9aeGzgZM20cNeYGV/K1uPpxOYc9htsYXMknP3tEHbjEHYjFPd7GMJeOPuvLdm7hd26wJ5a8KBowabjMguLS1o0X+Tqux3PHuZhVc/x+NC7815NZtXpxg+FgMUcnmOW/sqYNx9PUMhK+dx/XpvO/8YzL6fvfjTqS2bJ852KC2rb5WYT+XoGcaev/zS8TFxu5eOZ6XNx0o8vo16ur8eQfLz5dz+HqMSLOsKasdg4XC/QYw85kDb+3+UzJnyoXsgYV+D79KTs1P7pzrQ5W1EEVNzCUO+NavrnBbshghzNVuM4sd5yaTy0f7OwaxoiImV+/3bDLJmQDgVketc6yebyfZthn3PK7HR+zbkX84/SSN+wtZUDFpWljZu4uu9daNOOVMKsm6bCDuRKVF47vsLrnBnD6DIaw8/2/cenoeRGbLEflP/rvTHxYeBi+R1mI+WC28xK4FewuTFFLxBsO17/SQ0f6UzTBLFn1dYz+5M0WsxxqzHKpH/naLsdzs6+i60+9H4Q9bJDzo3wvS+vqtDMXvSrPP8dqD3WFrUCy9DOrZlZxMZt5A6pSvyKPoxeNJdE6Ky6ay+nGPd4/t3ZmlbY5s/q6ebVBi02Mx0fVjZS3fMxtXKqfJ/69RKN/Us2u8GtxadTot8UlGvyjmteg0yvt6cINToLjZFMv9LvWeWefIrscE7/zLg+4uLLIf/fBdPnkBldRabmcwx3jMgCJPi/uQCzu8TZuK5COy2CPC8Au57kcI6ftejx3XJRZpS8dDm1TZlswjBAuD/ogWZTN9ThfB4fjubZWm7hh4XAuR6c6Tc30PIm9r+I9nBDX4xjnr2XUka9pyGd0216hFLd82NtA3W1vI66+uHjmepwfQ12Pdyqjp5Gr8SRz4HoOV4/6fUlON6+7zpBYvqcY6Q7thW2DMdu/yIfLvcKvm9ifXKczZBBoG7Sogyqus80MRv32Ecd4sMyY0gfQQgc380Wuey7flTOrUpwZJS0z5N6GFbYULqqu45bf7XhOo5C6FXXM1W+tzKq5O3SwxLeardtaCbOK00sb2Du0N47vsPovdQCnp+mSDneMLU7Yf9cYWpildvZlCm7aqfFItHGuHrRr+vFI/5y7S62WffXk8qzfdZEGYk2CkGNPHZlV77tpLJfd+G4zjnVt9X+XrDVXv/HLobczjm2XYww9Itu4zCJXFvnvMjcR39n7e0RaLudwx7jUucN5LprLcSru8f65NTKrtI23xRvi9L1d9EaQXiZ1OVbxFd9+5s3PZRIdc3lWVt0aVUF5+f2E5M42N9gwO+f8wMw/rqlX36DcZVDAHRN+Hf96weexDCWkPZm4smBmlS2Acfprg7CAI1sa4ncuHcysMuOHOSMz4Nhx0GoYIS6DZFGHrsf59e1wPNfW4pantLgRxuIyTX6ZpZZONU4b+RKGXuQ9Qr6O+zJA8y19cjr8dycjZ5GbiZqh03eytFfjR93PKn9Nrr5gVon7TUTMq9TMKq5NafVmcKr9vTSjlWfOjE8rxD95jdfJNwdpMTvbnJkR0vHlTBV9ACHKyh1nDmJlrbh8V9Cssuy3lTekuL24Sl8CWEr53fTiNIoY/HD1WxOzKkMD7+ublcdhu07Mqu1nqGtS5jT6OzeAq9rMqp7yZ1ZtOn5H2WeJy38cA8Bs5yVw6/eNCp8T42N0ZH/E8tF9zEshtHTYOFzBPau4WOhfk9NVP56LA3G0F8fu+Niykb+TFisUX2uufuO09Q5ax7QzF724Y+LqpfLPlQUzq3yG9U9Of51p/Rzx7xqZVeoru4039dgahLYZd/gTS8ao+ijugCf6psKJWO5v3CBF7qBzS0heMt7uFzfvnIGhDwr4vY6MAbmt/pjf2bLW2Z5Vg72mIRfNLK+Vui+Ui+ZyPcY9Xj5X/s6lkyY1b/LxzHd2iYy6QTTXDlh29frmBonc7COfJ9fjuePCBr7svlxpavooQ4NfLdG0srEnr6nRNrg8cGVzPS6GBqz2NYkbDD9+vuXPr3M0eClDtuXQ+jI5jq9a/eZkVqX5zb4bW814YrwpMM1v1g2zKtqsYves0tuYS/ti279+T3RkW+a8kt/ZvScizIfI63Od7ZA0OTNjNcwqds8qxrCImV85pkwN9vHLILhrK5uQx+eEG3Sag/hium7Hx6xb255Vcv2yDEYMzlzqgE23gza9fYUGJuaLr1b3eObKxdR9bFOB23+GS7dYDzIvpX7nBnDr5CWnkW04nx8uHX0gyO5Dw73p0vGaqTSnWQc9t+8i9d56QBPKq+5dZyRx9RsSk8Ly+miWBnouUNMrvBmi7kPnWq+u5VDTc6kfmSGX40c7E8ayTr3O5TSr+t1Za46Z8tuZi16V559jtc72rGK3D+ijXqVtqqwKTlittLjkornMXNzj/XNrZFapAzuuA+5nSPnUOph2s2qZrl9Wlw02dK4No0qU9/qAOZhRNojVTDvv6a7eGQ8L1uzf1DrJPzHWO+b8rK+jn5exUT23h5G8ETGbV7MRCd24AWQUWy7nsHv9iNmAYXnj3gZovMbcRXO5rHGPl8+Vv/P7acn7ointji0nN2skTeGGAr+Pj1FHWjuP5Nv1eO64MLOKO75T2ww+0IarmzTVk1nFvnmzJnFDZs/h++IS9X9sxsDolxo4pB3UV3nHcnGDvR9xSwG12TcvncgQN7uLM/KNtmIxteyzU5eov8fUlkvXuYzO+0/JmpezDDBN1jempi0z6vS35XJt22gL/AMHo01XiKnomCvr53+vRief62yHDAxdjAdJI85U4QZT7HEhb7Wa6j9rDNLWbWXeCBczv0q9LEzSkR36ILebDh8334hovFJe0kBJ0/I7W/6PLW/YE8uu9un5YmaVscup7G96TKUXqfewme465W1xU4wm/Bse/XJf+wMzm0c2wIQm3JIT6x5gHLPcYDeuqcC/2SvMNPTLWNYntzdMtd4GyL15UK8LC6N8GZm62HGJhtk9oVzrg0lTnt0XK3+F2LkwT+ffN42dn5+cUt5uxpfRj7/+p2s5/OPzn3EH6i7Hc4bC+rLMRzXPbnpo50RqXZ125qJXquL8W96M2JWKzxUXA6O4dzqH3yMs3Kjl3wao37udNJfaa9zjff5WxazS34LkZ8b41Dr+Lbe0BuEJYO5vJV6jHm8JCZduOb/lO9BbTmWofybC2LHskaMsE2GXl6TpneRS/MYQQMMNtnWzin/a/5Lo5MdaoiNpyT69TtMbAzlLWZYpOZyhppMZGg3ynk+vlBlQ3IDMGLhxxlNLmg6NWvRm3jwpDBeTczfNi+0g7vGSzppW6pLawuD1RIb6bWv27+foREeaDoz4ZeaNp5dClvSKFyo06gP1ljSd+lLLp9NAUjrH9fi4s8G4dPVBr6/rlxl6gymbMbDl0jQGydVZBphaxbhRZFiqN1877pNbylX2LDDHa3P50X7j4gZrVi2qs4jzDwFUs2jLOT7WuZpV7Ewi1gBbosuWPRGNmGcx/9kyCrPqlFomUU5rfPS0LM+seumYiBvMvfSLDL3KtMPmy37cKjDg1A75mXFbevQl9PG5mryZob0nipq9err0eyhnaoS9Kjq6LcYcGMY0f7j86h1ekUfuOLE8o+kPTKd/gX9b3zpudhNnBOyW324XXp/DrS5L06KfUkfVg/kq9w5iN2xfmKXTh81Bt9DKNFW4uu2gddt6qJ17A+utK7SZ2a9FNeL4gabYePcaY1Bc6ztLG5k09Y16WbNKMcmkepq4wrxogDOr+IFk80DG0t/k36hnK1tUnTr/3TKrrMlq1i7RtXNnadOuIaVf7DQQXLhDB41N5Dvp4FDYa+wl7bV7I7u/1J4RumYct0Kp2dt00DB/XbkNMdC5a3G/cbGrJGMnPleCBaf6kfLtdDxrVoQZ0mF1WcG/RWjNla3cdsaladxrKs7/CnGz29btuEDnbeOr2Ulq2ddJey9ob6csZQYUW/96W+GNp3VvXqFRJmYLVqeuXmDidje1TqiMOGkel2npeD+G1sisWqLeD4sdNdGxPfq51pnUMzeXHywHnX3L7Bt9QCyMqqSyXEcV1i+49XMuSy1thbweS1PL9Yh86vn2/q12zIVplRjJUfKBlNb8EiXHMnTA8oaslltyx1zb80vqnL/Wm6XRmSWals2jr5do8qsc9Q9n6FBhb5iE8TplRyPknrnfiqgTsTfHqbEcTc6p+Zy+n6PRsSwlejP06vE0mU/8LaZHS5r29mUp6ae3uETjE1lq6fC5cTTSTmSo1zcI53J0+XqOpqU64gad5sBNrb+AwZY0HehX8zj5lZxHP6/5T7UOBYeOmgf5jXt8COsWA07U4+kJiZ+5HA32F9/aKWsz/XmGtkjs+bo0tGeoV0vj8qViGv5xHjcfMjOVnAaSUtmcj+f0S9MbfTkaFzGiwNhoqsDw/Sw1M+U7NJIrLgGcy1F/r32/pboyq9KrGDcChkW95ehUW5pEHDxxqRCvghi9TNMz+bcvypyI729EvoFTYkK5XuV/5+IGb+TYNffLxz904R8MyO0vuGdxM21b0tT4UZYuzwqWl2l6OkunPlLjkX99T9tLpmHmXkZ+VutLHRkavV+4/r0cDSqDYT6mmhrybdbL+7E0vTNcaLviJSy3MrSXe1st11dwjRk3LTGuQ8S4HE1+Ld3vFpdo8n6OLn+WpbbuNDUeszHLm3uGoebK8KeX6OfM4J9ddrOQoYnZWRoeSlLru2do4/YOajJm63CGht7ZldoUNwgJmZnBmVDGACLErBImzKb3kjSaKvSfUlPWDZTZJ8VsZ76TmvtmaUp01OcX6VryDl2zDSwmeANH2edEWxoRtFXXOrUtudjaQZuP36Zr3nKNJZq4NUaH9zAznwo8OJtV4vhtCTp47i5NeLF4iSaSV2jHdiZtZoYPuzxyawdtPDxCw349zc3S+ePd5jJKn12dGW5p5dYENffPFpcAijRbe+g5Pw3lkzOrLCbovqEgn1Mzd2ngc2kGG7uxfget33WWWq/O0sSc1I9PL9HU7AMaHR2j9uNnafMrHVTKXlOptGUwKfYT6hBsFq65kKGbt8boSDCrTm2nrgNHmwHb2DpGo9OL+Xbhs/tokSYmpuj8uSvU7O0BpS/55GfaNXVO0U1/mdGjhzTcc5Y2GSZZnjc3btWymm0sb2A//9s+aum5TaPT8tLRJZqanqJ2xuQ146EU63wNmE8urq0L46paZlX6IXVxG8pvS9Derjt0bVYzIefm6eatO9Tbc5Fef7OT1ru8Fc4ofwW0rkI7Wx3+VyhluUes33WBum49LLanuVka6Cq2A/M+yN2LO6ipYyr/9kqv/d+hUXk8z97fzLYizCeu37B+j1iuK+fxgbWtrmceBrlq7rfXuMf759XIrFqhydGMsvG56HwKo+Wy2AsmMFqWafpBjkZHMtSsmTiv/snsXE9fV2duiEHzZVuHw2hsfEAynlrr++s4pcN3zOXBQth3dlN47W2KYedzfzMG0c7GybL3dJ5L0+k3bnbEdJadlRKenmlWpbglhYbZoJ7HDci4AaHOVnjezEEhW4fOmvtscgM3tTx+Q47+5JcDRZVL1YYfdEWlEfz9WFrZbD/Is+tA0m97zsebJnmQF4mT4nIz5q1t0nHcufpvRjtzzavrcXE1WLW44TMsPjmOzTajaunyQg35GtX9zsUN02gp5MFieHjlO2lfTuw6s8o3/1S9ovRU/66263y+45SRXSqttxVlBiF/TzQ1LIUVtWyNfzT7Cu4vMHCLGTbtOV1t/PPHunD8kE6/xZgKysDd/ne3DrLZ2Q3i9SqYVYoxZCvnTtvSI34wraepzh6S64Ff8iOfz5pkfqx2/RSzayyDeflaYd/dBv12Nri0N3LLpBam6EjJb+0rXF83q2yDblt9G7/zZtVEn7lk0yinWLYm1dPwSX7mmnGekYcOWlfSTJ0VSk2OMLPFoupKbafOA8FUkl4vmTVTZ5v55aSX84xAtaxBPArqjR/oh+eh9JcilMKVc/0UyuR8fPISMwsmih3/71G6yrHQ/14ZrSvdzpz1qjD/Yvn0+fdcZuD6muc/zXsxP2NPZ1g5z9GsSqUfUFcZb+z0ZuMyL45w1jwu00G7zjMXalZNjpgGk62Tpv9+4o4Ptf9Z+pu2+GV95XUqRX7NPDJPt5UOt1+WqM/SB/Xi6bhtiZ2YRdbEPUnWBwnMv41BNDuAtBghYpmbwyvndQa8f3NmVdrcDJ89Vy6HWOaiwZsSS26YzYvVtNQycQMyftBQQh4L+bXvl8YNxNT8qTfguMdHcGlZcqrqpQ78jKf/JaThpX8sZDZltYyaNG+SG+WVGC3XpDTamWvZXI/z20CM41ctbvh5ZWONypleJ3ybjOA7uF7lj+Pihmm0FK4bshQw7EUN7mbVCk0m+RlAuo7i340fZeiddlVvTt9YZXQxQZV7Z3lmFbdJPVdWvq8Qc5mtiHHawzLuWtxvnK6VN6tWKDV3hw7vUju+eofW9m+lo+u1GW7gETKAqaFZtXGno2kglrUxHWn/fjra2c3sb6XqZ+pSjCMT50IMD2bmkX/duJ/s3k6cISJmXJ28RHu1v7mZVQna6Gg0rf8XfmmfKBe/TETV1GdQvIGyvUPbt8owq1ZoavRiGYNu00Tx9J9zMQE13hdm+dkqmt5++ZTPUs2q9Apd6+mxz0Tjrq2ZbHEGjlNXL1pnOinlMa7L6PzVp9RUsvlVqWWAXBzjefTL19RTxlvwSuAqTv0IduMcf+3jM5YZh+EaiH3+BmL3nSqkdYXbWRy9Ksq/0G/uDh10jKs+f9wDEmGCrjfanFqHyr3K2awqLY9eXrcl6PBVbYZegZk4msdl2ovfheuEmlXcnkBcB437je3ILy7RYJ99CQ2Xjph9NR7MvCp2HsTT5USwREztiHPpcL9xeazMzKoVSqXsy8O4vIg9OQ5dytFkVND4MmtdOsimKwwUblkEO4AMMU5KqDuRH/sm3ss0nszQaw7mm1iqlrgjT72WOBCztMLSEJucS5pyAzJ+gCGu4Z5HT/tjaTog6pDlVaQX13yKe7yki1RmucGn5vJLrhpkI9Dy3dr2YqQhdGnoiNi7LYbx4pUl1vHRJrla//mXNUSZwoLJ3qQ5Q7AezSpPs9WKGx6H+WWA1vgk8yfa0DAzM8bGc41+5+IGd//ItzX7UkBjvzYp/3HMKhGbkpciHiYF8ci8V6rM5+NGvDKukL4E36jfU/KSXzMP4nhTQz7m9Rf20DOuIbHT0JmhUdvM6lgxQywNy9Hpj+L1VUTe+BdO8A+vjAcBEgtKzLb9Pp+irrcTkR1bv2Psf5qzgLiBR8gApoZm1cGheRpoty37KnTgt5+h1ht8RzrQUWxIHvFU2TR6pPupZU8hoen6IzdoylZHcX8XGxMfj6jT7T10ZPABcXsFmWXg6/a8t2eKOgDy+fA/n9t/xd6eCuWaGL1EmyNMik1vJ+naPDPwZswqUV9ijyvbcjE/b2JJ3ukhfSYSY6IU8hlprHF5WXBgjxlUbi5lY2WJk5tDF6mRW46pXUto0K5xH3fgmJpI0t64prfFnJ36dCg639t7qOXTMTqolcWV23BTxbKPnXYtjyGxRO4csxeeVA9B7Aj5LS5Xcesn7vETow51oOvx5hV+f7GQcntvgHwzPH74bVUsNw7VuoLtLK5eleTf42XuLrU73pMbW2/TTXa/qEUaYF4EEOgp9nGUl/LHMatEncbIo7im2F7g/LRl/B3TUBUaxa6jAoehZlVlZ1ZJN/7CK8vFfkpN0qajorPXcCJNTZ2FvU28/Tek85TGs0TlmGniWtzMqpS0Z1XD8TS13bJXUnQwW6bpeznqv5TfO0ov65bWNO3tzlBiTNoTRymjrezL3n5Oib4M7T2Zpi2aWSPSbWrP0Dt9Weq9ZUu4sD+KAAAgAElEQVQ734GWTYstbeYm5kYZv87R5eEMvZMw604Ybk0n82VqG87S6D0H7ebz6QkWxJ4f/mBEcBBoYzV/Cvrcz9Hp3gy9JrMk8tKZodO31TxcH86o1znusC/Z4hJdH8vSie40NbWqAxiRz9cSGWobztH1YB8eW73F1Tzu8bbr6r8v0+SX+X3FXpPLIzQT3PRnaTS07RXSm81Rb3+GmtvVuvM5ONSXpf4vVf0NngTv97N01N8nrjD4bAzb1Dju8WIm31iW3tEYE+2kWez5xg1wRdn6MmTo05mhtpGCIXk/S4eOS8y2MW95c82r63F+fIh7vHfeKsaN+/k46MWNk1obOl6M+dflPYH8stbBZ/KSyrho9wn9RQFyPqezdEhj2ttUWz5G+z75WX6fvyAGusSmmfx+SU0Sh4LrQ2JvPW//KNFW8/sEBrFezHL8zGyXoozyvcS7/xkzpLVYwlxfnCdiovpykSUa/KOW/okMnb6rpRdq6C/T9c/y8UYui7iWuIeyscXXuKT2IjYElu7fksZeX0VwezJNzR8X9qT091v0ryl9KhusH0tTORusG+VM3aXzPUPUvD9Bm7TXs69/JUGbdnfT6+8NUXv/VHHvGylvYuDR/ttOxfR6Xmy8qhwj1dNXSXpdfoK8rZM2d9rfqHWz96y3V5bf2V7/SjcdGTU3uOb2gAkGsdO3qeWtbiWdjfvO0uGeO3Qz8r5byPvCPI32D9Hr+xL0vGSwbNx9hpq7bAMHv9wZGmjlTSTT/PPPKf1z4vMkHY4s711q3V0cMK5/pYfax/Vr8mZVftC/RDcHhR6dxRkZ2zup8a2L1H5VmGF6WpZ/z6aot/0sNe4qMiS42/HuFeodL24gPNHfp+i++eSk3eRL3TXSXLe9kzbt76PW/lR+/5bZG9Qs8f7c7iHLG+gK+Z6+Q+3vn6FNErsin6K8XZrpo5T90SwNn7tCB9/qVs71eBZ52i3KepFaz92h0RmTayUtV03nH3jXFG1a7DPnt53ndoprDVH71cJ+a1p6E0MXabN0vNCsub9YB3xexF5ot6m9vY927Fbbhrju87sStGnfWTrYPkK9SWn/MO3aXtqPZmmg5wLt2C0xta3TO7/YVnVuz9JpeQ8eL92YMcnPy2zKi4VeXcl5EKayiIX7xX5Wdwp7wFl49tNy/YzBVdz6iXu8VwcLGbqWTFLre2epUdNA1OfG3XkdDnclaUDeq8i1vP5xlda6Au2sJL3SFeS/oM3E+G1vDzs5Jq4rtIODXWPF/Rd9LY1PEZvFHnFqe3x+Vze93n5bvec9mqQjYu8xyYTc+FaSbhpparyLGNt1wbsfyjHGy6e4J7aP0HkpfvOxY4Xiah73eP+6oWaVfxA+tUqOggB/d+/oQCtoBQbAABgAAx4D/MwqeXYs+iOPZ38k1Kyqh/jAbWy/7QINsE/H66WOwsyqeskj8oGYBgbAABgAA3YGYFbVQycIecBADQyAATAABp54BmBWPakd1vo2q/i3tf28dbLOYxbMqie1PaHc9oEvtIE2YGBtMQCz6okfHKwtYBFgUF9gAAyAgceVAZhVTyrbdW1Wsa9Z76Qjn9Z7O4RZ9aS2J5S73tsm8gdGwYArAzCrYFbV+ZNBNGbXxozjwAoYAANrmwGYVWu7/kpvf/VsVl3rYt4mqL2JrT7rDWZVfdZL6e0E5YF2YAAMPGkMwKyCWQWzCgyAATAABsBAHTAAs+pJ64T65a1bs2phko7sKG5y7W92/fOT9k3l/TKt/ifMqtWvAwysUQdgAAyAgXIYgFmFAUodDFDQiMtpxDgX/IABMPB4MACz6vGox/jtsV7NqqnBPuVNS3mzKkGtt+KXsfZ1C7Oq9pqvBS6QR3ABBsDA2mEAZhXMKphVYAAMgAEwAAbqgIEcnU6kqaElTS8V/m/szFISdVMHdVPdju3N3rMkv0L7uZ1nqH28utd0Gazc7D1Dz28rzqxa/0qCdrRP0tSaYPIBdb3VSc/JrzXfP0LX1kTeV7/uXfjAMagnMAAGwEB1GYBZhZv2Y98JRhCpbhCBvtAXDIABMAAGwAAYAANgAAyAATAABirJAMwqmFUwq8AAGAADYAAMgAEwAAbAABgAA2AADIABMFA3DMCsAox1A2MlXVikBVcfDIABMAAGwAAYAANgAAyAATAABsDA2mQAZhXMKphVYAAMgAEwAAbAABgAA2AADIABMAAGwAAYqBsGYFYBxrqBEY732nS8UW+oNzAABsAAGAADYAAMgAEwAAbAABioJAMwq2BWwawCA2AADIABMAAGwAAYAANgAAyAATAABsBA3TAAswow1g2MlXRhkRZcfTAABsAAGAADYAAMgAEwAAbAABgAA2uTAZhVMKtgVoEBMAAGwAAYAANgAAyAATAABsAAGAADYKBuGIBZBRjrBkY43mvT8Ua9od7AABgAA2AADIABMAAGwAAYAANgoJIMwKyCWQWzCgyAATAABsAAGAADYAAMgAEwAAbAABgAA3XDAMwqwFg3MFbShUVacPXBABgAA2AADIABMAAGwAAYAANgAAysTQZgVsGsglkFBsAAGAADYAAMgAEwAAbAABgAA2AADICBumEAZhVgrBsY4XivTccb9YZ6AwNgAAyAATAABsAAGAADYAAMgIFKMgCzCmYVzCowAAbAABgAA2AADIABMAAGwAAYAANgAAzUDQMwqwBj3cBYSRcWacHVBwNgAAyAATAABsAAGAADYAAMgAEwsDYZgFkFswpmFRgAA2AADIABMAAGwAAYAANgAAyAATAABuqGAZhVgLFuYITjvTYdb9Qb6g0MgAEwAAbAABgAA2AADIABMAAGKskAzCqYVTCrwAAYAANgAAyAATAABsAAGAADYAAMgAEwUDcMwKwCjHUDYyVdWKQFVx8MgAEwAAbAABgAA2AADIABMAAGwMDaZABmFcwqmFVgAAyAATAABsAAGAADYAAMgAEwAAbAABioGwZgVgHGuoERjvfadLxRb6g3MAAGwAAYAANgAAyAATAABsAAGKgkAzCrYFbBrAIDYAAMgAEwAAbAABgAA2AADIABMAAGwEDdMACzCjDWDYyVdGGRFlx9MAAGwAAYAANgAAyAATAABsAAGAADa5MBmFUwq2BWgQEwAAbAABgAA2AADIABMAAGwAAYAANgoG4YgFkFGOsGRjjea9PxRr2h3sAAGAADYAAMgAEwAAbAABgAA2CgkgyUbFY9XP53WvnP7+i7//MD/dc//i/99//8D+E/KAAFoAAUgAJQAApAASgABaAAFIACUAAKQAEoUI4Csc2q9F//k77/4b/KuSbOhQJQAApAASgABaAAFIACUAAKQAEoAAWgABSAAqwCzmbV3NJfvVlUbCr4EQpAASgABaAAFIACUAAKQAEoAAWgABSAAlAAClRAASezKvPv/0n//d9Y5lcBvZEEFIACUAAKQAEoAAWgABSAAlAACkABKAAFoECIApFm1dJ/fBtyOv4EBaAAFIACUAAKQAEoAAWgABSAAlAACkABKAAFKqdAqFklZlThPygABaAAFIACUAAKQAEoAAWgABSAAlAACkABKFArBaxmldijCkv/alUNuA4UgAJQAApAASgABaAAFIACUAAKQAEoAAWggFDAalZ9939+gEJQAApAASgABaAAFIACUAAKQAEoAAWgABSAAlCgpgqwZlX6r1j+V9NawMWgABSAAlAACkABKAAFoAAUgAJQAApAASgABTwFWLPq+x/+C/JAASgABaAAFIACUAAKQAEoAAWgABSAAlAACkCBmitgmFUPl/+95pnABaEAFIACUAAKQAEoAAWgABSAAlAACkABKAAFoIBQwDCrVv7zOygDBaAAFIACUAAKQAEoAAWgABSAAlAACkABKAAFVkUBw6zCxuqrUg+4KBSAAlAACkABKAAFoAAUgAJQAApAASgABaAAN7Pqv/7xfyEMFIACUAAKQAEoAAWgABSAAlAACkABKAAFoAAUWBUFjJlV//0//7MqGcFFoQAUgAJQAApAASgABaAAFIACUAAKQAEoAAWggGFWQRIoAAWgABSAAlAACkABKAAFoAAUgAJQAApAASiwWgrArFot5XFdKAAFoAAUgAJQAApAASgABaAAFIACUAAKQAFDAZhVhiT4AQpAASgABaAAFIACUAAKQAEoAAWgABSAAlBgtRSAWbVayuO6UAAKQAEoAAWgABSAAlAACkABKAAFoAAUgAKGAjCrDEnwAxSAAlAACkABKAAFoAAUgAJQAApAASgABaDAailQdbNq/P/7f2m1/l8tUXFdKAAFoAAUgAJQAApAASgABaAAFIACUAAKQIHSFIBZVZpuOAsKQAEoAAWgABSAAlAACkABKAAFoAAUgAJQoAoKwKyqgqhIEgpAASgABaAAFIACUAAKQAEoAAWgABSAAlCgNAVgVpWmG86CAlAACkABKAAFoAAUgAJQAApAASgABaAAFKiCAjCrqiAqkoQCUAAKQAEoAAWgABSAAlAACkABKAAFoAAUKE0BmFWl6YazoAAUgAJQAApAASgABaAAFIACUAAKQAEoAAWqoADMqiqIiiShABSAAlAACkABKAAFoAAUgAJQAApAASgABUpTAGZVabrhLCgABaAAFIACUAAKQAEoAAWgABSAAlAACkCBKigAs6oKoiJJKAAFoAAUgAJQAApAASgABaAAFIACUAAKQIHSFIBZVZpuOAsKQAEoAAWgABSAAlAACkABKAAFoAAUgAJQoAoKwKyqgqhIEgpAASgABaAAFIACUAAKQAEoAAWgABSAAlCgNAVgVpWmG86CAlAACkABKAAFoAAUgAJQAApAASgABaAAFKiCAjCrqiAqkoQCUAAKQAEoAAWgABSAAlAACkABKAAFoAAUKE0BmFWl6YazoAAUgAJQAApAASgABaAAFIACUAAKQAEoAAWqoADMqiqIiiShABSAAlAACkABKAAFoAAUgAJQAApAASgABUpTAGZVabrhLCgABaAAFIACUAAKQAEoAAWgABSAAlAACkCBKigAs6oKoiJJKAAFoAAUgAJQAApAASgABaAAFIACUAAKQIHSFIBZVZpuOAsKQAEoAAWgABSAAlAACkABKAAFoAAUgAJQoAoKwKyqgqhIEgpAASgABaAAFIACUAAKQAEoAAWgABSAAlCgNAVgVpWmG86CAlAACkABKAAFoAAUgAJQAApAASgABaAAFKiCAjCrqiAqkoQCUAAKQAEoAAWgABSAAlAACkABKAAFoAAUKE0BmFWl6YazoAAUgAJQAApAASgABaAAFIACUAAKQAEoAAWqoADMqiqIiiShABSAAlAACkABKAAFoAAUgAJQAApAASgABUpTAGZVabrhLCgABaAAFIACUAAKQAEoAAWgABSAAlAACkCBKigAs6oKoiJJKAAFoAAUgAJQAApAASgABaAAFIACUAAKQIHSFIBZVZpuOAsKQAEoAAWgABSAAlAACkABKAAFoAAUgAJQoAoKwKyqgqhIEgpAASgABaAAFIACUAAKQAEoAAWgABSAAlCgNAVgVpWm2+N91ncjdHTzU/Tsi0/Rs5v30/h3j3dx6790c3Tu1afz9dHwCzo3X/85rnQO0+d/QRsEjy8+TS+fn6tM8vM9tKPA+YZXOyldcqqon5Klczjx+9v76QWv7p+iF94foe8dzsEhUCBMgarEk7AL4m+PsQJz1L/rmSf6/uxeud/S+Ac/K9zLn6Gjt791PxVHQgEoAAWgwBOpAMyqJ7LaIwr91z76TWFw+OyLW2jorxHH489VVuALagvq4ylqm6ny5eow+XudBfNU6ND5RWVyOPP7/ADD0/b3dK/kVFE/JUvncOI3l7cU66m5j75xOAeHQIEwBaoST8IuiL89xgog/rtX7l9oqLl4L//N5b+4n4ojoQAUgAJQ4IlUAGZVOdX+07f06PJ+erkhf/Mtb3ZG3Ix8S2NHC7NtJCPDmw0V+99P09Eb0hMumFVxK6PKx6MzXJXBJcyqKnNbmeRhVlVGR6RSVKAa8eSbT3bSP3l9gafpn94ehKlalPsx/4b7s3sFw6xy1wpHQgEoAAWggFAAZlWpHPx1jHr2FaZ+B+ZQObMz4mZEvemXZlJZnnDBrIpbGVU+Hp3hagwuCWZVlbmtTPIwqyqjI1IpKlD5eKLfj7fRJ/9RvB6+Pc4K4P7sXrtqO8HMKnflcCQUgAJQ4ElVAGZV7Jr/gdLSbCrVJKqlWYWZVbGrbs2egM5w5QeXRDCr1kaDgFm1NupptXJZyv5TlY8n6iD82RdhVq0WD7W/Lu7P7pqr7QRmlbtyOBIKQAEo8KQqALMqTs1/N0PnjNlUxdlJz75YS7MqKuNqBypWpwAzq6LErfHf1brEnlXYs6rGAK7q5WBWrar8dX/xUoynUs6JEqK4DPAZ2vHBCJYBRgn22Pwd92f3qoRZ5a4VjoQCUAAKQAGhAMwqRw5+nPl9sDdVfjbVM7S7e4zuDUib/8KsclQTh8VTAJ3hagwuMbMqHoWrdTTMqtVSfm1ct5TYUMo5a0MN5LL2CuD+7K45zCp3rXAkFIACUAAKCAVgVjlyIHduX9jXSlOFN+QpAymYVY5q4rB4CqAzLLc/vA0wHj1r/WglxuJtgGu9Oiue/1JiQynnVDzjSPAxUQD3Z/eKhFnlrhWOhAJQAApAAaEAzCpHDrzO7eYt1DOpvmpXGUjBrHJUE4fFUwCd4aoMLrHBejwMV+loJcbCrFqlWqjfy5YSG0o5p34VQM5WVwHcn931h1nlrhWOhAJQAApAAaEAzCpXDv7xLf34k3mwMpB63M2qn/5C9y7/ng68+jPaUHgD4gsvb6HD3YP06DtTm9Bf/jZH43/aTwd2bqAXgrcpPk3/9KpIr4/uFWauhaVR3Fj3Ger5c+HIv8/RJ/97J/3z5vxeYl7+BmboR0tCP658QUPde2i3VKZnX3yG/nnnTvrgTyOUjlsuy3X8n7+Z6aMP/3ULvfzrp8nfnH/Dr39BL/+v/dR/Y46+ZxgjsnSGf/qW0jc66fC+ooYirQMf9AQz//zrunx+vzBC/R/spJcVLUSd5NMcX/g2OpnvRuhoQftnN++n8Uj95ujcqwUtGn5WrEftSrEHl4Kvs2q9eiycleq02mZVJernb3N0L9lDH4p62fkL+qcGaY+8hp/Ry/v2UJuV0xnq8evixWfo6A2H+hO6/02qw4Y9NGarwwq0Ya2a2X8qMVY2q/42Q5+Itvuy/1bWQvyQ65hN0fyx4nGgAtqw8Y2Ivn846MUQP8Y9KzgQ8UN7kGKW0vEXqQ1v+N1gce+lf/yFpkTMluJDyfH/px9oxY+FQf0JtkXsLdwDVn6wZvheZzF++nHU+vlGD61oKdniyfeZETr3r1uC+0ccbb+/vT+4l73w/gh9r13T+2e1tf0uzdxXpZgR3Gv93zZQz0Muo+G/Fcv6NB34pPAA76dvaersHtpRuLd596L/PVbkR09yLbSRIIZLsXfzBtr9r500nvHjqeX+rJdX/ne1yr6a/Z9Cm277X7/Q2s/vaWjGf8gLs0rGAN+hABSAAlAgWgGYVdEahR6hDKQeY7Pq+/keOhAMfP2OrvTZ8Av6cMY+uAhE/Olbund2S9Cptw4wXnyGdp+dsZg3+dTkAYe36fjKCB3dLuUp6JgzG9//lKZP3v9FYLpZ89HwCzqaTAfZL/nL3+eo/3f+oJrLY/63DV0zzCWYzvBfR6jNN3mCcsrpPkMHrjrm+z++oJ7QFwcU0/WWwIa9kj325vxM2RgF5LqOWga4ktxD/8xqUihHwy+o7fa31X0bYAXq55ur26L59Mvpl0nR7lsae7tYd8/KRo9ynPoPJab9upUeqX8mqmAb1pPm/q3kR5Thp2/p0cDO8BjS8Evq+bNLPKpwHKigNjLzXnz7LjqGvPC7PlphDW9OWctvchsuMPPNjcPano0SV4JBEf+n/MG7Jd3Czz/O99HR0Njlp/00vfx+H6X/rqenDnitsdtvG8x9WdbWiyc//YXGT4bfD1743WCotganerbFv6uo7crY/vA6CvTw9c1/xnr5SqFMclm98/8+Qz17OANxCw3pD57WShtZGrT0J3z9nqaXT47RNz+53cM86apZ9tXs/3xnq39fq6fohd/1UPrvatsthT2uWeE3KAAFoAAUeHwVgFlVZt3KnbbH9W2AbT0Rg3+/E9ywjYb0R9iyvj99S+MnNgQziqIHGU/RP3d+YZ0VJQ842m58QW2sUSUGUppZJYyj/VzHutixUvP2NP3msqPxI5c3+P4X+sT1eqyhoHaGj3a30g55ho2vv/G5gdqiDMSVPvqNU1qSNpt30ie2epYHYy8yA5VAE/+LWjbbmw7lug4zq1Yuuxo8T9Nv9lfq5QhqGSpVP0qZjbqV6iP42y+pP+Prmv/88fZ+qb39kvqX1L+b/0pT/xvFtH/Vo5mnFW7D5vXNX5QYu+cw9Rx1jSERs0YqHQcqrI1c/23/ZjPii3Xlx6xfnbTHTFNd5he5DTd30ic9v3Q0TbeEx38iEi8qCTWSA5aL5drw6u/pnmZYVXRm1dFWi9FSzIOvbdj9SOGUjeO6WVU5bUvRNV+miDbC4CF+ksv6m3/7goas97dt9In8cGOttJEY98UN+7fRbyRubfcwYfI/lv2fv4f0vSRdPN62b6Pf7Cy2K5hVlgaGn6EAFIACUCBQAGZVIEVpX+RO2+NpVhU7Fs+KPbtuzNE3/8hr9ePf5ugT7Wn0hhNjVnNJNRKeph0n++jekrS88qcf6JuFMepXZjw9TR9M8DMk5MHchgbffNpARy8XZ2T9uDRD41NpKU8/0L1OebC7gQ6IZUN/la7xj29p5eGgNtvIZaBvYejPrfSroNOWz9830uXoh79QerKP2vb/jF5wmFnlD5zEbIajA19QsFrmhzTdO6vNOGGWwAS5NDqZtjoZ0bR4ip59o4fS3AwOeaBba7NKuXZ+todgweeV/iGWTbbSbnaGoGZoBiK5fFHNqkrVT/rsBtrw6196y2LH783RN9/J0BD9+Pc03RtQZ1MY7e+HMfpAMiN3DESYrks9tCNg1WS+0m3YRV01xhbjkZjlJ5am+suzf/zbDA0psSOEU6p8HKi0NnJ8C5h6Ucw26qF7SwUWvKU3ndqsV7PeXHQOjtHbkc9DmfGfDAPAEntneoyZVxs+sN9XFJ06vwiKEfZFOccvX5naKpy6mFXBdZ+isu6tP3xBbb8utosNr+6noYfFdkEeIz3KLKEw0y1MN/9vclmL996naUfXGK1I/YOpGzPKcsi10UbU2T/Pelz00aO/FdvcNwvMPbFQnzazqpplL9ZBrfs/Io6ulx6IPEXe7Gs/PgmDeukLrU9XZBVmld+i8AkFoAAUgAI2BWBW2ZRx/F3utD3OZtWGPa10j9275gca/8A3ikQnZD+Nq2PqvJJ/G6HDwaB5A30glmFZ/9MGkpaOvzng2EBtUUtRHrYWn+w3bKP+eS6zhYz9lFaeGG9wHAjpxRJ7z/iDzV91azNV9IPZfzNmyPY99Illlkz6/C+D6z374i+M2Tb+JR71qKZdaJ2I/UgUk+9pOjzG1KEy0K3tzKpH3XKnOWRWmVhOZcwEqLBZVYH68esp6lPMnvL3kDNmEdIPNHVCap9h5iURrQxI7OjHVqENR5VN/F2NsSLGPEMHBuYkA1pORYsdL1rM7krHgSpow8U365LkjGwyPkUvn48wJWXJ9O9KG84PLMuO/ySWpEocxoy9z75onwGk6OQYo5VzPJNhg325t6O2CqeWe5ayDLBgbpSt7czvi+3/14dpSpuFFlSvwmh5hqZSVq8cT9Nv/i2COeX61esDlN1GlIdLIbO7xXLk8+ZMXtasqlHZa97/+dsgHShwLPo4G/bblyGLpcT6rEqYVUHrxBcoAAWgABSwKACzyiKM689qp62cAa/rFV2PUw2OWJ0CbbAiOtOPbB1gkR2lc7ee3bBV1insKXlQuu9G6HDQCdKWEhQO0gcckZ1lIpKXj+xwGdA9lGZF6csJg8yGf3nUUzRRKmJWbd9DY7ZleCIrWgeSNZW0GTe/ClluGZROe4L/7NvMJsIKOzU0q8S+IYEZ+hRF6qwZkeUZzWpbe7YS9ROI7vAlSnOlfdrNSyJ1CaAeM6rRhh1Kp5lVG+joWMSg+O/qbDLOZK50HKiGNmp8iyr3t/TJ74ozFti26SK2OEbh6SmqRPwnZcbeU6SzxWZNy4exJLVwkqJTSWZVZbSVGbDuD6eVqRLaKtcNLb+6hx17X2ArwvxRueaLT5HL0lP5nOr0ASpTj3JseFbs2cfNIJYkUWdMPUWcWVX9sj8VbRZWof8jl+vZF3fSJ3+ThGG+6stVneIAkw5+ggJQAApAgSdHAZhVZda1erN+HM2q6H1IKHKD0VI6yWka2lMcfHEdQGWQ0mx/oles4hnqCZZL8KZa8djCN6VsLuaLkQJ9P7anONMpakaBeToZbwOcYg+SflS1YzuE96Sn8SGzr6REva/yLDF2Fp0yGHPRSzV6uHoWF1bqmhuQyabii451W623AVaifnThw/4dpflPMvchs24yPfRyYBDrA4/qtOGwYvl/U2KsbcaKf7D3KWZ7FmPHszt7SLW3ZD0cWQmNA9XRRmH+ZPTytpV/k/Zgc9JJEa34D52nMGNcnKVoYxmsX91WjIG22bfFHBS+RdVj/jBFJy42GOlq8aRC2jpxWg1tL0v1Hlp+ldPfXPXf0MYIFPGTUtaw2VxBOuq13Ywy9T7G3RuUuq9IPcqx4SmyGaRBsbwvUfewGpR9Vfo/arncDHJ1iSXbN1HFxb+gABSAAlDgCVcAZlWZACidNuatQ2UmX8bpagcqVqdA71Drb/MxcqV28MxO5Qx9KM168ZfExfnkOrdKRzW0k17I8H8MKhuhxrl+/ljHga2uzw8z9KGy+fsztLt7hNIRTyGLyah1aepbPDL/Te1EcnWvcJlwMzsAABbbSURBVBtnxphi8DBGZmx23MoWVdeKIfjiYZqKeBru6aSUpRyj2a0MxVqKrp/isflv3y+M0dCZ/XRgp/Ra8MBYkowZyz5h8uw+b7aAfgEiUozI3w0qe80QVacNM9kwflJYdTRhlHP0uFzxOFAdbaKY14VS2oCjTnoa3r9jt+Go+K+ZQ/sH6Rv2wuaPaj3y7TquTuIqcc9x0VbJq03/KmirvEQhbCaQ2DMsiBkl3ssKVeRUVqU610gbUWZ0P0VtkQ8eRCGj4n99lJ2qEPeKD/+eot1Ry0A9HmBWKc0C/4ACUAAKQIFIBWBWRUoUfoDSadMHReGnVvmvageKMyysGYjdoVY7IIaZonUA45tE/LKRuAMOUmbfyAN89+9G2awian9Y6tM2Qc5f84Vde+jcjTR9H2quqHXpkgdZG67u5b9bl6xoRfD+qbDBzKJQ/l67mVVKO9zTR1GTQbyyrJpZpQ6Wufrxpf9xvs/YbDq8/Vg0V2ZNcQPVNPVLb2n64La2l1uV2rBfzrBPpW5tJoCWgDKA1w28SseBKmmjtFEXM17m2VEnTbb8P2O34Yj4T+rfw97maeRHLpNej4WDY+tUgllFcj4s2jpxWnFtiUhb0r1hz++VFw9wG6y7LG8z6kL6wams0vH0/7d3v69RXGsAx/+B/Bd5mZd92bzaV0KgIHIDmheSIiihWAiWCwlCg1CCBalUBBWEhdJgqYiEcEMgEARDUwgsNyCJSFnBLrHUNiFeYmza53J2d2bOOXNm5kx2Ju5uvoJkf83snM95zsyZZ8+c6ZU2YteP14Ek4/jcLWUver9nJ+m8EnvmviDt2KeHD48RQAABBE6uAMmqDuve6LSRrGpe6hFLphgdQP/EUHhSfnZClhyju3KfpOgnHOEvzP7bU7l4Uzasc/hc4bO7KUu3z8kp13efPSe3npgXK0XrzugMRx8MH+k2rg6h/n7fJasSTiZDnOCBEQ/HObLKL1ml5vcYzz0iMSFZZc1HFZvTS09mjc7Iuh3nJbXhoCrS/hr72CPVrWVi1Lt/+w/2R7H9QEk2RhslWSXDJKuc8yGptnPw84x84jquOF9LuflEWkPU3svdJnuljRjbae03tPKbDzOOz8Y68+9vhru2/5NRbhOp/YxklZOFFxFAAAEEEgVIViXS+L1hdNpIVrmTVdbw81gyy4869qncJ3PGPE2+HdHY13b+wvtt2Vi4Ll+c1+6O1TypGJTxe2uOu5zl7xTqNuUlqxwjdIyOuY+xX9n08rhGZhjtMDZHUUKVGUmLLktW2ZPZn1aXjj6W56+0W9IHxfI0N4ysy4X0ywQr36zEY7CkNhwUIe2vsd2+yar1GW2OpElZ0e9kWvR+oCSbrJiPmenx7OsUW4k9wbpPGzZPQOP7d/N9V/t1bUbzNb1Mp616bC+U26nfRlbJtizF7m6akBQZHcm+QUFiZURv5G6TvdJGjH1p2s0oIovMywC7pexF7/eskVWx0bg6UfjY3Be4+ibhR3mAAAIIIICAiJCs6jAMjE4bySp3ssrq1HQysateXblPUoyO6KDc3dDX9mEe723Zl3l9LNVn9rb4JXT0pXQbV4fQmJ/oyHNWOe7SaBj7nOj6lU0vj+tk12yH7rltdJ/mY+NEuLuSVeZlbBkjIXzNjbtE6nGmzzmkv66LmfVUVBvWvyHpsVG3nkkYY7Jxe79seBWxHyjHJivmY156PHs6xdahXjB8fNqweQIaT1ZZE6Ufdc6qhP1Ubqc+S1Yd/DQjlfYIqi8e1aT+pCo3ro7IJ+GozCEZm5iQGz8uSl1P2jor3+/F/G2yR9qIEftFzVnVJWU3ylb8fo85q/zaDp9CAAEEEMgnQLIqn1fs00anzT4pin36OF+wOkgLOe78Y3RqijhZMe/q47qV/FFkcp+kWHetciVxjrIdHS/zdk1uaROwV+7VrFWadRk/GbQ+bp2MucppTBh8+ow8fBVfh+sVfQSOc6JuI3YcI69iK/UrW2Zd6yfqvnc3NJbprmSV4Zw1B5dhntZed2Tpy2jERdgO9blMrBFXUXWV04aj9Sc/MvaxXkkYcwL7YTs5Uvh+oBybzJi3yfR49nKyV9B+7h1PwfJZySoRI55dl5kGqzL+WvV4bdGa9L/14dxO1v7Rlfw2NkM98bD1itPCbXWjKVm1L9+NFaSYF7zKanxVr7QR83g0/kPSpfl64cxl4sfnLil74fs9s90P33CMyNWZmo/NZVx9k9givIAAAgggcKIFSFZ1WP1Gp41kVcLIKvtkZUpW33YIf5QTDtE79gMy/HlV6qkTm3e+jb5rMEY6xeanyeoMx79FP4FzdgiNk6YBGavaCbL4OkUl1c5HyY7YvEfNRcxtdX63tuo3T2dkTJtXJd7Rb31YL4/z5NKaxPZS1knG2015aFw6013JKqO8WYmHF3dkPDRMS1aJGElKNVLlUOT5/Y/DS+bSbtVuJhyKacNaKCQ+NPexFbm1vpP42eYbVmzHTziL3w+UYWPEQGyf4CDwSKg4loq/ZPilx1NrYfME1NmGa9fD0T/DpwfFdXfX2IYYd68bkOlld70bTl4nzOaccc79ib0xHrZGnCa12cJtdftuTlZ1SR8gsx7z7hv2pf7Dp1psO246Il1S9hL6P3n3e/bxPqt/YDdDniOAAAIInDwBklUd1rnRQc2TrHq7JtXPhloniWfPSLWjmbtdhciXNDDWUHiHWkReVeVSeEI9IJWpB9LoMFFknKT4nMypiWi1SybUhMljd1xzRBkaHT6pSfXCiMwup/1Cuy+rs1oSKJY4MuvSeTJobaVu4+4QmqNshk9nXGp2uCOr31TCpMZw4mgs/eRpQIbPz8i6MzG5L/VHE7HJ5pPKppfHfXJplWf0U5lPupPTbk2qk/Z8Yd2VrDL2K6MpiaFXj2VWG5WXNAl1GB7GncMG5cbTNYluP54xwq6ENhxuV8oDw6K5D6kkt6fDuswbSUh3mQrfD5Rgkx3zFlrmibj1+aSnZez/D/VLTQdkOK19qu2yk8kpo7GMSz4TRwaahS3D1ojTY0xWLU1Fx46x2Qfy/E+zrGU88yqr/cU90kb2lie049ygfLGQcOw+3JGN6hkjUaX6FM5jWDeUvYz+z7Ob8i+tX5fWn2osTxo/TCkrd9/EDhyeI4AAAgicZAGSVR3WvtFpy5GsMkY4qIO95y/C/ptrJjhydQrKOFkRNW+JmSCoXJyQuSeb8uatee3CwdsdaWwtyvx3UzI9PiRJoz1yn3AovMO6PPw86tyrDtOpK9dlvlaXPXMz5GB3W+obj+Xh7Um5dN5zNECsgqJ6OPXZlDz8eVPevI8+dPB6U1bv6R1e15xB0ToSO8PRKpuPdJvEut+6aXUe1STei1J/rUG835FGrSqzF826SxuJ1Xh0RuvsD4i6lfr6q/Y6D/flzS+LUr3STtRqHd20sunlcSerRNTd8/SO8/DZc1L9uS4HQVJ0vy4bj6YS7rDXXcmqWHJXN1QnHX9uyup9150ls0bC7Mv6N1FdVi5UIrPPq5KU32uFV/Ft2Apb51NzHxu13bGrd2Rdm3D+4NVKLK4qSfvVwvcDxdv4xLwB1s3JKmmN6gvmVlJtfVhN9v1oTRr6/n9/W+pPbsrls1E9Z43EMud3G5QvfqjJXrvNH/xZk6XlWuyGAWXYGnF6bMkqh6u+Tz1bkfGJkfD/9I2b8nC5Jg3tGGTEkOcTr7LG1tUjbcR5c4sVaQSHxcN95zGxGdNJyaq+7f9YP06dHpTxr1XC1O94n9g3icUOLyCAAAIInFQBklWeNb/3ZDL2C1rQOUn/W5G5F/EvMTp7qnOZ1LmNL+r5ipngyNUpKCVZpX4tX5O7VtIj3a59wpIwair3CUcg13gs08bJkH5ilPw4l2HwXWKNKNBPJByPK/b8Os31mHXp/OU2/L7WA90mbbsbC+YlDD71cerLx+mj4vZrctcY7ZNsWpmqypw2qiypbHp5kpJVIvuycUcf/ZX8vWok2Y2nj+VWWAddlqxynNwk101FxkLvrGRVa/4dI2nQNkiLkzC8Cm7D4XpTHuj7ysv3qnIjLGta/Q7I8IXrsuEc1df+sqL3AwXb+MW8Btflyap87TOo26Q7pGrlNkYLBsvpf+NtuwxbPU4Tj+elHFvdo1ST9xfKZkimH23GkniaaupDr7K61tAjbUT98KFfnp5mOfbNiix9G8Vb0jGsb/s/6nLdcDL/yMFlpo73q9+fC3/M8jrmuOKI1xBAAAEETowAySrPqt64F41GcB2E015zdV5O3siqNvRhXZa+HsmV+Lv0yD0MP/cJh17XuzWZSxjd467LQbnxU/DTqr6i7McHz+5YIwVcHTr1i2RSEqi8ZJXaejWPxLhXZ3NILn8fjVpILXlj0bo8zS6zGsW1Jm8OzfljXG1FfY93XR/WZSUjvioXp2T+hapL3TV+QptaPuNNfT0Jl4EYnzfLk9hhV5dCfekegRbG6OgZubu+I+t3Al+PZJV9SVYzWTUhS76XDxXYhi0W51P9xLhp5eFSuTgjq787V2e+WPR+oEAb75gPStT1ySq1oTkSK2rkVerl00HBRRr/iV9SHLWReNsuw1aP02NNVql93qxvkj7YT6i/KZe4RbTOR15ldS7ZGt38wfoAOdpIYyVpFG7bUMXnQivhp8dT0jGsyfEh9w96fRS838vu40THez12Eo99+rbyGAEEEEDgRAuQrPKs/qJHVqlf2YI5qyrnP5W5raMlQpI3vy7zYTJmSGafuiendS6/uyizwcijs1Oymnm7621ZudY+qR79SKrPnGs1Xjxo1GTpxymZntBvsa06geo22yNy+asZmVtYlOfB5WPG0q0nalLy1giRQRn/YdPxieyX9n5Zkfn7k3J5omLOnzT6UfPSidZlE2tSD4a1Z6/S/YnDnfCW4mOB7elB+eTiOZm5XZXVl2n1sylzwYi00RHnSD37SzeqH7VthmRm2eNOkIfb8ny5dcvz8fNaYlZdRnJlUu4urOW/dORwWzYWrsv0xWBbBqRyfkSmbz+QjdfRFof1mBI74WfUZQYedb334rHc/eqcRNZDMnZlUuae1MNLhEQi18rFO+JOiUbbmfwoWo+6tMk1ktJeNk/9vKk9kFtXR2JlUXWikn3qX+gzOiFLHkmaN0sT2q3tB2X8fvxSKXub7edFtGF7na7ne0+n2m3T3I8FLp8EiVbVZq+qS223o0s/XSt0vFb0fqAIm7BOPWNent0M6/TUtUV54yin10vHsP+X3bqsL9yUmSt6XLf2D806fLKptVOvrZZYm1fxoNq8Y0L+MmyjOB2QU1+771wohdtao0kvzMiqtm9tyr3fkb1d9b8uz5etSyxT5gJLU/cqa9oK1KXMH6IPkLeN7G7KkuofjEc/GpwaPycz3y9KXesXhfHkuf//IGV31Eeh+73DbVlXfbqM430UO+b+3LF5vIQAAggggICQrCIIEEAAAQQQQACBXhN4cSe6XC3tRgx6uV7qNzv5WKpb+ps8RgABBBBAAAEEukeAZFX31AVbggACCCCAAAIIeAkYd0L8ds1rGVFzfIVz9Y3Iw5d+i/EpBBBAAAEEEEDguAVIVh23ON+HAAIIIIAAAgh0KGDMpfnvB+k3vmh/l5HgOuJlgB1uNosjgAACCCCAAAJeAiSrvJj4EAIIIIAAAggg0D0C9o1aTl25LvO1uuy9tebA3N+RxtZjmbsWzPPYmiR8rFrrnsKwJQgggAACCCCAgCVAssoC4SkCCCCAAAIIIND1Avs1uXuhfXe68NI+v+eVyZvy/G3Xl5ANRAABBBBAAIETLECy6gRXPkVHAAEEEEAAgR4W2K3JXHjnX59E1ZBcur0Y3km0h0vOpiOAAAIIIIBAnwuQrOrzCqZ4CCCAAAIIINDfAgeNNZn/bkqmJ0Zk7KyZtKqcH5Hxq1Myt7Ai9T/724HSIYAAAggggED/CJCs6p+6pCQIIIAAAggggAACCCCAAAIIIIBAzwuQrOr5KqQACCCAAAIIIIAAAggggAACCCCAQP8IkKzqn7qkJAgggAACCCCAAAIIIIAAAggggEDPC5Cs6vkqpAAIIIAAAggggAACCCCAAAIIIIBA/wiQrOqfuqQkCCCAAAIIIIAAAggggAACCCCAQM8LkKzq+SqkAAgggAACCCCAAAIIIIAAAggggED/CJCs6p+6pCQIIIAAAggggAACCCCAAAIIIIBAzwuQrOr5KqQACCCAAAIIIIAAAggggAACCCCAQP8IkKzqn7qkJAgggAACCCCAAAIIIIAAAggggEDPC5Cs6vkqpAAIIIAAAggggAACCCCAAAIIIIBA/wiQrOqfuqQkCCCAAAIIIIAAAggggAACCCCAQM8LkKzq+SqkAAgggAACCCCAAAIIIIAAAggggED/CJCs6p+6pCQIIIAAAggggAACCCCAAAIIIIBAzwuQrOr5KqQACCCAAAIIIIAAAggggAACCCCAQP8IkKzqn7qkJAgggAACCCCAAAIIIIAAAggggEDPC5Cs6vkqpAAIIIAAAggggAACCCCAAAIIIIBA/wiQrOqfuqQkCCCAAAIIIIAAAggggAACCCCAQM8LkKzq+SqkAAgggAACCCCAAAIIIIAAAggggED/CJCs6p+6pCQIIIAAAggggAACCCCAAAIIIIBAzwuUnqzqeSEKgAACCCCAAAIIIIAAAggggAACCCBwbAIkq46Nmi9CAAEEEEAAAQQQQAABBBBAAAEEEMgSIFmVJcT7CCCAAAIIIIAAAggggAACCCCAAALHJkCy6tio+SIEEEAAAQQQQAABBBBAAAEEEEAAgSwBklVZQryPAAIIIIAAAggggAACCCCAAAIIIHBsAiSrjo2aL0IAAQQQQAABBBBAAAEEEEAAAQQQyBKIJav+/uefrGV4HwEEEEAAAQQQQAABBBBAAAEEEEAAgVIEYsmqd+//KuWLWCkCCCCAAAIIIIAAAggggAACCCCAAAJZArFk1e7/9rOW4X0EEEAAAQQQQAABBBBAAAEEEEAAAQRKEYglqxp/7JbyRawUAQQQQAABBBBAAAEEEEAAAQQQQACBLIFYsmrr19+yluF9BBBAAAEEEEAAAQQQQAABBBBAAAEEShGIJav+W2/I3v67Ur6MlSKAAAIIIIAAAggggAACCCCAAAIIIJAm4ExW1V//kbYM7yGAAAIIIIAAAggggAACCCCAAAIIIFCKgDNZpUZXMdF6Kd6sFAEEEEAAAQQQQAABBBBAAAEEEEAgRSAxWbX56rX8/fc/KYvyFgIIIIAAAggggAACCCCAAAIIIIAAAsUKJCar1Oiql79xOWCx3KwNAQQQQAABBBBAAAEEEEAAAQQQQCBNIDVZpRJWr37fSVue9xBAAAEEEEAAAQQQQAABBBBAAAEEEChMIDNZFYyw4pLAwsxZEQIIIIAAAggggAACCCCAAAIIIIBAgoBXskolrNQcVky6nqDIywgggAACCCCAAAIIIIAAAggggAAChQh4J6tUwkr9r7/+Q/b23xXy5awEAQQQQAABBBBAAAEEEEAAAQQQQAABXSB3sipIWm39+ps0/thtjrZ69/4v+fsf7hyow/IYAQQQQAABBBBAAAEEEEAAAQQQQCC/wJGTVUHSir+tEWc44EAMEAPEADFADBADxAAxQAwQA8QAMUAMEAPEQOcxQLKqfXkjwdR5MGGIITFADBADxAAxQAwQA8QAMUAMEAPEADFADHQaAySrSFY15yLrNJBYnp0RMUAMEAPEADFADBADxAAxQAwQA8QAMUAMFBEDJKtIVpGsIgaIAWKAGCAGiAFigBggBogBYoAYIAaIAWKga2Lg/wicDvF0hPIKAAAAAElFTkSuQmCC;imageBorder=#000000;" parent="1" vertex="1">
          <mxGeometry x="348.96" y="360" width="405.62" height="130" as="geometry"/>
        </mxCell>
        <mxCell id="BILoep5oak9ykKTMsQ5e-6" value="Source code" style="text;html=1;strokeColor=none;fillColor=none;align=center;verticalAlign=middle;whiteSpace=wrap;rounded=0;" parent="1" vertex="1">
          <mxGeometry x="195.99" y="70" width="100" height="20" as="geometry"/>
        </mxCell>
        <mxCell id="BILoep5oak9ykKTMsQ5e-7" value="Feature description using the usage Scenario" style="text;html=1;strokeColor=none;fillColor=none;align=center;verticalAlign=middle;whiteSpace=wrap;rounded=0;" parent="1" vertex="1">
          <mxGeometry x="45" y="340" width="250" height="20" as="geometry"/>
        </mxCell>
        <mxCell id="BILoep5oak9ykKTMsQ5e-8" value="Test cases which are related to the feature" style="text;html=1;strokeColor=none;fillColor=none;align=center;verticalAlign=middle;whiteSpace=wrap;rounded=0;" parent="1" vertex="1">
          <mxGeometry x="433.43" y="340" width="236.69" height="20" as="geometry"/>
        </mxCell>
        <mxCell id="BILoep5oak9ykKTMsQ5e-9" value="Component" style="text;html=1;strokeColor=none;fillColor=none;align=center;verticalAlign=middle;whiteSpace=wrap;rounded=0;" parent="1" vertex="1">
          <mxGeometry x="603.0799999999999" y="70" width="100" height="20" as="geometry"/>
        </mxCell>
        <mxCell id="BILoep5oak9ykKTMsQ5e-14" value="" style="shape=image;verticalLabelPosition=bottom;labelBackgroundColor=#ffffff;verticalAlign=top;aspect=fixed;imageAspect=0;image=data:image/png,iVBORw0KGgoAAAANSUhEUgAABA4AAASYCAIAAAAfgxhJAAAAAXNSR0IArs4c6QAAAARnQU1BAACxjwv8YQUAAAAJcEhZcwAAEnQAABJ0Ad5mH3gAAP+lSURBVHhe7N19sFT1ne97/k+ssqxbqaJmTjkzGYuQSm7GOBYePNzIyKgzOonWkUTviU9z9KZkDI4arw/ocSaMRh01DDoeddBoDOJcg0JCVB5UokRFQEEUFBUIPqCoxBgUENjeL7/v59cueq3uvX69u3f32vv9qm9Z2Gv9VnevXnutz7d7re4RnwIAAABADq0CAAAAgAK0CgAAAAAK0CoAAAAAKECrAAAAAKAArQIAAACAAi22Cr///e9ffvnlJ5988tFHH33wwQdnz579/wEAAADoARbOLaJbULe4bqHdortCfKK0VmH79u3PP//8/Pnz9SgAAAAA9DwL8BbjLcwr1pdTtlXYvXv3Cy+88POf/1z3BgAAAKBSLMxbpLdgr4jfn1KtwsaNG+fOnat7AAAAAFBZFuwt3ivoN9V/q2Cdh5YKAAAAYEiwkK+431g/rcLTTz+theU8+uija9eufeedd37/+99/8sknGgAAAACgqyycW0S3oG5x3UK74nuORX0NaKBZq9CoT1i5cmXqJREAAAAAusKiuwV4Rfl9Ne8WGrYKhecdLV269A9/+IPmAAAAAFARFuMtzCvWZzQ5E6m4Vdi4caOGZrz44ouaDAAAAKCCLNIr3Gc0usq5oFXYvXt3/vuOSl4lDQAAAKCX5T8VsPBf+A2qBa1C/tQjPk8AAAAAhoz8ZwuFpyHVtwrbt2+v+521pUuXahoAAACAIaHuugVrAfJfXFTfKjz//POaPeI6ZgAAAGCIsZCvuB9ZI6BpUX2rMH/+fM0brFy5UhMAAAAADCF136BqjYAmRPu0Cr///e81Y8TvJwAAAABDkkV9hf7I2gFNC/ZpFV5++WXNFTz66KOaAAAAAGDIqfstZ2sHNCHYp1V48sknNVewdu1aTQAAAAAw5FjgV/QPrB3QhGCfVqGuq3jnnXc0AQAAAMCQY4Ff0T+oO6ton1bhwQcf1FxB3blKAAAAAIaSumuVrR3QhGCfVmH27NmaK/jkk080AQAAAMCQY4Ff0T+wdkATgn1aBc0S6VYAAAAAQ5Sif6RbA1oFAAAAYPhS9I90a0CrAAAAAAxfiv6Rbg1oFQAAAIDhS9E/0q0BrQIAAAAwfCn6R7o1oFUAAAAAhi9F/0i3BrQKAAAAwPCl6B/p1oBWAQAAABi+FP0j3RrQKgAAAADDl6J/pFsDWgUAAABg+FL0j3Rr0HOtwrvvvrtmzZolS5Y8/PDDDzzwwH333adHAwA5touwHYXtLmynYbsO24FoVwIAAMrRMTXSrUGvtAp/+MMfVq1a9ctf/lL3DQAtsd2I7Uxsl6KdCwAAaEpH0Ei3Bt1vFbZv375ixQrdJQC0ie1YbPeiHQ0AAGhAB85ItwZdbhXWr1//wAMP6P4AoK1s92I7Ge1uAABAER01I90adLNV4MMEAIPAdjXa6QAAgBwdLyPdGnStVViyZInuJmfRokXLly9/6aWXNm7c+AYANGU7Cttd2E7Ddh3aieTYDke7HgAAsC8dLCPdGnSnVSjsE2bPnv3000/THgBome1AbDdiOxPtVjLoFgAAKKQjZaRbgy60CoXnHS1evJgmAUBb2M7EdinauWRwJhIAAHk6TEa6NRjsVmH9+vVaesby5ct1hAeANrEdi3YxGVzlDABAHR0jI90aDGqrsH379vz3Ha1cuVIHdgBoK9u9aEcT2S6Ib1AFACBLx8hItwaD2irkTz3i8wQAHZX/bIHTkAAAyNIBMtKtweC1Cn/4wx+03Gjx4sU6mANAx+SvW+C3nAEAqNHRMdKtweC1CqtWrdJyg9mzZ3MdM4BBYLuauu9Est2RdkwAAAx7OjpGujUYvFbhl7/8pZYbPP300zqMA0CH2Q5Hu57AdkfaMQEAMOzp6Bjp1mCQWoV3331XC434SAHAoLEdjnY9ke2UtHsCAGB406Ex0q3BILUKa9as0UKDRYsW6QAOAIOi7recbaek3RMAAMObDo2Rbg0GqVWo+3lmvvgIwCCr+yokfrwZAACnQ2OkW4NBahUefvhhLTR46aWXdPQGgEFhux3tgALbKWn3BADA8KZDY6Rbg0FqFep+eY0LFQAMsrrLFWynpN0TAADDmw6NkW4NBqlVuO+++7TQQIduABhE2gEFtlPS7gkAgOFNh8ZItwaD1CpoiZGO2wAwiLQDirR7AgBgeNNxMdKtAa0CgOFCO6BIuycAAIY3HRcj3RrQKgAYLrQDirR7AgBgeNNxMdKtwbBrFTZt2vSLX/zikUce0f93gz+GxYsX6/8BDArtgCLtngAAGN50XIx0azDsWoUFCxbcFnSrW7A+Yc6cObfeemvnHsPq1au/8Y1vjOjPl7/85V//+tcaU+TGG2/UrE394Ac/0ACgt2kHFGn3BADA8KbjYqRbg+HVKnifYDG9o0m9CesT5s2b1+nH8OKLL5588snWLXzlK19RnN/X/vvvP3bs2L/7u7978sknNabI7bffbgsZM2bM5z//eY3cly3fZpg6daoGoCe9/vrrDz300HHHHWev4x//8R9fdNFFq1at0rRO6tb9NqEdUKTdEwAAw5uOi5FuDYZRq2CxuJbR3SB3C9YnWHLKP4ZFixZpjnaze5w+fXpd0D/11FOtl9Ac5Sxfvvzoo4/W+OCggw66//77LQtqDvQqe43+/d//3ZpDvXKBNXjNu8SB69b9NqcdUKTdEwAAw5uOi5FuDYZRq/Dyyy//7Gc/U0KPBrNbyH6mUXPXXXelBvcktvAjjzxSSW3EiD/90z9duHChpqWYNm2aFhGcf/759AmV8Oyzz44bN04vW8Y//uM//va3v9VMHdCt+21OO6BIuycAAIY3HRcj3RoMrxOQutgtNOoTVq9erTk649VXX/3ud7+rmFbi+oRG6q5bsP/VBPQ2e7ntRdfLlmFbhW0bmqkDunW/zWkHFGn3BADA8KbjYqRbg2F3WXNXugVbeL5P+MlPfjIIp27TKgxzTz/99F/+5V/qZcs455xzOvrufrfutzntgCLtngAAGN50XIx0azDsWgXTqFvo0LeXPvHEE/k+4Y477njuuec0RyfRKgxzlsunTJmily066KCDWjsPrbxu3W9z2gFF2j0BADC86bgY6dZgOLYKZtC6hd/85jf5PuH2228fnD7B0Cpg/fr1U6dOrV3d/rWvfe0Xv/iFpnVSt+63Ce2AIu2eAAAY3nRcjHRrMExbBTMI3YL1Cf/xH/+hRUeD2ScYWgW4lStXzp49e/78+Rs2bNBNg6Jb91tIO6BIuycAAIY3HRcj3RoM31bBdLRbeOaZZ6wr0EIju8Vu1xyDglYBqNEOKNLuCQCA4U3HxUi3BsO6VTAd6hZWrFiR7xNmzJjx1FNPaY7BQqsA1GgHFGn3BADA8KbjYqRbg+HeKpi2dwvPPfdcvk/4j//4j9/85jeaYxDRKgA12gFF2j0BADC86bgY6daAVmGvNnYL1ifccccdWkRki+pKn2BoFYAa7YAi7Z4AABjedFyMdGtAqyBt6RZWr1591113aXDUxT7B0CoANdoBRdo9AQAwvOm4GOnWgFbhMwPsFtauXVvYJzzxxBOaoxtoFYAa7YAi7Z4AABjedFyMdGtAq7CPlruFRn1Cyxc8tAutAlCjHVCk3RMAAMObjouRbg1oFeq10C00GvLII49oju6hVQBqtAOKtHsCAGB403Ex0q0BrUKBpG5h3bp199xzj2aKbOaFCxdqjq6iVYDbtGmT9a5nnHHGhRdeqJsGRbfut5B2QJF2TwAADG86Lka6NaBVKFayW1i/fv2sWbM0ObLZFixYoDm6rddaBeusHnjggSlTphxzzDFf//rXtbjA/tdutEnz5s3rhV/2bYsuPl9b5urVqx977LEZM2acffbZX/ziF/1+f/CDH2iOzujW/ZahHVCk3RMAAMObjouRbg1oFRrqt1vo/T7B9EirsGnTprlz55544omf//zntYgRI/74j/943Lhx3wjsH/a/mjBixP7773/hhReuWrVK4xuzp2NPSsOK2MItuZaZM/uk6p5vnX5XY+eebyP2HG2xWlxT7Y3s3brf1mgHFGn3BADA8KbjYqRbA1qFZpp0C6+99trPf/5z3RTZpPnz57/++usa3wN6oVWwdXLMMcf4wC996Uv//M///NRTTxW+j75u3bp77723NvMXv/jFGTNmNF+fTz755N/93d/VvWHvLKaPGTPm5JNPfvHFF2tzfuUrX9HkDA/xt99+uy/T2L8tAY8dO9ZCvGYKfJm2HFuaZs3p6PNtxJ6jPdO9Xci+8s+3vZG9W/fbGu2AIu2eAAAY3nRcjHRrQKvQj0bdQuH3HT300EObNm3SyN7Q3VZh48aNP/7xj2tp+/zzz7dwrGmNrV+//uKLL/YhFs1vuummftOzrfbp06dn38K3f9999935gbbwf/3Xf83Oaevkscce0+Sc5cuXH3300T7nkUce2aRDMIP2fMuzNXPHHXd84Qtf8OWbwYns3brf5rQDirR7AgBgeNNxMdKtAa1C/wq7hTrWJ8ybN6/X+gTTxVbBcvOUKVNqofzCCy+0WzStPytXrjzqqKN8YPMoX2OB+3vf+54PMU2ead06Ofnkk1955RVNK2IZ12br92EM8vMtr+75Dlpk79b9NqEdUKTdEwAAw5uOi5FuDWgVSmneLVifMHfu3B7sE0wXW4Xbb7+9lpsPPvjgp556ShPKufrqq32s+cd//Mff/va3mtCYdWu1t7GbP9N777239ths/dha0oQcu99zzjnHZvtf/+t/NX+zf/Cfb3ne7bjBjOzdut9GtAOKtHsCAGB403Ex0q0BrUJZTbqFOXPm9GafYOpahT/90z+1lH9fuvPPP1+LCPptFdauXXvsscdq7sy1xeU9+OCDtdz/X//rf12xYoUmNPb8888fccQRPuRLX/pSk5/CsKXZMn3OI4880i9mKGSTbAZ7JNaH6KYiXXm+5dEqOO2AIu2eAAAY3nRcjHRrQKuQ4IknnrjtttvUH0Q/+clPLKFqjt5T1yq0S7+twq/3/bohC8EWhTWtnKeffvov//Ivk4a/9tprp512mg8x99xzjybkvPLKKyeffLLP9n/+n//nkiVLNCFn4cKF1l9ZB9L8Ve7K8y2PVsFpBxRp9wQAwPCm42KkWwNahbJ+85vf5PsEZ93CQL7msqO69amChW+L4Jo7sLWnaeXUfQvnAw88oAlNZU/jufDCCxudMlS3Wpo0FXfccYfNcNZZZzX/6YNuPd+SaBWcdkCRdk8AAAxvOi5GujWgVSilSZ/gerZbqMvEg3atwrp167797W9r7hEjDjrooEcffVTTymktOmdP4/nv//2/v/TSS5qwr+wJSOaKK67QhH3VLlTo2edbEq2C0w4o0u4JAIDhTcfFSLcGtAr9y/cJ//Ef/3HvvffW3XjHHXc899xzGtMzutUqmGeeeeY73/nO5z//+S9+8YtXX311+a8Dcq1F52wP0OTJ2tJqlyAbW0W2ojQtw69A+NM//dOFCxfqpsa68nxLolVw2gFF2j0BADC86bgY6daAVqEfhX2C3bhp06aHHnqo97uFLrYKA9RadN6wYcNZZ52lMY3PLLriiis0R9DoMuLFixd/6Utf6vdChbagVRgE2gFF2j0BADC86bgY6daAVqGZRn2CT7VuYd68eT3eLVS3VVi6dOl/+2//TfeXEp37vVzBr2k+6KCDDj30UJ+t0WXEfqHCOeec096vLi3U8vMtg1bBaQcUafcEAMDwpuNipFsDWoWGmvcJrrBbuP3223unW6hEq2AP8qmnnrrrrrumTJnyrW996+tf/7ruJqN8dO73cgX/riHrFq688kqfzUybNk2TI+sxrNOwSTfffLNuapP2Pt8yaBWcdkCRdk8AAAxvOi5GujWgVShWpk9w1i3MnTs33y2093vxW9abrYKtNFs/d9xxx2mnnfaVr3xFC43233//sWPHnn766QcddJBuSonO2csVCr8I9Z577rFJV1xxRbapyH90YD2GdRolL1RorqPPtwxaBacdUKTdEwAAw5uOi5FuDWgVCpTvE1wvdws91Sps3LjxV7/61bnnnvvFL35RCwrsfy1D33TTTY899tjLL7/sM7d87n7zyxVqnxXMnj0721Tkf4jNv//02GOPXbt2rW5KNDjPtwxaBacdUKTdEwAAw5uOi5FuDWgV6qX2Cc66hTlz5mhA1AvdQo+0Cpa2r7rqqi996UsaH0yYMMHi8nPPPVf46wcDic7ZyxUuvvhi3Rr4lxr95V/+5dNPP539ybb8pwf+4UNrFyoM8vPtF62C0w4o0u4JAIDhTcfFSLcGtAr7aK1PcI26hWeeeUZzdEPXW4X169dbPs6+rb7//vtPmjTpqaeeKkzMNQOJzk0uV7B+wLqCk08++ZVXXrH/zTYVd9xxh8/j/FuS6m7sV1eeb79oFZx2QJF2TwAADG86Lka6NaBV+MxA+gTXg91Cd1uFF154ofa2vTvxxBMtNGtyUwOJzqtWrRo3bpwPrLtcwZ9I7TfXbLG1H1jIfl2Sf0vSl770pcWLF/stZXTr+faLVsFpBxRp9wQAwPCm42KkWwNaBRl4n+AKu4UZM2aUzItt18VW4bnnnjvuuOM0YMQIS+RTp05dv369JvdnING50eUKtV9fnj17tt/i34bks2U/f/Dbky5U6OLz7RetgtMOKNLuCQCA4U3HxUi3BrQKe7WrT3AbN260nKcFRd3qFrrVKqxbty77/rrl5ilTpiT9gPEAo/O0adM0MvMZwvPPP3/EEUf4hQp+i3964LNlb7dewm4p/FmGQl1/vs3RKjjtgCLtngAAGN50XIx0a0Cr0OY+wfVOt9CtVqFufovRFqY1rZwBRufCyxX8xtqFCu7iiy/22Uzt0wa/UKHRjz3ndf35Nker4LQDirR7AgBgeNNxMdKtwXBvFTrRJ7gNGzZY7tRCo3YtvLyutArPPvts7VIBc9BBBz366KOaVtoAo3P2coXaxwV+EXPtQwbn33TkbAa7xVda+XXVC8+3OVoFpx1QpN0TAADDm46LkW4NhnWr0Lk+wfVCt9CVVsGeo+YLzjrrLFsVmlbaAKNz/nKF2qqofXTgbIXYavHZTjvttNdee81/b6Hwl54L9cLzbY5WwWkHFGn3BADA8KbjYqRbg+HbKnS6T3Dr16//+c9/rjuIBrNbGPxWoXbpcM3NN9+saSkGHp3rLlfwK5WzFyQ4/6UFn23cuHGrVq36xS9+8fnPf77uBxka6Z3n2wStgtMOKNLuCQCA4U3HxUi3BsO0VRicPsEVdgt274PTLQx+q5BN3q611Dvw6Jy9XOH444+/5ZZb7B/5zwpef/31888/32ez+W2Un6dU8kKF3nm+TdAqOO2AIu2eAAAY3nRcjHRrMBxbhcHsE5x1C//5n/+pO4vsMTzxxBOao2MGv1Woi7ymW9HZv+9I46O6CxXcHXfcockjRkybNu2ss87Kf/jQSO883yZoFZx2QJF2TwAADG86Lka6NRh2rcLg9wmuW93CUG0VXn755RdffHHTpk36/yJ1lyu4ws8K/CecfYZDDz30oIMOKn+hQu883yZoFZx2QJF2TwAADG86Lka6NRherUK3+gRn3cKsWbN0x1Gnu4VeOAGpE+fuW+488sgjLT3r/xuoe9iNPiuw5djSNFNQ+OFDoZ56vo10K7J3634b0Q4o0u4JAIDhTcfFSLcGw6hVePLJJ7vYJ7jCbuH2229fuXKl5mi3rlzW/I//+I+aL2jtG4Gee+65//bf/psWURSd7XnZs9P/N5C9XME0+qwgf2ly3bckNdFTz7eRbkX2bt1vI9oBRdo9AQAwvOm4GOnWYBi1Chaz7r33XsXzbvQJrq5b6PTvsg1+q2AsoP/xH/+xZk3/nYHXX3/9oYcemjBhgsYH2ejsP7FcJpHXXa7Q5LOC7BMsf6GC653n2witgtMOKNLuCQCA4U3HxUi3BsPrBCRLWv5DB93qE1ytW7jjjjueffZZ3doZXWkVNm7ceOmll2rW4Hvf+549a01uavXq1VOmTNl///3/j//j//j85z+v8fue1eNfe1rmHCF7xbOXKzT5UqPs5w+p79/3zvNthFbBaQcUafcEAMDwpuNipFuDYXdZ86ZNmywUdrFPcJZEH3jgAYuJ+v+OqTsL/0//9E8XLlyoaSmyv1Fgzj///Ndff13Tiqxbt+60007T3CNGWAj+13/9V4vUmlxk7dq1//Iv//LFL37R5j/xxBOfeOKJv//7v/fh5n/9r//l92iv4NVXX22xft68eT6wuVqT0/yzguyvO7cQynvn+ebV9Ut2LyXbmAHq1v02oR1QpN0TAADDm46LkW4Nhl2rMKxYypw+fXr2vWrzf//f/7fFYs1RzvLly48++miNDw466KD777+/ebdg7dCFF16YvXcPxHVf42OJ+b777jv99NP3339/m+cb3/iGbSE+z+zZs2vv9NvU7373u5deeunxxx9vyyz/xn/t44LmX2pUy7W28LrrBErqkedbx14je6Xs9fLFmj/+4z++66676h5V23XrfpsLu5/PaPcEAMDwpuNipFsDWoUhyMKxBVDzla98RTFtXxZDx44dazPcfvvtGpPz2muvnXvuuTbPmDFjsvE3y5ZvM5x88smNvpnH8uJDDz10zDHHaEBgkXHcuHE20P6bPcV/woQJ9957b/ad+PyJPc7Glv/aqNrlCv1+VuC/vPZf/+t/XbFihW5K1MXnay+BvRA2Z52vf/3rWsq+/LWr0+SlbKRb99sa7YAi7Z4AABjedFyMdGtAqzAEPfDAA8pl/WlyycGr+17k0IRFveZnUlmAfuaZZ/71X//129/+djZBesdy2mmn/fu///tzzz1ns2lAxqZNm2yDOe644/w9+IMPPviqq65at26dJpdQ+7ig319f/sUvfjGQ9+9ruvJ8675rtTX9vpR53brf1oTdz2e0ewIAYHjTcTHSrQGtAoDhQjugSLsnAACGNx0XI90a0CoAGC60A4q0ewIAYHjTcTHSrQGtAoDhQjugSLsnAACGNx0XI90aDFKrcN9992mhgY7bADCItAMKbKek3RMAAMObDo2Rbg0GqVV44IEHtNCg+ffNA0Db2W5HO6DAdkraPQEAMLzp0Bjp1mCQWoWHH35YCw2afL09AHSC7Xa0Awpsp6TdEwAAw5sOjZFuDQapVViyZIkWGixfvlxHbwAYFLbb0Q4osJ2Sdk8AAAxvOjRGujUYpFZhzZo1WmiwaNEiHb0BYFDYbkc7oMB2Sto9AQAwvOnQGOnWYJBahXfffVcLjbhcAcCgqbtQwdhOSbsnAACGNx0aI90aDFKrYH75y19qucHTTz+tYzgAdJjtcLTrCWx3pB0TAADDno6OkW4NBq9VWLVqlZYbzJ49mw8WAAwC29XYDke7nsB2R9oxAQAw7OnoGOnWYPBahT/84Q9abrR48WIdyQGgY2xXo51OZLsj7ZgAABj2dHSMdGsweK2CWbFihRYd8VVIADqq7ouPjO2ItEsCAAC90yps37697rfYzMqVK3VIB4C2st2LdjSR7YJsR6RdEgAA6J1Wwaxfv15Lz+CzBQBtl/88wdguSDsjAAAQ6BgZ6dZgsFsFkz8NySxevJirnAG0he1M8tcnGE49AgAgT4fJSLcGXWgVTN2PN7vZs2c//fTTNAwAWmY7ENuN1H3fkePnmQEAKKQjZaRbg+60CqawW3CLFi1avnz5Sy+9RNsAoF+2o7Ddhe006n6POYs+AQCARnSwjHRr0LVWwRSeiQQA7cV5RwAANKHjZaRbg262Cmb9+vX570QCgLaw3QvXMQMA0JyOmpFuDbrcKpjt27fz8QKAtrMdC9+LCgBAv3TgjHRr0P1Wwf3hD39YtWrVL3/5S903ALTEdiO2M+H3mAEAKElH0Ei3Br3SKtS8++67a9asWbJkycMPP/zAAw/cd999ejQAkGO7CNtR2O7Cdhq267AdiHYlAACgHB1TI90a9FyrAAAAAGDQKPpHujWgVQAAAACGL0X/SLcGtAoAAADA8KXoH+nWgFYBAAAAGL4U/SPdGtAqAAAAAMOXon+kWwNaBQAAAGD4UvSPdGtAqwAAAAAMX4r+kW4NaBUAAACA4UvRP9KtAa0CAAAAMHwp+ke6NaBVAAAAAIYvRf9Itwa0CgAAAMDwpegf6daAVgEAAAAYvhT9I90a0CoAAAAAw5eif6RbA1oFAAAAYPhS9I90a0CrAAAAAAxfiv6Rbg1oFQAAAIDhS9E/0q0BrQIAAAAwfCn6R7o1oFUAAAAAhi9F/0i3BrQKAAAAwPCl6B/p1oBWAQAAABi+FP0j3RrQKgAAAADDl6J/pFsDWgUAAABg+FL0j3RrQKsAAAAADF+K/pFuDWgVAAAAgOFL0T/SrUGzVgEAAADAsKLGIKBVAAAAACBqDAJaBQAAAACixiCgVQAAAAAgagwCWgUAAABguJs9e7b/Q41B0KxV0K0AAAAAetXvB0bRP9JCA1oFAAAAoMIU+Vul6B9poQGtAgAAAFBhivytUvSPtNCAVgEAAACoMEX+Vin6R1poQKsAAAAAVJgif6sU/SMtNKBVAAAAACpMkb9Viv6RFhrQKgAAAAAVpsjfKkX/SAsNaBUAAACAClPkb5Wif6SFBrQKAAAAQIUp8rdK0T/SQgNaBQAAAKDCFPkbuPvuu/WvBhT9Iy00oFUAAAAAKkyRv4j1CU7/X0TRP9JCA1oFAAAAoMIU+XPUJUS6NUfRP9JCA1oFAAAAoMIU+fel/mBfmrYvRf9ICw1oFQAAAIAKU+TPUGdQRHNkKPpHWmhAqwAAAABUmCJ/qxT9Iy00oFUAAAAAKkyRv1WK/pEWGtAqAAAAABWmyN8qRf9ICw1oFQAAAIAKU+RvlaJ/pIUGtAoAAABAhSnyt0rRP9JCA1oFAAAAoMIU+Vul6B9poQGtAgAAAFBhivytUvSPtNCAVgEAAACoME/8v07nAxX9Iy00oFUAAAAAKswTv+J/Ch+o6B9poQGtAgAAAFBhnvgV/1P4QEX/SAsNaBUAAACACvPEr/ifwgcq+kdaaECrAAAAAFSYJ37F/xQ+UNE/0kIDWgUAAACgwjzxK/6n8IGK/pEWGtAqAAAAABXmiV/xP4UPVPSPtNCAVgEAAACoME/8iv8pfKCif6SFBrQKAAAAQIV54lf8T+EDFf0jLTSgVQAAAAAqzBO/4n8KH6joH2mhAa0CAAAAUGGe+BX/U/hARf9ICw1oFQAAAIAK88Sv+J/CByr6R1poQKsAAAAAVJgnfsX/FD5Q0T/SQgNaBQAAAKDCPPEr/qfwgYr+kRYa0CoAAAAAFeaJX/E/hQ9U9I+00IBWAQAAAKgwT/yK/yl8oKJ/pIUGtAoAAABAhXniV/xP4QMV/SMtNKBVAAAAACrME7/ifwofqOgfaaEBrQIAAABQYZ74Ff9T+EBF/0gLDWgVAAzIunXrpk6dumXLFv0/AAAYXJ74Ff9T+EBF/0gLDWgVALSur6/v+uuvHzFixKGHHvrII4/Y/2oCAAAYLJ74Ff9T+EBF/0gLDWgVALRuw4YNhx9+uLUKZr/99rvmmms++eQTTQMAAIPCE7/ifwofqOgfaaEBrQKAFvX19d12223eJxhrFRYtWqRpAABgsHjiV/xP4QMV/SMtNKBVANCit956a8KECWoURow49dRTbXejaQAAYLB44lf8T+EDFf0jLTSgVQDQohkzZqhLCB8pzJkzRxMAAMAg8sSv+J/CByr6R1poUL1WYc+ePRs3bpw2bdrkyZM//PBD3Toodu3atWDBgkMPPdSC0Q9/+EPdigF7++23v/Wtb9la/d73vvfxxx/rVvS2d95555vf/GZoE/aaOHHi1q1bNQ0AAAwiT/yK/yl8oKJ/pIUGlWkVrEN47bXXrrnmmjFjxng0OeSQQ1555RVN7jBLRT/96U/HjRvnd21oFdply5YtZ511lq9VWoUKmT17tr9qzv5XEwAAwODyxK/4n8IHKvpHWmhQjVZh27Ztp59+uiJJhj1DzTFg77777mP7WrBgwQ033DBp0qSDDz5Y95dBq9CCDz/88IknntD6feyxefPmXXzxxQceeKDWKa1CdWzduvWEE07QyzZihP07/5HCe++9d/TRR2uO/nzta1976aWXNHJfP/vZzzRTCfxhAsPKxo0bx44dq7//DjjvvPN27typOwN6mCd+T/9JfKCif6SFBtVoFV555ZVDDjlEf7gZFuU1x4AtWbJECy2HRNICy4KWCLUGi9AqVMX8+fP3228/vWwjRlia14QMWgX0a8eOHQ899NDEiRMPOOAAe/m+8Y1v3Hzzzdu2bdPkDvvtb387depUfzPowAMP/J//83+uXLmS3wapFjt2Z/dFbXfssccO/NRK2xneeOONtnnbAm1Ttw3+0Ucf3bNnjyYD7eCJX/E/hQ9U9I+00KAarcKCBQv8j7ZOG5MlrcIgoFUYGuo+5ZswYcJbb72laRl2fD3zzDOPCkaNGqW592XH+HHjxtkM3/72t1977TWN3NecOXN8ITZno0xgac/nmT59uoah59mGdO655+olzLDXcd26dZqpY+wAmd8sbQOzSLdr1y7NhJ53yy236MXLOeyww3y3YPuo7MfXrrbzcY12L1/96lfXrl2rO2uJHfhqPz6Tdemllw5aV4zhwBO/p/8kPlDRP9JCg2q0CldddZX+tvZ1xBFHvPnmm5ppYPInINXccccd+YBLq9CC7AlI9913n718WpsRrUIlLFq0KHtMnTFjhiY09sYbb4wfP14DopEjRz7yyCOao4S+vr6bb75ZgzN+8IMf7NixQzOhIuzVnDZtml7CnE5/8W72pwPr2LY9f/58zYfetn379kmTJumVC+zlO+ecc55//vlsv2eHFTu4aI4o/0nmnj17Vq9ebdue5ogWLFigOdJt3bp14sSJWlDObbfdxqdYaBdP/Ir/KXygon+khQYVaBUsX55yyin6w9qX7RSeeuopzdcx9pd8xRVX6C4jWoWBu+uuu7Q2I1qF3ld30G30kUKdkofqfhWejFR4+hN6XOEmUdPCtpGk+cfI7N6rYsuWLdmfdjF33nln/sSepP3Ptm3b6tqPgZzqbHeRf6uxhkMe2sgTv+J/Ch+o6B9poUEFWoVGFyq4W265RfN1kh05dH8Rx5KBy8c+9pu9b+nSpSNHjtQLVvpdMVoF1Mm/H5w1duzYjRs3atYOeOqppwrPNnFtvAoOHbV8+fLs7qjRh1Gp+5+6fG8bqm2umpaoeYDhmmm0kSd+xf8UPlDRP9JCgwq0Co0uVHCD85dGq9AJtAqVs2PHjsmTJ+vVGjHi8MMP37Bhg6Y1RauAvDlz5jTK6xdccEFHTyprclrIgQceuGzZMs2H3pbdIVjPYKFHE/aVuv/ZvXt39rTnCRMmbNmyRdMS2WZsG7MWtC/b+PnZSrSRJ35P/0l8oKJ/pIUGFWgVGl2o4AbyN1werUIn0CpUzqpVq0aPHq1Xa8SI66+/vuSJtrQKyMuf6eG+9a1vvf3225qpYxYvXlx4qevMmTM5fbwSLNBfcskleuVGjDj99NMbXSXcwv7nhRdeqO3rDjroINv1aUK6NWvW1H4PKuvqq6/mAnq0kSd+xf8UPlDRP9JCg15vFZpcqOAG+DdcEq1CJ9AqVIsdmC+//HK9VCNG2MFv/fr1mtYfWgUUsg3jhhtu8G9KdX//93+/efNmTe6w55577rjjjtMdjxgxatSo++67j6+wrIoPPvjgxBNP9NfOerwmF6O3sP+p+wR17ty5mtCSTZs2Za+Wtg3+pptu4ssY0F6e+BX/U/hARf9ICw16vVWoO8/v/PPPz56Y6O69917N3TG0Cp1Aq1At2bfZzFVXXWXNg6b1h1YBTWzbtu2ZZ555/PHHrUkY5Hf0rTHYuHHjY489Zm0DZ41Xy9q1a7/61a/6TqDwVyBrWtv/WISq5Q3b3enWVtmGbZu3beS2qfMdqegET/ye/pP4QEX/SAsNer1VyF6oYH/YjzzySP4bNi+55JLykaU1tAqdQKtQIXUn76amfFoFAO01d+5c7QL6+4KT1vY/2U8tzjzzzI8++kgTgJ7kiV/xP4UPVPSPtNCg11uFbDqxP1pryvPnttrt9ietAZ1Bq9AJtAoVsn79+uzptpdffnlSf06rAKCN+vr6pk6d6nuA0aNHv/DCC5pQpOX9z4wZM3zmNv6IE9AhnvgV/1P4QEX/SAsNerpVqLtQwfYLtnfI/zTjwH9MsV+0Cp1Aq1AV9nd3/fXX60UqcWDOo1UA0Ea2U3rvvfcee+yx64Lm5/23vP/ZuHHjJZdccv/992/YsIFLkNHjPPEr/qfwgYr+kRYa9HSrYH/G9sesP+t4XdGSJUvy3683wEuO+kWr0Am0ClVR99O2l156aepRk1YBQLe0a/8D9DJP/Ir/KXygon+khQY93SrUXajgf9XW5Y8dO1a3Rv6Bg4/qBFqFTqBVqIrap/CmtW+dp1UA0C20ChgOPPEr/qfwgYr+kRYa9G6rkD0T0dQuSPjoo4/OPPNM3RqdcsopH374oQ/sBFqFTqBVqIS33nprwoQJeoVa/W0sWgUA3UKrgOHAE7/ifwofqOgfaaFB77YKhRcq+KQbbrhBt0Zjx47duHGjT+0EWoVOoFWohOzLNHLkyKVLl2pCCloFAN1Cq4DhwBO/4n8KH6joH2mhQe+2CvY3bH/J+pve92qE7IlJNfZsNbkDaBXKWLt27f3336//KWGYtwrW+q5YseKoo47q5Se+devWE044wV8dM3ny5NZ+NohWAU3s2rVryZIlJ598sr2aRx999HvvvacJg+Kdd96ZPn36qFGjhti2VIk9zODokVbB0tjMmTMPPfRQu/f2Rgh7gvZX88EHH3T0TGz0OE/8nv6T+EBF/0gLDXq3Vcj2A3XfcVT3u2zuhhtu0OQOGORWwQ6cGzZssH3KhRdeaDt6P4bVHHbYYccff/yVV145f/78Jj86MxB79uyxfeiMGTNOP/10uzvdcfiNyfHjx9uNNmnlypW1a1tt9/TQQw/Z40xaLb3WKth+1vLKddddd9JJJ40bNy579fyBBx44YcKESZMm2RO3NdPCV2GsWbPmsci2bbuX7M/E5p+4vbLz5s2rW//2b3tst9xyy8aNGwfnN2Vnz56t+w4fKdg+RRMStetQ3d5WwR7V8uXL//3f/93Ws23Y2d8Mrm3qNtXmGWI/ztULexhb8vr1620jv+SSS7IPYBBaBXvdt2zZ8swzz9ifkj3T7F96R1uFjm5vFd3DDI527X9S2etoG/Nzzz1nf2unnHJK9hUfeISww64ds2xr+ed//mdfsr/Kdrv9dV9zzTVHHnmkb9s21f6s7Ba7PdtL2L9tDWTntP/av+0Wuz07ZwtsJ/Piiy9aE25b1MEHH7z3OQf2b7vFbrepLRxJ0YQnfk//SXygon+khQY92irYNlp4oYKzf9d+GKUmvytso0FrFd56660f/ehHdUfuJuwP+9RTT12xYkW7duvbtm278847az+B2Zw9zssuu8yahB/84Ae+o0l6Fcq3CoU7+iYs8WtkCba3WrRoUV1iaM7Wz80332x/WlpECflNKCv7xG1vfs455/T7YE444QR73Qe4N2/OwsTEiRN1fyNGWKpo+UdGC1/BbrUK9sdiq+6MM87IHrmbs17RorP9eWoRjZXfVi3PlZnTtw1bUba6dFNj/a6Kruxhmm/8ddrbKpRcbzWdaBU6ur3VVHEPM2jatf9pwjZa23S16BJajhCF+0Bnz9F6vO9///uNXly73ZKVbwm2Gdiftibk2JzWMLT2GbIdJuz4WCZFtHAkRRMh8A+nVqHuQoUrrrgiu8Oyf9stmhZ19BdS8nvhlv/OG9myZcull15aeCyx4/pRUd17UTUW1t9//30tqyW2Vh955BH/bDTLdhnjxo3ze8++/1Qo6efw8ru87PEsq3BH30TJVsEO4QsXLrRnp2EZ2Wdtsm+K1NiRxnqMkofSMgdy2y/fdNNN5fOEzTlr1qzOHcvnz59fO+TYP+zJakK6dh2qCw+T5eOdrStLP9lTqrJs89br3WBTtwA3c+bM5u+Eld9WB7lV6OIepvnGX2cotQqDsL3VVHEPM2jatf9pohdaBfvj/cY3vqH/aezqq69+7LHH+n2/wPb59urrXsvxQ2o+RdiGZI+t0XZuj+S+++4byJsRcJ74Ff9T+EBF/0gLDXq0Vajbv+d/NiH7i+7ONuunnnpKk9stvxdu+e88z3bEv/nNb+r+uqzbnjZtmvX9+eOEzb9582abagcSzR1MnDjx7bff1kyJ7F5uvPHGWi409tc7ffp0677q/oB37tz5xBNP+FnFeRMmTLBEoln7k9/l+fFMkzO2b99+2WWX+TG1MLUbWxt27z7P8uXLNbIxa0ctOWWfsv371FNPtX1oYbfjTzz7LrspfyjNnh5w1llnaXxkT9xeu+9///v6/8ie1GmnnWZ79iuvvNLuOn+Mt8dsgV730Vbbtm07/fTTdTcD+0jBtOtQXXiYLBnvCnPScccdZzsTO8znX0T7o3j++efPPvtszRrYCr/22mubpLfatlp4UDS1DfXxxx/3ORtt0na7TbV5bJmvvfbat7/9bftfkz/G17L+nDlz9Dgyur6HsT2JP7w6hauova1Cdr1l2UtQ9+xcG1uFwdneaiq3hxlMg9AqbN269cwzz9Tmta/CUN5yhLC/8SaLrbGpF154od1L/r0we5X/y3/5L/qfsA3YVmcbQL7VsT+T8h9t2UqeOnWqbTAaHDaec845x7bq7AZss82bNy/fTlx88cUd/R7L4cATv+J/Ch+o6B9poUGPtgpNLlRwq1atOuiggzRHdMstt2hyu3WuVbAgPnPmzLodtO3oy7yB98gjj4wcOVJjAvuzLIzazdlByx5D9i/cHkDzxG8P2/7a87uqpJ1v+VYhK3v2vLN8X7cz6tcbb7xRF/ptd/nggw/mj991LC7XHYZtYNL5Tia/OX33u9+tW6zttRctWlT3pOxFyYeA8ePH29PRHO1ju4/a1jXwuNCuQ3XLrYIdhOpykj2pGTNm9LvZ2AzZkyGNDSzzZpsNtASmMRm2AWuOyDLlVVddpcmR7d9sL6c59mX7w+yH+//0T//U5K+mF/Ywjdif280336xFR+1tFZp4/fXX8ymqXa3C4G9vWZXYwwymdu1/WvPBBx/8j//xP3Sv0cAjRP5VdrbBWJ9f+zu1185eQU3bl81pC6m9B2R/d8cff7ymRRbGfGpztpBzzz1XYwJbvU0+dbc/EOsNNGt0yimnlH+rEXme+D39J/GBiv6RFhr0Yqtg21aTCxWcdfDHHnus5ojOO++8Dl19mP+bHPjfubNjgP25aqFB+f2yJYzJkydrWGCLaiHSLVu2LPsGm63YzZs3a1pTL7zwQvZHfI09gPKf7bTQKuSfsmUsu1GTy7GdUf6UgNtuu63fPsEtXbq0Lj9Zr2J/ZppcQqNdvLMGzLJdoydVd/2AswiiyW1St57tHu1+Na0l7TpUt9Yq2L1bxtXcUfnfnF6/fv2YMWM0LCj5R/rWvj9J4Wy/rMkZ+btosnKy76TYH+CGDRs0oUgv7GGasDZbi44GrVUo3Cbb0ip0a3ur6f09zCBr1/6nZZ2IEIWvsv2F2oubPZbt3r37kksu0eR9XX311XXbZH6ZdoTVtMZsIXVvi9gG3O9n+9ZdTJo0SQMiu2UgH18Pc574Pf0n8YGK/pEWGvRiq2DtZpMLFVzh1n/MMce8++67mqOtOvF3bgqThLXm5bNv/kSs1K+ztObKWiwNDpI+nFmzZk3dUa3kmxCmhVZh8eLF2a7G1lULuxU77Gl89IUvfOGZZ57R5P7kr6q3ziHp1wYKd/HuqKOOyn+GVmfRokV14S/pEpEy6tqh/BvhqQoP1QcddJBtAzpnopz8RUqm33iXX2Om/Bf75v9GTJl1UribKny0+bto8qlC9iOIyy+/3O5FE3J6YQ/T3JBsFbq1vdX0/h5mkA2fVuGss87KHxPzH1qawjlbOChbPKs7K8H+XfINhc2bN9e952tjUz9DQ40nfsX/FD5Q0T/SQoNebBXsr9f+hrXhFF2o4PLbdJOD6wB14u/c5A+TJunsQGvc697hTr28e+PGjWPHjtXgoHzWN/ndxF133aVp/UndK9kGnT3lqbW3HwqPGab822aFB/Kk/qpwF2++9a1vlXnv0F5fe5U1Jmjvlm9B8IILLtCiwxehDPAjBdNotbdFv/GucIU3D9l18j/7aD1AmeH5jbzwvQ9jm5DmiAp3fXXvpDT/a+2FPUxzQ7JV6OL25np8DzP4Cl/rodcq2IHY2jxNzsjvhRq9vZV6UDa2YYwePVpzB+U/QDP5M4qTdlDI8sTv6T+JD1T0j7TQoBdbhezH64UXKrj8Mczce++9mtxWnfg7N4UH8gMOOKD8W9R1bZVJ3f099dRT2aBvkloFY1tY9jvXyq+ZpL1S3ccXdsxr7QrLRpn1+9//fvn3Sge4PeSHm2OPPbbkL45/9NFHZ555poZFqa9aE3W7/raEp0arvS36fYSFK9w2ofItUAtHUJffTTV6gzZ/F4Uf/Wd7+35/pb4X9jDNDZ9WYXC2N9fje5jBV/haD71WodHbOvnN6ZRTTvmw6Bri1A0vv2Lt2JHUVRZ+8jnwz7GHJ0/8iv8pfKCif6SFBj3XKvSVuFDBbdmyJb+FJb31Ul4n/s5N/h190+/hP2vgB/L8obr8xwI18zPfqjlp0qTt27drQlPl90rWFdiBVjOF87MHsovPv2Nnkn7Cb4DbQ3540u618LDXlohj7M/n8ssv10JHjPjmN7/5zjvvaNoAFD7mQTsBKX8WjTkv5dKm1CNozbvvvnvMMcdoTFD49kfdfs8VHs5tt67JI0ZYnrNUpwlFemEP09yQbBW6uL25Xt7DdEXhMxp6rUKjjaT85pS64dnuqO6tkObz59kRJ3+W5gC/cG/Y8sQfwn8aH6joH2mhQc+1CmUuVHCF54F06JTKTvydG/sjufbaa7XEKOlz6oEfyPOH6hbarWweavR2RV7JvZLtMrIXP40ZM2bNmjWa1pJ169bVXV9hx9EXXnhBk0sY4PZQfhdfyOa0+TUyassGaeq2qHZdzlj4mFs4VOe3GdNviMlfyN7ok/pGUo+gNYW7qfyZRbbXsn2XJkeFmT7b6Pbb3/bCHqa5IdkqdHF7c728h+mKwmfU3i25ufwrMvD1Wf5VLr85JW14O3Jfe2Ba+AvK3+lgvjRDiSd+xf8UPlDRP9JCg55rFeqOTI0uVHD5s3ubnLA0EJ34O3f2x3bPPfd4ch01atSPfvSjpN85GviB/JVXXjnkkEM0OGjhr9TauYceesiOha+//np73zmzPuHczFewHXjggYsXL9a0AdiwYcNZZ511wAEH2CH8+OOPt2U26kgLDXB7KL+LL2Rz2vwaGbVlg7SVcP3112uJbT1ntPAxt7Cl5bcZU+bgZOltypQpfk38kUceOXv27PJn05oy22oj+bH5d0BWFX37s7GduOYIsqvRNl3L2ZrQWNf3MM0NyVbBdHF7Mz27h+mWwmfU3i25ufwrMvD1Wf5VLr85JW14+a/qGjlyZL9ffJSX3wmYSp/w1i2e+D39J/GBiv6RFhr0XKtQ8kIFlz/P3jTvLlrTib/zthj4gdyyePaXttzEiROTvpuvNf3uleq+gs2Ou3bETcr0HTLA7aH8Lr6QzWnza2TUlg2ybtdf/gtk+1X4mFs4VOe3GWM3anLHJB1B65S5XKHweZm6y+Wz15smnUfUsoHvYZobqq3CAA1kezM9u4fplsJn1N4tubn8KzLw9Vn+VS6/OSVtePkT7VrbKVnMy/5QjEs6JRjOE7/ifwofqOgfaaFBb7UKlkuyJ+wed9xxll3ssNHICy+8YJum5o7KfA1wqk78nafas2ePPeVnnnlmxowZF154YaMfa2xh9zdnzpx8x2W53J7jq6++mvRmWJLmeyXbGOq+W+nuu+8e/D7BHo9thPPmzbvmmmtOOumkcePG5deVSdoeyu/iC9mcNr9GRgPfIG3dTps2TYsr8YX9SQofc2+2Cjt37nz99dcXLVpkxyrrosePH1/3+2Wu/EvW7+UK2ZOU6nZodVf+ZN8cSdpmyujcHqYJWoW2b2+mN/cwXVT4jGgVNDmj/Jx2vMhfOdbaH6+9CvZaaBFR+YseUeOJX/E/hQ9U9I+00KC3WoW6CxVaU/5c+fI68XdexgcffGCHUruvI488sjCh5rWw+6u7GKDOmDFjbrzxxs2bN7c9pjffK9X9hIJJ+gq2ltldWES2LsUO24VRqVDS9lB+F1/I5rT5NTIa+Ab5xr4/6mltQxtf8cLH3COtgkXkN998c+7cufZXcPDBB2uh/Sn/kvV7uULtswJrIe68887sRxATJkzYkvn50uwpl0nfz9vI4OxhmhiGrUKntzfTm3uYLip8RrQKmpxRfs7CtNZo5uYKW4VOBLkhzxO/4n8KH6joH2mhQW+1CoVbTKpOfC7fib/zRiyfWS6/9dZb7eCtOytywAEHWLA744wz6s5taG339/bbb+d/obOOPZ6bb77ZFm6HOg0bmCZ7Jdt28zHdnukjjzziY9vO8twTTzzx/e9/v64/qWOH9pNOOumoo47S/0dJ20P5XXwhm9Pm18ho4Btk9pfprD9cv369JrRD4WNuYVvNbzOmtXhnPeHzzz9/2WWXNW8Iberxxx+fv+Y46SXLP+zs5Qq1M5SOPfbY1atXZ7/S3m6vnfubbTks1lvI9ttTdWUP08jwaRUGc3vrzT1MFxU+o/Zuyc3lX5GBr8/yr3KTQ22d8nPaH6n9qWqmqNHMzdmrkA9+g7YfGEo88Xv6T+IDFf0jLTTorVYhe6HC6NGj7Wh6dX+++93vakCGPXMtsU068XeeZ8eSRYsWHXfccbqPfVk4OOaYY3784x8/9dRTW7du9ZyR/xtreff3/vvvX3TRRWXeWRw3btzMmTNtw9LIVjXaK+V/Abqm5Z9TaOKtt9668sorG3UIduSeNGnS/fffb9HZspoPGeD2UH4XX8jmtPk1MhrgBln35dbXX399Gz9SMIWPuYVtNb/NmNR4Z5uuNb35s2OdbQmnnXaabeG2HdZelPJH0ELNL1eofVZgncDvfve7uq+0rz277IUK9g/7X7+9vO7uYQoNh1Zh8Le3HtzDdFfhM2rvltxc/hUZ+Pos/yqX35zKz5nfMxjbmO04clSiwtN6W9vFDXN78/6QbxXsyJS9UKHRBlqn8Mrmtl8Q04m/8yx77itWrCg8hNuzO/nkk+fPn1/4NcPtPZDbw1i5cqXdnZbVlO0UbCVs2LCh5UxZuFeyRJ79CYW8a6+9NvW7XBuxVWqbSuGZwXZcv+aaa1577bXCj1AGuD3kh5fc2p3NafNrZDTADTL7k5mdOIIWPuYW7ii/zRi7UZP7s2PHDstkhW/r2vY8ZcqU559/3vK05s4ofwQt1ORyheya8XOKrrrqKv9fV/vy4my/YU1FrXEto0f2MHlDu1Xo1vbWg3uY7ip8Rp3Y0TWSf0UGvj7Lv8rlN6fyc+b3DO01mK/OkOGJX/E/hQ9U9I+00KCHWoW6U99Kxv3sO201jTbulnXi77zGDifTp0/PNzwWYS+99NLm31bZiQO5pQprAOwJ2sFMC23MHvYZZ5zR2vWv+b3SxIkTax8T2b3/4he/sLzu/1tjt7d86kWWBbWjcucRmXHjxi1YsKDw+F0zwO0hPzxpi7U5bX6NjAayQW7dujX7NfBJ37tfUuFjbmFbzW8zxm7U5KY2b95ceCmUpXbLc83Xf/kjaCFbn/mfGfLLFTZmfiXNdtl2S933itQ+f7jrrrt0U+KFCr22h8kawq1CF7e3XtvDdF3hM2rvltxc/hUZ+Pos/yqX35zKz5nfM7TXYL46Q4Ynfk//SXygon+khQY91CrUbXklv1W38Cfo2/7RVSf+zt22bfv8bkDNcccd1/yLYl3+z7WNf2C2g5g/f/7JJ5+cDxl1LHNYa1e4Q2kiv1eqsXu0o6k1LXa4PfbYY3VrZB1F4c/Xl2d/G/m3+uxZ3HTTTZarNFNjA9weyu/iC9mc+cPeQDbI7Fdgpf4aXUmFj7mFbbVwm7EbNbkxu6PDDz9cAyJ71paVy1w8V/4I2kh+CVOnTrUtvHbW5SGHHPLKK6/YnHW/seCfP2QvVMhewNCvXt7DmKHaKnR3e+u1PUzXFT6j9m7JzeVfkYGvz/KvcvnNqfyc+T2DaTQzBocnfk//SXygon+khQY91CpkL1SoHTXLqPu83tge+amnntLkdujE37nZte/vBtScddZZJX8mqdMHcmfbkAX3cePG6T4aOOWUU7Lf1tKv/F6pxlZL7X19a1dqQbZmIF/5X3gtxIEHHvjggw+WXOYAt4fyu/hCNqfNr5FRyxukvbinnnqqltKxr5kqfMwtbKuF24zdqMkNvP322/mz2myjmjFjRsknW/4I2kj+R9ZOPPFE63hrZ13WvvHD/oiy140Y2zdmT2Gq+1qkJnp/DzMkW4Wub289tYfpBYXPqBPHykbyr8jA12f5V7n85lR+zsE5oQNJQuAf0q2CRbTshQq1o2YZ2R6j5q677tLkdujE37k9Zcvf+RB80kknlQ/cnT6QZ+3Zs2fFihUWK/OPuSbpsuP8XslZWs2eNr1jx44LLrhA06LRo0db9tIcKRodxe+///7yvccAt4fyu/hCNqfNr5FRyxvkokWLai9oy2u1X4WPuYVttXCbsRs1uYhtS4XfBTx9+vTyTVH5I2gj+csV7Ok//fTTte+6qX0nUn5dXXXVVdlOo+SFCpXYwwy9VqEXtree2sP0gsJn1LljZV7+FRn4+iz/KpffnMrPaX+k9qeqmaLstzVg8HniV/xP4QMV/SMtNOiVVqHuQoXsNwn2a23RT/2lXvbXXCf+zjds2JD/hNp2XmvWrNEcJXT6QF7onXfeufHGG/Pr3FmsL3MOj8nvlYwdZbN9grN1Uvc0zVlnnZWfsznbqLK/MlZjbWr5o7gZ4PZQfhdfqPCw19oGaSsw+1vd5V+7VIWPuYVttXCbsRs1uUjhLwymbjzlj6CNFF6uYK9abcO+9957NWvuk1LbN9566636n9JxthJ7mKHXKvTC9tY7e5geUfiM2rslN5d/RQa+Psu/yuU3p/JzFq7SQfvjRSFP/Ir/KXygon+khQa90irUHZCyv0/Ur61bt+ZPZz/mmGPeffddzTFgnfg7z36NfU3qFaVtOZD7JlL+jC9n2dpG5c/4Hzly5NKlSzVTU/m9kr2Omzdv1uQMi/i33XabZorseOzXM2imEuq+EtS1cHb+ALeH8rv4QoX76NY2SNtH1L5Up/wL14LCx9zCtprfZozdqMk5db2Qsy1n0aJFmqOc8kfQJvILya787OUHdVc224qqXYJfN2cTvbOHaWKItQo9sr31zh6mRxQ+o/Zuyc3lX5GBr8/yr3L5zSlpw8uf+z2YqxR5nvg9/SfxgSH4f0YLDXqlVcieRHTQQQclnQWRveCvJnUhzbX977zuUxRnRxQ7cGqOcgZ4IH/zzTcvuugi/7bQpPasxjayfLfg12tqjsaS9krWEOZ/JG7MmDHr1q3THCUUnqvW5E4bGeD2UH4XX8jmtPk1Mmphg9yxY8fkyZM1fsQI+3eHPlIwhY+5heNKfpsxdqMm52TP26lp4X2EpG21kcIH4+q+iaHJnCUffI/sYfo1xFqFHtneemQP0zsKn1F7t+Tm8q/IwNdn+Ve5/OaUtOHVvaPhLBJocrotW7Zs2rQp6e0/ZHniD+E/jQ9U9I+00KAnWgXbMrIXKhx77LGp32+T/RrBmuwH+gPU9r/z7Dck1rSw5xrggTy7XyiZ7/NaPqqlDrQNuvYubE3SOTM33HCDhmW08FIOcHvIDy+5xpzNafNrZNTCs1i2bFnt+3Btxdrq1YQOKHzMLWzw+W3G2I2anFN4MEta267ljTwrf7lCzZlnnvnRRx9pvqIrm2tqP7PQXI/sYfo1xFqFHtneemQP0zsKn1F7t+Tm8q/IwNdn+Ve5/OaUtOGtX78+/wUhA/lVK7v3/fbb76KLLip/MRWyPPGH8J/GByr6R1po0BOtQt0bYC1cZlD4Q2wlj6lltP3vPH8ANoN/ILduSsMGcEFS/psQmuxcslIPh7t27br00ks1a2Sv+5w5czRHf/Kvo2nhpRzg9pAfXnKNOZvT5tfIKPVZ1K3MpAfQgsLH3MIGn99mjN2oyTmF87fwZFO31UKFlyu4uuPr9u3bCy+NNU2ebFaP7GH6NcRahR7Z3nphD9NTCp9Re7fk5vKvyMDXZ/lXufzmlLTh1X0u7VoOEtmT9yxRvP7665qA0jzxK/6n8IGK/pEWGvREq1B3NGrhy4sK30Jr48X4bf87zx+ATQt7rvxyagvp6+uzp28HXWP/KPzEIHucLn8OdJ38XrjJziWrhcNh4ZWa48ePf+ONNzRHU/nX0bTwUjbZHqzL9XVuGnW8+eEl15jLr3CT+ixeeOGF0aNH+1hrt1LPpU5V+Jhb2OALo5jdqMk5hfMnrW3XZFu1pmvr1q3+ive72GxznrUg9zMyhZ+AlT+vskf2MP2iVSg0wO2tF/YwPaXwGbXw59Cy/Csy8PVZ/lVusjnVKT+ny36Bnmv5A+rsotr7tTTDhyd+T/9JfKCif6SFBj3RKtSdQW4HD00orfCH2PynizTHwLT97/yVV1455JBDtKyohbDe5ECe3TlOmjRp+/btPiSr7tOYq666qoXPYfJ7YVuOpjWVuldyhQfjkl9hlL8My7SwV2qyPdSij63YRj/uUX4XXyi/wk3SBmmv8uWXX66RI0acfvrpSV/P0oLCx9zCobrw1bcbNTmnMJq38CZCk201+zfY70mPheeyF+6pCq+rKX9yZo/sYfo1xFqFHtneur6H6TWFz6iF/U/L8q/IwNdn+Ve5yeZUp/ycrvAawha+nNByau3nfWw31bkv2BjaPPEr/qfwgYr+kRYadL9V6Nv3QoWW/3oLU2D+vbrWtP3v3I4cdvzQsjJSD1QlD+SNHm3d8NZWvh3X7eiuRQQlV3vqXsnZBp39yTBnO5dHHnlEczRWeCZxCxcdNtkeatGnycrMDy/zxGuyr2xN0gaZfd2tpZk/f74mdEzhY25he8tvM6bJX40lY9s2NF/UlvutvWTZldnv2xx2ZM1/XVthA1D4HdDlT6rskT1Mv4ZYq9Aj21vX9zC9pvAZtfC6tCz/igx8fZZ/lZtsTnXKz1ljR966bd6OKUlfTmhzZr/hsHPf2T3keeJX/E/hAxX9Iy006H6rUHehQst/vYVvwrV8qW6dTvydF36VYdL7u1u2bMmf0FxbgdkE3+hKo/yJW4U/a9Bc3RulEyZMeOuttzStqRb2Si57PW5NmV9/K/yyVNuvlT/9Zs+ePfPmzct/6VNte6g9KVuxtnr9xjrld/GFbE6bXyOj8huk/UVcf/31GjZixMSJE0u+UT0QhY+5LRHK2I2anJM9/zXL/vo0R39sddn2lj/trfaS1cKuHS/7fc++8HKFws+1CpuKpK8p64U9TL+GWKvQI9tbd/cwPajwGdEqaHJG+TlrdhX9JPwBBxwwa9asMunL5nnwwQdrB/QxY8Yk/fALsjzxK/6n8IGK/pEWGnS/VahLqy2fNZQ/5JgTTjihLTGoE3/nmzdvzkcBi61lLtK1ntu69nxgNbWzmbMJvlHCyH8gYP7pn/6p+a4hq+7qWHP33XeX2UGYFvZKzvLWtddeqzEZdmPz91ztgdnD09wZJePyhg0b8h9oOH+719SCYJOzDsrv4gvZnDa/RkblN8js9R4lt7eBK3zMg9AqmPybXsbWgK0HzdGYZeWLLrrI1pKGZZwSf1H+lltu8VuaNIdZ+XNUbAmalmHNQ913QJe/UMH1wh6mX0OsVTC9sL11dw/Tg9q1/2lZ/hUZ+Pos/yqXP9S2dlC2Djn/noJtxtddd13zsbafueOOO/zr2n3I4ByPhipP/Ir/KXygon+khQbdbxXynwa0dtZQ4Zcg2S0Dv14zm/9qyp8J0MTixYvz744376r37NnzxBNPHHfccT6zPcEvfOEL/u8ae+EtE9d+lrjJDrHRWQonn3xymQOb/Z1Pnz49u9qTPpTIf8Vt4ZkYhd54443x48drWGQr01ap5migcKdmrr766iZXO1h2sT6ktkezdV63sfmXXWZTeJNPtDpxIC/5A+c2T/aj3nb10v0q3NJaeF+gsFVofm1M4Ztepvm2apPsGFbLyvlXfMKECRbsbO3VTtUt+SJmE7axxVpc1rR91UKha9J8NtL1PUy/8vv/up+Y6JzCn54obNuS9ML21sU9TG8qvJoxtfduWYciRPlXOX+obTRnfgdb61Gbe//998866yyNyRg3bty8efPy92V/Jo8//rgdgDRf2NXceOONTY7C6Jcn/hD+0/hARf9ICw263CpY4PvWt76lLSVq4ZqYugCUZenztdde03wtKXxzznLqb3/7W83RKnvYs2fPzh/L7YBht2f/uuz4bYfPW2+91f7wNFNIxvYyWeOu/4+OPvroyZMn13Jtk5/WKjwkOPu7PfXUUx977LF8OrGHbdH5/vvvzz4YY/sUO5hppv7YS5zfs5TJ+jW33367hmVYDFq9erXmaMAeZD4imP/n//l/LOtnD4e2fiw2/cM//ENtZRoba31p9qMwYzPYeq59RDOy8YVZhZuTha3yn7rahpdvk2yZZb5dru4ULNvMNKHDVqxYUfvCpaw777zTtm3N1J/CbcbYcy/8ke8aG5j/ml1jByrLCtkHsHPnTrtlypQp2b/Ko446yl7xulbH/kAsfGQv6Su5Mi3tZTeAJu8N2x5cMwUtZLWu72Gas1iQvVDN2Yp98MEHU59pC+wvzv7udK+R/XX/7ne/0xyt6u721t09TG8qfK3N9OnTByGbdiJC2F+c/d1pWVHhWz/2BP/f//f/1RyR3Xv+awNtzvx2azuEkq+7bfaXXXaZbagamWE3HnnkkbadWxd95ZVXfvvb367bKdkM1157LX3CAHni9/SfxAeG4P8ZLTToTquwfPly2xvaxppNYFl2JLMZbHtqnvLtr8L2njanbc2FG6ize7H7stmafLZluwybIc9yVf5A6+x2m6r59mVL03L7Y0fEwjNTjT0je162tMJnd9xxx/k7stl3svMsnzV54yR/kkOh2iMxha+azfDDH/7Q9hRabgPbt2+3XYkvp/b+WZ3sfeXPxC3zitdebruvRt/KYg/VHnDhEnzbM/lHaEu+6aabbB9tr1rtLdVCtsPN7vVqD7twsa72sAs3e7vFbrepZTZIu6/8AcNlz1//5je/+c4772hCB/ifuWnyl24OO+wwn63wzzO7zRx88MEak9Pvc7dXLftJd1ZtbH75toXYS+lvqtnDa7TJGeurbVfr99Vc3VuMTd60q/sWo9ZO8unuHsY12rs2ekFrDyyv36tB6tT+cOo02SZre4A6TfYneYO8vfXOHqZH2Nrbuy6C5vsfexU0X+JLXCf7EmSVWZ91mq9e/2tq9LfjW68/EZ/TdrCati+f0++r/Jx6EA1YG7xw4cJDDz1UI8ux9WCBs/x7RmgkBP4h1CoUXleQ97X+PtcuPNW+iSbnoeY/yxsIW5qWW44l15tvvjn/hSeF7BC+aNGibBJ98sknC98ysb9w2wg0UwO1J25/rtb0L1iw4P7777/wwgsb7Ynq2C743HPPtcNMmXcBm3yIUSh/YkbSK97oM1ZnD3jlypV2xG1yPK6xlXPllVdmL9du9MahsRVS1zUlPezCzd5uKXyJC9l92T1qZIY1BtYeaKaUSy1bU/LPvKbwzzN1m2n03J2lXnt1muSGmvyGbX9xN954Y+HWMnHixH4vqc/KfhNXk88K7MBcezOy351hc13cw5g27l0bnazVSNIfTnPN9yeFBm1765E9TO8oPFOxXy28xDVJL0FzzVdvmb8mfyJl5vT7Kj+nHkRTdtcWIK3b18jGbLO/6KKLBn6CBpwn/hD+0/hAT/41WmhAqyBtPJgZW5qWm8KODStWrPjxj398/PHHZ5O6/TmNHz9+0qRJs2bN2rx5c2GwsFVhx5VvfOMbPsT+cd1115U5Heimm276/ve//8QTT9R9B4u1+GvWrJk+ffpJJ51U92aDPTZ7hNdcc429jnWZuLnU2NfRVqHGArRFN1u9dW8+1Z7m0qVL61aOs1VkEep//s//6W8a2X9PO+20xYsX598dSXrYnTuQz549W3OkfFFVy3qwVXC2T5w/f/4ll1xS94afBV+L5pbdH3vsscIN2/707I/i/PPPtzltfttaLLRZa516+s2qzOUKTX6KIfuhX5MPH8rryh7GtHHvWq1WwQ3C9tYje5jeQatgT6R8A1B+Tj2IEmzr3bRp08yZM+uOrb63ufDCC+fNm2d/Gpob7bA37w/Vy5oBDIKtW7dmryG77bbbChMhAACoHE/8iv8pfKCif6SFBrQKwLAwf/782skM44uuaQMAABXliV/xP4UPVPSPtNCAVgEY+rbt+8tQ06ZN4yMFAACGDE/8iv8pfKCif6SFBrQKwNC3aNGi2kcKY8aMWb9+vSYAAIDq88Sv+J/CByr6R1poQKsADHF1VwZff/31fKQAAMBQ4olf8T+FD1T0j7TQgFYBGOI+/PBDaw/8q1cKv/wEAABUmid+xf8UPlDRP9JCA1oFYFiwHcFNN910ww037N69WzcBAIAhwRO/4n8KH6joH2mhAa0CAAAAUGGe+BX/U/hARf9ICw1oFQAAAIAK88Sv+J/CByr6R1poQKsAAAAAVJgnfsX/FD5Q0T/SQgNaBQAAAKDCPPEr/qfwgYr+kRYa0CoAAAAAFeaJX/E/hQ9U9I+00IBWAQAAAKgwT/yK/yl8oKJ/pIUGtAoAAABAhXniV/xP4QMV/SMtNKBVAAAAACrME7/ifwofqOgfaaEBrQIAAABQYZ74Ff9T+EBF/0gLDWgVAAAAgArzxK/4n8IHKvpHWmhAqwAAAABUmCd+xf8UPlDRP9JCA1oFAAAAoMI88Sv+p/CBiv6RFhrQKgAAAAAV5olf8T+FD1T0j7TQgFYBAAAAqDBP/Ir/KXygon+khQa0CgAAAECFeeJX/E/hAxX9Iy00oFUAAAAAKswTv+J/Ch+o6B9poQGtAgAAAFBhnvgV/1P4QEX/SAsNaBUAAACACvPEr/ifwgcq+kdaaECrAAAAAFSYJ37F/xQ+UNE/0kIDWgUAAACgwjzxK/6n8IGK/pEWGtAqAAAAABXmiV/xP4UPVPSPtNCAVgEAAACoME/8iv8pfKCif6SFBrQKAAAAQIV54lf8T+EDFf0jLTSgVQAAAAAqzBO/4n8KH6joH2mhAa0CAAAAUGGe+BX/U/hARf9ICw1oFQAAAIAK88Sv+J/CByr6R1poQKsAAAAAVJgnfsX/FD5Q0T/SQgNaBQAAAKDCPPEr/qfwgYr+kRYa0CoAAAAAFeaJX/E/hQ9U9I+00KCHWoV33333mGOOGdEBI0eOXLp0qe4GAAAAGEI88Sv+p/CBiv6RFhr0UKuwZMmS/fbbT+m+rS644IIdO3bobgAAAIAhxBO/4n8KH6joH2mhQa+0Cn19fVOnTlW0b+DAAw+cMGHCUU2NGjVKc0ejR49etWqV7gYAAAAYWjzxK/6n8IGK/pEWGvRKq9Dk7KOjjz567ty5W7du1ayNvfHGG+PHj9ew6NJLL921a5fmAAAAAIYWT/yK/yl8oKJ/pIUGvdIqFJ59dOihhy5cuHDPnj2aqam+vr5p06ZpZDR69OgXXnhBcwAAAABDjid+xf8UPlDRP9JCg55oFQrPPjrllFM2b96sOUrYsGHD4YcfrsHRVVddtXv3bs0BAAAADDme+BX/U/hARf9ICw16olXIn300adKkbdu2aXIJ1mxcf/31GhyNGTNm/fr1mgMAAAAYijzxK/6n8IGK/pEWGvREq1B39tHZZ5/94Ycfalo5L7300te+9jWNj6ZNm2YthOYAAAAAhiJP/Ir/KXygon+khQbdbxV27959+eWXK92HjwLWrVunaeXULcEdfvjhGzZs0BwAAADAEOWJX/E/hQ9U9I+00KD7rcJbb701YcIEz/f77bff/PnzNaG0VatWjR492pdQc9ttt/GRAgAAAIY8T/yK/yl8oKJ/pIUG3W8VFi1aVDv7qIUvNrX5bZQPr7HewzoQzQEAAAAMXZ74Ff9T+EBF/0gLDbrfKqxZs+aaa675xje+0dopQ8uWLTvwwAPVIkQ/+9nPNBkAAAAY0jzxK/6n8IGK/pEWGvTEZc1u+/btqacM7dixY/LkyeoPohNOOKHM77UBAAAAQ4AnfsX/FD5Q0T/SQoMeahVaYM9w5MiRahGC/fbbb86cOZoMAAAADHWe+D39J/GBiv6RFhpUuFX4+OOPv/e976lFiCZOnMhHCgAAABg+PPEr/qfwgYr+kRYaVLhVmD9/fvbXGExrX6AEAAAAVJcnfsX/FD5Q0T/SQoOqtgr2rE499VS1CNHpp5+e9BvPAAAAQNV54lf8T+EDFf0jLTSoaqswZ86cuo8URo4caU9Ykytoz549CxYs8N+c/uEPf6hbAQAAgKY88Xv6T+IDFf0jLTSoZKuwdevWiRMneodQ873vfe/jjz/WHG2yc+fO5cuX//jHPz7++OMPPvhg3dOIEaNGjTr22GMt0C9ZsqSFzzF279793HPPPRbNmzfvyiuvHDdunJaeaxX6+vo2b948c+bMk046qfYwrFOyIaeffvqsWbNsatt/b27Xrl0vvvji9OnTs3dq7N92i91uU1N/BAMAAABt54lf8T+FD1T0j7TQoJKtws9+9jPl1ujAAw9ctmyZJrfDli1bLL7nf7Eh74ADDjj33HNfe+218mG98ILsrFqrYMtcuXLlySefrAkNWNtwxhlntPCrFIWs+bn55pu/+tWvaumN2Tw2p21hGgkAAIBB54lf8T+FD1T0j7TQoHqtwjvvvPPNb35TWTW64IILduzYoTkGxpZzxx13WAOgRWccdthhRx111Lhx4+rOfTJ2y0UXXfT+++9rKU2VbBU+/PDDSy+9NH9fjYwaNcpecr+L1uzZs2fhwoWHHnqolhjZ2hg/frw9d1sDuinD7ve+++6zsVoKAAAABpEnfk//SXygon+khQYVaxX6+vpuu+02RdRo9OjRq1at0hwDs2XLllNOOUXLjY4++ugHH3wwe3bTrl27lixZkn+z38L02rVrNVNj2ROQ5s+ff/zxx2t8ZK3CG2+8kT/JykL5pEmTrr76apvhmGOOyXcRA1kV9gSnTp2aXab9+5xzznn++eezJxrZbPPmzcu3ExdffLH1NpoJAAAAg8UTv+J/Ch+o6B9poUHFWgUL0OPHj1c4jS699NK2nDT/9ttvf+tb39JCA8vK1113XbZJyNqzZ4+tpbqTlMaMGbNmzRrNUULhJwzWD9T1CdaWrFixou6d+9dee+3YY4/VHNGpp55qL7nmKG3btm3nnnuuFhF87WtfW7RoUaOzqqwrsN5As0bWZVmvpTkAAAAwKDzxK/6n8IGe/Gu00KBKrYLF1mnTpimWRpZoX3rpJc0xANYn1KVz6xPuvvvufs+rWbx4cb5bWLdunSb3p7BVyDr00EMXLlzY6GFs2LDh8MMP16yBPWyL+JpcjjVaV199tcYH9hSWL1+uyQ1Yd2EtjQZEdgvfVwsAADCYPPEr/qfwgYr+kRYaVKlVyMdic9VVV+3evVtztCqflUv2CcYamJkzZ9r8GhmUT8zNW4VTTjll8+bNmrWBGTNmaO7ovPPO27lzpyb3J//47d8lf8nOHlvdxxo2dtasWZoMAACAzvPEr/ifwgcq+kdaaFCZVsH6AesKFEijMWPGrF+/XnMMQP5XGpLeHbdOY+rUqRoZWafR6OydrCatwtlnn13m7P9Vq1YddNBBGhMcccQRb775pib3x4aPHj1aI4OkE7pmz56tYdGECRPeeustTQYAAECHeeJX/E/hAxX9Iy00qEyr8NJLL/nPk2VNmzatTBxvLn/9QwsXB1vHYn2LxgclT0Nq1CqcddZZJb9PacuWLZbONSywzqHk48/fe+pzt66g7t6N9Q+aDAAAgA7zxK/4n8IHKvpHWmhQjVZh9+7dl19+uXJoZPneUr7maFXh9Q8tXCdd+Ajtln5PjipsFZKe2nvvvXf00UdrZLRkyRJNbso2kZEjR2pMYA/GHpIml2BP8JJLLtHg6PTTT+eKBQAAgMHhid/TfxIfqOgfaaFBNVqF/Eky5rbbbhv4Rwr5TwP2S78s2C1durQudpc5P6qwVaj7tebmCluFn/3sZ5rc2I4dOyZPnqwBUZmBdfK/iNeua80BAADQL0/8iv8pfKCif6SFBhVoFSzRXnDBBQqhUbtOiM9fE5x0on9W/kQgY8vX5Aa62Crk2yRrdfr94qO8JUuWaHzGggULNBkAAACd5Ilf8T+FD1T0j7TQoAKtwrJly+q+jdS08OZ33ocffpj/wbVJkyZt375dc6TYuXPneeedp6VEtvzmlyZ3sVWYO3eu5o7Gjh27ceNGTS5t7dq1X/3qV7WI6IYbbtBkAAAAdJInfsX/FD5Q0T/SQoNebxUKT5I54YQTtm7dqjkGoPBS6YFkXBurpUSWoZv/fnO3WoW+vr4rrrhCc0e2HFua5iitcDW23HEBAAAgiSd+xf8UPlDRP9JCg15vFew51F0AsN9++82ZM0eTB2bBggVaaMZAPq+49957tZSMuXPnanKRbrUKhZ+o2COxx6M5SitsFfr9OAUAAABt4Ynf038SH6joH2mhQU+3Ctu2bTv99NOVPaNTTz3VnpLmGJhbbrlFC80o+d1BhQrP2rd70eQi3WoVCke1sVVo7QMKAAAApPLEr/ifwgcq+kdaaNDTrcL8+fPrfhnN/rfkDwmXYYlcy81oe6vQPPd3q1UozPcHHnjghAkTjko0bty4upfJtHx1OAAAAJJ44lf8T+EDFf0jLTTo3VbBHvepp56q4Bm19wv7aRU0dwfYwu0udGcAAADoGE/8iv8pfKCif6SFBr3bKsyZM6fuveqRI0faU9LkdqBV0NwdQKsAAAAwODzxe/pP4gMV/SMtNOjRVmHr1q0nnHCCUmc0efLkHTt2aI52oFXQ3FFr1yoAAACgizzxK/6n8IGK/pEWGvRoq2BJV+k1OvDAA5ctW6bJbXLVVVdp6RltbxXsXjS5SLdahTfffPOII47Q3BGtAgAAQOV44lf8T+EDFf0jLTToxVbhrbfeyv/s8QUXXNDejxRMviExA2kVbI1rKRnNU3u3WoXCUSeeeOIHH3ygOQAAAFAFnvg9/SfxgYr+kRYa9Fyr0NfXd9tttym6RqNHj161apXmKM3S8K5du/Q/RZ566qn8V/f0G7KbaKH36FarUHi/thxbmuYAAABAFXjiV/xP4QMV/SMtNOi5VuGNN94YP368omt0+eWX7969W3OUs3PnzvPOO++rX/3qjTfe+M477+jWfW3cuHHs2LG6j6j5+ULN5c9osuXbvWhykW61Cib/aLkWGQAAoHI88Sv+p/CBiv6RFhr0VqvQ19c3bdo05daotfy6fv36MWPG+BIOP/zwTZs2aULGjh07Jk+e7PPUTJo0afv27ZojRWHot1vsds1RpIutwty5czV3hm00mpxuy5Yttp7tRdT/AwAAoPM88Xv6T+IDFf0jLTTorVYhm+9rrrrqqtSPFMzs2bM1vmlez87mJkyYYJFXk1MUXijc2olAg9MqFK7tG264QZPT2Z3ut99+F110UWsrEAAAAC3wxK/4n8IHKvpHWmjQQ62C9QP5U2IOP/zwDRs2aI7Stm3bdvrpp2sRI0bccsstmpCTv4Tawm5rVzYvWrSo7soHC+IWxzW5gS62CoUfqrR8ZXN2nVvL9Prrr2sCAAAAOskTv+J/Ch+o6B9poUEPtQqF3/Q/bdq0Fk5osWc+cuRIX4L9Y/ny5ZqQU3jKUwuXRtj8Nkrjo+uvv77fB9/FVsHk25uWf+cuu6jzzjtv586dmgAAAIBO8sQfwn8aH6joH2mhQa+0Crt27br00ks9aNaMHz/+jTfe0Byl1YXvY4455t1339W0IvkLqct8GlAn3+eUfPDdbRW2bt06ceJEjYnOOuusbdu2aY5ybCM79dRTfbg1G0uXLtUEAAAAdJgnfsX/FD5Q0T/SQoNeaRVWrVo1evRoz5o1t912WwsfKcyZMyf7Tvkll1zS70cE8+fPr3tzferUqc2/aDUr3+fY0uxhaHJT3W0VzCOPPFL7BMbZg585c2b5NW9zZr/fthO/gAEAAIBGPPEr/qfwgYr+kRYa9ESrYMnS8qWSZvTNb36z0ZecNrFmzZq6S3Xnzp2raY1Z1r/66qs1IEiKy/lOw5ZWstPoequQf+7mgAMOmDVrVpmnb/M8+OCDBx54oA+0lW8vgaYBAACg8zzxK/6n8IGK/pEWGvREq7Bs2bJa1qwpH3ZrNm7ceOyxx2p8UP5Uom3btk2aNEnDAntIFoL7jctPPvlk3alHtpzyJ/B0vVUw+edurPm57rrr7OFppiLW491xxx3WV9SGlPwsBQAAAO3iiV/xP4UPVPSPtNCg+61CYVaeOHHi1q1bNUcJFuh/85vfHHrooRof2ZKbh92sLVu2nHLKKRoZWAi2KNzodJo9e/bMmzdv1KhRmjs466yz3n//fc1RQodahbvuukuTy7HHbI9cgzPGjRtnzzG/Dnft2vX444+fcMIJmi/0CTfeeGPJz1IAAADQLp74Ff9T+EBF/0gLDbrfKtijzJ8rX/7Nacumzz///BlnnFF3CpBr8jWphT788MOLL75Yg6PjjjvOHmT2K338TmsX8jp7AFOnTi3fmbg1a9bkv/fp2GOP3bx5s+boz4oVK/KXeZx55pn2XDRHOdu2bbvssssKV6PdeOSRR06ZMuXqq6++8sorv/3tb9d9CmQzXHvttfQJAAAAg88Tfwj/aXygon+khQZdbhUsnmZ/AMFZ7hw3btxRJdhshdHWNf+a1EYs795zzz11nxWY2qMqvNNDDz104cKFe/bs0VKaeu211yxt26ImTJiQP/PK2e021eax0J//gMWe197nf9RR48ePr53/U8eegs9jDUDJ35+2x2/PIv/hTHP2UG1rKfncAQAA0F6e+BX/U/hAT/41WmjQ5VYhf0FwG/X7NalN2Fq7+eabv/rVr2pZjdk8d955Z/mLE0zhL0g0cvTRR7/33nsaGS1ZskSTS0g6C8vYzPbqW0ek8Y1Zl3LRRRf99re/1UgAAAAMOk/8iv8pfKAn/xotNOhmq1D4pf5tVOZrUpvbtWvXiy++OH369JNOOunggw/WckeMsH/bLbfccouF/hbOuunxVsH19fVt2rRp5syZkyZNyn52Yf+w/73wwgvnzZtn25bmBgAAQJd44lf8T+EDFf0jLTTo/rUKAAAAAFrmiV/xP4UPVPSPtNCAVgEAAACoME/8iv8pfKCif6SFBrQKAAAAQIV54lf8T+EDFf0jLTSgVQAAAAAqzBO/4n8KH6joH2mhAa0CAAAAUGGe+BX/U/hARf9ICw1oFQAAAIAK88Sv+J/CByr6R1poQKsAAAAAVJgnfsX/FD5Q0T/SQgNaBQAAAKDCPPEr/qfwgYr+kRYa0CoAAAAAFeaJX/E/hQ9U9I+00IBWAQAAAKgwT/yK/yl8oKJ/pIUGtAoAAABAhXniV/xP4QMV/SMtNKBVAAAAACrME7/ifwofqOgfaaEBrQIAAABQYZ74Ff9T+EBF/0gLDWgVAAAAgArzxK/4n8IHKvpHWmhAqwAAAABUmCd+xf8UPlDRP9JCA1oFAAAAoMI88Sv+p/CBiv6RFhrQKgAAAAAV5olf8T+FD1T0j7TQgFYBAAAAqDBP/Ir/KXygon+khQa0CgAAAECFeeJX/E/hAxX9Iy00oFUAAAAAKswTv+J/Ch+o6B9poQGtAgAAAFBhnvgV/1P4QEX/SAsNaBUAAACACvPEr/ifwgcq+kdaaECrAAAAAFSYJ37F/xQ+UNE/0kIDWgUAAACgwjzxK/6n8IGK/pEWGtAqAAAAABXmiV/xP4UPVPSPtNCAVgEAAACoME/8iv8pfKCif6SFBrQKAAAAQIV54lf8T+EDFf0jLTSgVQAAAAAqzBO/4n8KH6joH2mhAa0CAAAAUGGe+BX/U/hARf9ICw1oFQAAAIAK88Sv+J/CByr6R1poQKsAAAAAVJgnfsX/FD5Q0T/SQgNaBQAAAKDCPPEr/qfwgYr+kRYa0CoAAAAAFeaJX/E/hQ9U9I+00IBWAQAAAKgwT/yK/yl8oKJ/pIUGtAoAAABAhXniV/xP4QMV/SMtNKBVAAAAACrME7/ifwofqOgfaaEBrQIAAABQYZ74Ff9T+EBF/0gLDWgVAAAAgArzxK/4n8IHKvpHWmhAqwAAAABUmCd+xf8UPlDRP9JCA1oFAAAAoMI88Sv+p/CBiv6RFhrQKgAAAAAV5olf8T+FD1T0j7TQgFYBAAAAqDBP/Ir/KXygon+khQa0CgAAAECFeeJX/E/hAxX9Iy00oFUAAAAAKswTv+J/Ch+o6B9poQGtAgAAAFBhnvgV/1P4QEX/SAsNaBUAAACACvPEr/ifwgcq+kdaaECrAAAAAFSYJ37F/xQ+UNE/0kIDWgUAAACgwjzxK/6n8IGK/pEWGjRrFU7637soiqIoiqIoiurl8sSv+J/CByr6R2oMAloFiqIoiqIoiqpweeJX/E/hAxX9IzUGAa0CRVEURVEURVW4PPEr/qfwgYr+kRqDgFaBoiiKoiiKoipcnvgV/1P4QEX/SI1BQKtAURRFURRFURUuT/yK/yl8oKJ/pMYgoFWgKIqiKIqiqAqXJ37F/xQ+UNE/UmMQ0CpQFEVRFEVRVIXLE7/ifwofqOgfqTEIaBUoiqIoiqIoqsLliV/xP4UPVPSP1BgEtAoURVEURVEUVeHyxK/4n8IHKvpHagwCWgWKoiiKoiiKqnB54lf8T+EDFf0jNQYBrQJFURRFURRFVbg88Sv+p/CBiv6RGoOAVoGiKIqiKIqiKlye+BX/U/hARf9IjUFAq0BRFEVRFEVRFS5P/Ir/KXygon+kxiCgVaAoiqIoiqKoCpcnfsX/FD5Q0T9SYxDQKlAURVEURVFUhcsTv+J/Ch+o6B+pMQhoFSiKoiiKoiiqwuWJX/E/hQ9U9I/UGAS0ChRFURRFURRV4fLEr/ifwgcq+kdqDAJaBYqiKIqiKIqqcHniV/xP4QMV/SM1BgGtAkVRFEVRFEVVuDzxK/6n8IGK/pEag4BWgaIoiqIoiqIqXJ74Ff9T+EBF/0iNQUCrQFEURVEURVEVLk/8iv8pfKCif6TGIKBVoCiKoiiKoqgKlyd+xf8UPlDRP1JjENAqUBRFURRFUVSFyxO/4n8KH6joH6kxCGgVKIqiKIqiKKrC5Ylf8T+FD1T0j9QYBLQKFEVRFEVRFFXh8sSv+J/CByr6R2oMAloFiqIoiqIoiqpweeJX/E/hAxX9IzUGAa0CRVEURVEURVW4PPEr/qfwgYr+kRqDgFaBoiiKoiiKoipcnvgV/1P4QEX/SI1BQKtAURRFURRFURUuT/yK/yl8oKJ/pMYgoFWgKIqiKIqiqAqXJ37F/xQ+UNE/UmMQ0CpQFEVRFEVRVIXLE7/ifwofqOgfqTEIaBUoiqIoiqIoqsLliV/xP4UPVPSP1BgEtAoURVEURVEUVeHyxK/4n8IHKvpHagwCWgWKoiiKoiiKqnB54lf8T+EDFf0jNQYBrQJFURRFURRFVbg88Sv+p/CBiv6RGoOAVoGiKIqiKIqiKlye+BX/U/hARf9IjUFAq0BRFEVRFEVRFS5P/Ir/KXygon+kxiCgVaAoiqIoiqKoCpcnfsX/FD5Q0T9SYxDQKlAURVEURVFUhcsTv+J/Ch+o6B+pMQhoFSiKoiiKoiiqwuWJX/E/hQ9U9I/UGAS0ChRFURRFURRV4fLEr/ifwgcq+kdqDAJaBYqiKIqiKIqqcHniV/xP4QMV/SM1BgGtAkVRFEVRFEVVuDzxK/6n8IGK/pEag4BWgaIoiqIoiqIqXJ74Ff9T+EBF/0iNQUCrQFEURVEURVEVLk/8iv8pfKCif6TGIKBVoCiKoiiKoqgKlyd+xf8UPlDRP1JjENAqUBRFURRFUVSFyxO/4n8KH6joH6kxCGgVKlw/uHf3k6/2fbzz09nL99RNopLqjBm7nn+9z6rudoqiKIqiqN4vT/yK/yl8oKJ/pMYgoFUYUE2ZvXvW03ssYr6/7dM/7Pj0fz86GJF90k93zXxqz2tb+nbt2fuq2X9pFQZSV83bvf7dvr5PP139Bq0CRVEURVHVK0/8iv8pfKCifxTaAqFVaL2mLdht7UHN7j2fzlvZtsh+3j27H3x+z+Mv99Vqxca+Te/3/WH7p3ss1WbQKiSVdVnZVfrO7/tq65NWgaIoiqKoKpYnfsX/FD5Q0T9SMApoFVqv+1fs8ff1a1ZtalvWnPqL3e9v02Kbo1VIKusHtOJyaBUoiqIoiqpieeJX/E/hAxX9IwWjgFah9Vq+oT50bv6g77x7dtfN1lrlP1XwWrKu742te8+WqaFVSKrapwovvNH38Sdah45WgaIoiqKoKpYnfsX/FD5Q0T9SMApoFVqsM2bsevN39a3CH3Z8Om1Be1qF5vXsxs/umlah5Zr19J5Pdms1GloFiqIoiqKqWJ74Ff9T+EBF/0jBKKBVaLHqLlRwltrvXzEYqT177hOtQstVd5YXrQJFURRFUVUsT/yK/yl8oKJ/pGAU0Cq0WLWw/vbv+3ZnrlhYvmEw4qb1BrQKAy9aBYqiKIqihkB54lf8T+EDFf0jBaOAVqHF8gsVPtn96aIX93y009ffXq+/33fGjPqZ2160Cm0pWgWKoiiKooZAeeJX/E/hAxX9IwWjgFahlapdqPD7j/denLD5g8+uHLBbrn2w45cr0Cq0pWgVKIqiKIoaAuWJX/E/hQ9U9I8UjAJahVaqdqHCpvf3hkuLmGH97fXJ7k/ve6bjwZ1WoS1Fq0BRFEVR1BAoT/yK/yl8oKJ/pGAU0Cq0UrULFZ58dW+4nL96T/brS/3GjhatQluKVoGiKIqiqCFQnvgV/1P4QEX/SMEooFVopfxChVpGv+WxPdsz39C//l1ahWoUrQJFURRFUUOgPPEr/qfwgYr+kYJRQKuQXNkLFfyyhCmzd2/58LOPFX730adX/rKzlyvQKrSlaBUoiqIoihoC5Ylf8T+FD1T0jxSMAlqF5KpdqJD9sqOXN3/WKuzc9enMpzqb3WkV2lK0ChRFURRFDYHyxK/4n8IHKvpHCkYBrUJy1V2o4LXoxT21XsH+8dhaWoUKFK0CRVEURVFDoDzxK/6n8IGK/pGCUUCrkFx1Fyp4/eSJPTt2+Vrc6+XNnQ2dtAptKVoFiqIoiqKGQHniV/xP4QMV/SMFo4BWIa3yFyp4XfnL3b/7yNfiXhZA/2lOBy9XoFVoS9EqUBRFURQ1BMoTv+J/Ch+o6B8pGAW0CmlVeKGC1/p3P7tcYceuT3/yRAfjO61CW4pWgaIoiqKoIVCe+BX/U/hARf9IwSigVUir2oUKyzfUx8onX/2sVejr+3T+alqFXi9aBYqiKIqihkB54lf8T+EDFf0jBaOAViGtCi9U8LrvmT2f7PYVudcLncydg9YqTPrprplP7Xn+9T6L1Ns/+fSza7c/3ftvu8VuX7Wp7/bH99R9xtKWuvpXu594uW/zB307du29WNzZP+x/P/j405c299kTt0dYm//y+3fbg7n+4bKnfvVOq9Dd9UxRFEVRVKXLE7/ifwofqOgfKYIEtAoJVbtQ4Q87Pp22oD6PXvvg7t9/7Ctyry0f9k2Z3anLFQahVfj3R3a/+k5f7V7czl2ffvyJyv6dZbdYrM8G94HU3U/uefv32Z/A/uyus22DsUf4+ta+J1/tW7Gxz16XpFO/klqF7Dpvwh6hrbq6sU2qu+uZoiiKoqghUJ74Ff9T+EBF/0iZI6BVSKgmFypY2S12e1iRe32889P//Win3uzvaKvww7m7X9vS529s23+s/7FsOn3h7vxT9vfCf/ueZja/++jTWx4b0IO5/P7dr7yjJsGemj2SWU/v+cG9+4Rv+9//75k9b2zdp5dwSWsjqVW4d+meP2zfm9Sznx1l2e021daArau6sYXV3fVMURRFUdSQKU/8iv8pfKCif6S0EdAqJFSTCxW8/PQkt3vPp/NWVq9VsEi6LbRDxrLvghdKnfHyi+c+O/nqox2fzvh1i4/n6l/tfvfDvQux9fj61r6r5vWTuW99bE8267tHS/+oRWsnIN0wf5+Pj+yFXvNW342L0j5B6u56piiKoihqKJUnfsX/FD5Q0T9S1AhoFRKqyYUKXrVewq3a1Klz3zvUKty/fE/tdBdb7JxnExZrOVsjw6cudZ8DlCkb8tv3tBD7R8kl2Gxr39rn44VGjVy+WmsVsmea2T9ufzx55Xd3PVMURVEUNcTKE7/ifwofqOgfKWcEtApl64ymFyp41c5Qcps/6Dvvno4kuU60CtMX7vPgN7xbcJJVk8r+CN3uPZ/OTYm/XvNX7/ETbLZ/kpa/J/101wtvfNYtlL+gvLVWofY4W3tfv+vrmaIoiqKoIVae+BX/U/hARf9IOSOgVShbtTbAGoZG2c4aA2sPwrrcq0lTMcDqRKuQPXvKlMzNtZoye/eWDz9bQurvVduq807MNFnDjeoH93625l/f2sFW4YEVOgXI/mv/rptaprq7nimKoiiKGnrliV/xP4UPVPSPFDICWoWy1e+FCl6rNn0W4zp3uUInWgVL2Fpi0MI3OGV/hC51+I2Ldn+0U2Nb+57ZWU/rrB5L/yV/Kju1VbhzyZ6PQrvYcp9g1d31TFEURVHU0CtP/Ir/KXygon+kkBHQKpSt2oUK1jPUTcrW/NV7sifOlz9vPqk60Spsynx9k7FMXPKbfGplUVuDQ163IF43Q5PK/iqFReG6qWXqjBm7Xtq89wGU/zAnqVWY8Wv1CXv6Pv31y62/rN1dzxRFURRFDb3yxK/4n8IHKvpHChkBrUKpshja74UKXrc8tmf7J74692rhXJoy1YlW4Tev7HNxsD3y1AstBhJhs8+o5Ws8Zj29t9+w9V/yi0TLtwo3PbJ7a5jTnuHzrw/oNe3ueqYoiqIoauiVJ37F/xQ+UNE/UsgIaBVKVZkLFbzqTiXv0OUKnWgVfnDv3p86tqXZo7eHfd+y5GW2q1Vo+ScpbOU/9Wrfr1bV/w5DoyrZKlz9K81mT++FNwb682fdXc8URVEURQ298sSv+J/CByr6RwoZAa1CqSp5oYLXy+E0GNeuHF9XnWgVBl4DibC1ZsxZIu/EpzF1VaZVqP3Ugyn/Fa4dLVoFiqIoiqKy5Ylf8T+FD1T0jxQyAlqFUlXyQgWvRS/WflR3rydfbf289kbVg62CZWi/VMClRlhrDDZkrta1NWjdwuX3dzYE99sq2JOq/dSDzWltQ90Mg18DXM8URVEURQ298sSv+J/CByr6RwoZAa1C/1X7CtSPdn466+k9//7I7uY199nPfmDLbHp/qLUKk366y57mghf2WGZ95/d92z/Zm+zrtBBha19hVLNj16dr3uy7+zelfsm4hWreKmT7hE92f/qfzwx2P9ah9UxRFEVR1BArT/yK/yl8oKJ/pJAR0Cr0X3XnxqT6/cefXvtgm8Pc4LcKlkfnr96zfkuf9Uu5vLo3SX+4fW/VtBZhf/1yXz4NG7vTVZv6blzU5tXYpFWo+1k389qWQTonahDWM0VRFEVRQ6k88Sv+p/CBiv6RQkZAq9B/zVu5Z/eeTy02vv37vt++V6o+jj8RYHbu+nTmU22O8oPWKty2eM/zr/dt27FPbLV/2xO0p/nEy33/8evPriEe+Dn0lsUfXfPZt6bmbf/k03Vvt+1zhkatgi3cnnVdUt/7Kxmrhsh6piiKoihqKJUnfsX/FD5Q0T9SyAhoFfovv1Bhx65Pf/JE2aSY/SE28+uX2nwOUqdbhUk/3fXw6j2//3if5Lqn79O3fte38MU9jX7zq10R9vqHd69/t/jjhZqPdn66ZN1ALzIubBWsT3h2Y/G92wqxx5ZdwgCru+uZoiiKoqihUZ74Ff9T+EBF/0ghI6BV6KdqFypYJiv5G8BWdT/E1tpvijWpjrYK9zy9N7xmWZv0zPq+H87t5+m3N8JaKH/+9T676ybsub/6Tt+/P9LiHRW2CrWToD7Z/emDq/a8k/nqW9PGr2bqkfVMURRFUVTVyxO/4n8KH6joHylkBLQK/VTtQoWXNyfE/Z88sSebcdue5zrUKlgIfurVvt1xycb+bXm95DcRdSLCTvrprjnP7nl9a7MPGWzK6+/33VruZ9eylW8Vfv2Snr71Cb94bu8Cf75snxOi7N8PlPgWrObVg+uZoiiKoqjqlid+xf8UPlDRP1LICGgV+im/UMEknUT0T3P2yaBJJy+VqU60CpZfV23a5wT9jz8p9eWwtepohP3BvbsfXVt/rk6WhfhH16Rdw1DXKrzzYZ93BbU+wcoWWHfdwnt/GNBT6/H1TFEURVFU5coTv+J/Ch+o6B8pZAS0Cv2UX6jQwqXJ6zO/EmD/WvRiG9J8rTrRKtR9+5A95fsTFzs4Efa2xXtefWfvrx3n2d1bCi/fLdS1Cs76hPmr93niV/9q99bMbHYvKza2fkZZVdYzRVEURVFVKU/8iv8pfKCif6SQEdAqNKvahQq/T//C0ydfzeTBxPOX+q22twqWvz/KfCGsZVlLtHXz9FuDGWF/cO/uJev2fqNonaRHnm8VbGU+uqZgZc5bpQ+XnOX7WU+3ss4rt54piqIoiur98sSv+J/CByr6RwoZAa1Cs6pdqPD6+8kXs973zD7nuG/5sK/RF9q0UG1vFda+tU9j8+bv+qxNqpun3xr8CGsvyn8+U39xcPkcX9cqNOoTrOyOsr+RbKyHbOH7lyq6nimKoiiK6uXyxK/4n8IHKvpHChkBrUKzql2osHxD8lu/dT/ctv2TT29Jv+62UbW3Vbhx0e5tmYfa11d/Bk7J6laEvfz+3Zve3yeCl/zKqbpW4YV9f625rqYv3OcFtbX0xLq0raLq65miKIqiqN4sT/yK/yl8oKJ/pJAR0Co0K79QwbJ40lWnXrWTl1zLubCw2tsq1Doi99HOT1v7XeSWI+ysp/f89r2+peuT+7FaXf2rfUJ/yRPG6loFe/x1M9TVY2v3ZC8zsBV1++MJa77r65miKIqiqCFZnvgV/1P4QEX/SCEjoFVoWLWs35ZIZ/pNouWrva2Cd0Q1LafPliPso2v3Phlb2y2cjVOr7Dr5+JNPy/zYQmqrYA9v43v7rCv73/KPuevrmaIoiqKoIVme+BX/U/hARf9IISOgVWhYtTOIWo6wdT/ENsAonK32tgp1Lc3gR9hFL+59s377J2lv0tfVlb/c/buPdO8dahWs7BFmr6W2x13+w6Kur2eKoiiKooZkeeJX/E/hAxX9I4WMgFahYdVOF2l+CnuTqvshtpY/nchX5VqFH9y72557o8X607HBT706oA9eXt+qB1ByVdvjSW0VrOxBZteX9ZPTF5ZaXV1fzxRFURRFDcnyxK/4n8IHKvpHChkBrULDqp0u8ujaFoN4XRK1xsPaj7p5Wqv2tgp1J8Z04hx6f8CrNhVn8drT+f3Hn17/cIsx94wZu978nR5Aye+bqnuBSrYKFsezV6GYlzaX+oKsrq9niqIoiqKGZHniV/xP4QMV/SOFjIBWobjOixcqDDCIZ3+IzVhYrJuhtaplazPAR2g199l9Lrdt7Qpsy8pr3uwnwjZquv79kd0ff7J3lI1//vXk76X1yp6AVDL0t9YqWM16es/OzOdF9tTmPNv/Guv6eqYoiqIoakiWJ37F/xQ+UNE/UsgIaBWKq3ahwgCD+K9f2qdVePN3Lebgumpvq3D5/bvf+bD+cSZdVnHVvN3WFGUXURdhbT00Sca1VsHY01nwQitPpxbEW/5dhfKtgtWqTfs8363bPr36V/2ssa6vZ4qiKIqihmR54lf8T+EDFf0jhYyAVqG4all8gGcN+Xf71Azwyt1atbdVsHpgxT4/GFf+at1JP937FaJ+pW82w9adXWMB1xL8zKeKl1kX2e0Z2TKTeqral6XaQyj/ucRAWgUb+94fNNDY/ZY57ae765miKIqiqCFZnvgV/1P4QEX/SCEjoFUoKAua2Z/mfXZjQoKsq7pWwZQ8r715Wb6s5UX7x8IX2xANf/1yX92PBjRPnBZeH16958Pte2e2hsoCumXZ2qOyQFx7a9+Ws2PXp+9++Onl9xe/g14X2Y0txlJvyesWbn1sT234b99L+BHlax/cnf2l59TPfOY8+1nDZuwpWydQN0++urieKYqiKIoakuWJX/E/hQ9U9I8UMgJahfqyZPbM+n3D3I5P71zSfwTMl2XW1/f9FWFjS37ut312L3Uzl6+r5u3esu95LFu3fWpxuW62FsoiafYUfAumL7zRV3dejT0py6br3u7zL3eyx2HP0e+9LvHbDK9v7Xvrd32Wpy3a/vqlZh1X7cuLsmxd2XBrhK4p+j21KbN3/+K5PTbQXyz7z5o3E/oE6wp+88re03VqUj/N8GieZWvPurh+l9DF9UxRFEVR1NArT/yK/yl8oKJ/pIQR0Cp8VhbyPv5kb27Ls6BmgewP2z+9d2n/iXz6wr3X1zZalLNJNsOKxp9X2B3Z3dk8dbX9k70BOs8fYd3MViUfc638bPi6u7Bc60vLBlybZ9P7fXXnU9WdYONsYa++00+I91bBe4MnX91bv32v7+Ode8e6uieYXbc26d0PP72n3PUJtRWbf5zObrep9go2+gpU307swdQeWx1fXU1eXKturWeKoiiKooZeeeJX/E/hAxX9IwWLgFbhs8qfLFRnV7mrArIX6TbX5OT47NUIA1HyMdfVD+fufuLlvjd/tzesZ+OsxdNtO/ae5LPwxT2Nvo301sf2WLT1IGtDLXP/alX/b7RbsF7zZp8F6LrbbWWu2tT3wcf10dyW/9HOvacM2ePs93ribJVcsfYKNvoRt363E1fmyofBX88URVEURQ298sSv+J/CByr6RyGMCK0CRVEURVEURVW4PPEr/qfwgYr+kRqDgFaBoiiKoiiKoipcnvgV/1P4QEX/SI1BQKtAURRFURRFURUuT/yK/yl8oKJ/pMYgoFWgKIqiKIqiqAqXJ37F/xQ+UNE/UmMQ0CpQFEVRFEVRVIXLE7/ifwofqOgfqTEIaBUoiqIoiqIoqsLliV/xP4UPVPSP1BgEtAoURVEURVEUVeHyxK/4n8IHKvpHagwCWgWKoiiKoiiKqnB54lf8T+EDFf0jNQYBrQJFURRFURRFVbg88Sv+p/CBiv6RGoOAVoGiKIqiKIqiKlye+BX/U/hARf9IjUFAq0BRFEVRFEVRFS5P/Ir/KXygon+kxiCgVaAoiqIoiqKoCpcnfsX/FD5Q0T9SYxDQKlAURVEURVFUhcsTv+J/Ch+o6B+pMQhoFSiKoiiKoiiqwuWJX/E/hQ9U9I/UGAS0ChRFURRFURRV4fLEr/ifwgcq+kdqDAJaBYqiKIqiKIqqcHniV/xP4QMV/SM1BgGtAkVRFEVRFEVVuDzxK/6n8IGK/pEag4BWgaIoiqIoiqIqXJ74Ff9T+EBF/0iNQUCrQFEURVEURVEVLk/8iv8pfKCif6TGIKBVoCiKoiiKoqgKlyd+xf8UPlDRP1JjENAqUBRFURRFUVSFyxO/4n8KH6joH6kxCGgVKIqiKIqiKKrC5Ylf8T+FD1T0j9QYBLQKFEVRFEVRFFXh8sSv+J/CByr6R2oMAloFiqIoiqIoiqpweeJX/E/hAxX9IzUGAa0CRVEURVEURVW4PPEr/qfwgYr+kRqDgFaBoiiKoiiKoipcnvgV/1P4QEX/SI1BQKtAURRFURRFURUuT/yK/yl8oKJ/pMYgoFWgKIqiKIqiqAqXJ37F/xQ+UNE/UmMQ0CpQFEVRFEVRVIXLE7/ifwofqOgfqTEIaBUoiqIoiqIoqsLliV/xP4UPVPSP1BgEtAoURVEURVEUVeHyxK/4n8IHKvpHagwCWgWKoiiKoiiKqnB54lf8T+EDFf0jNQYBrQJFURRFURRFVbg88Sv+p/CBiv6RGoOAVoGiKIqiKIqiKlye+BX/U/hARf9IjUFAq0BRFEVRFEVRFS5P/Ir/KXygon+kxiCgVaAoiqIoiqKoCpcnfsX/FD5Q0T9SYxDQKlAURVEURVFUhcsTv+J/Ch+o6B+pMQhoFSiKoiiKoiiqwuWJX/E/hQ9U9I/UGAS0ChRFURRFURRV4fLEr/ifwgcq+kdqDAJaBYqiKIqiKIqqcHniV/xP4QMV/SM1BgGtAkVRFEVRFEVVuDzxK/6n8IGK/pEag4BWgaIoiqIoiqIqXJ74Ff9T+EBF/0iNQUCrQFEURVEURVEVLk/8iv8pfKCif6TGIKBVoCiKoiiKoqgKlyd+xf8UPlDRP1JjENAqUBRFURRFUVSFyxO/4n8KH6joH6kxCGgVKIqiKIqiKKrC5Ylf8T+FD1T0j9QYBLQKFEVRFEVRFFXh8sSv+J/CByr6R2oMAloFiqIoiqIoiqpweeJX/E/hAxX9IzUGQbNW4TUAAAAAvc0Tv+J/Ch+o6B+pMQhoFQAAAIAK88Sv+J/CByr6R2oMAloFAAAAoMI88Sv+p/CBiv6RGoOAVgEAAACoME/8iv8pfKCif6TGIKBVAAAAACrME7/ifwofqOgfqTEIaBUAAACACvPEr/ifwgcq+kdqDAJaBQAAAKDCPPEr/qfwgYr+kRqDgFYBAAAAqDBP/Ir/KXygon+kxiCgVQAAAAAqzBO/4n8KH6joH6kxCGgVAAAAgArzxK/4n8IHKvpHagwCWgUAAACgwjzxK/6n8IGK/pEag4BWAQAAAKgwT/yK/yl8oKJ/pMYgoFUAAAAAKswTv+J/Ch+o6B+pMQhoFQAAAIAK88Sv+J/CByr6R2oMAloFAAAAoMI88Sv+p/CBiv6RGoOAVgEAAACoME/8iv8pfKCif6TGIKBVAAAAACrME7/ifwofqOgfqTEIaBUAAACACvPEr/ifwgcq+kdqDAJaBQAAAKDCPPEr/qfwgYr+kRqDgFYBAAAAqDBP/Ir/KXygon+kxiCgVQAAAAAqzBO/4n8KH6joH6kxCGgVAAAAgArzxK/4n8IHKvpHagwCWgUAAACgwjzxK/6n8IGK/pEag4BWAQAAAKgwT/yK/yl8oKJ/pMYgoFUAAAAAKswTv+J/Ch+o6B+pMQhoFQAAAIAK88Sv+J/CByr6R2oMAloFAAAAoMI88Sv+p/CBiv6RGoOAVgEAAACoME/8iv8pfKCif6TGIKBVAAAAACrME7/ifwofqOgfqTEIaBUAAACACvPEr/ifwgcq+kdqDAJaBQAAAKDCPPEr/qfwgYr+kRqDgFYBAAAAqDBP/Ir/KXygon+kxiCgVQAAAAAqzBO/4n8KH6joH6kxCGgVAAAAgArzxK/4n8IHKvpHagwCWgUAAACgwjzxK/6n8IGK/pEag4BWAQAAAKgwT/yK/yl8oKJ/pMYgoFUAAAAAKswTv+J/Ch+o6B+pMQhoFQAAAIAK88Sv+J/CByr6R2oMAloFAAAAoMI88Sv+p/CBiv6RGoOAVgEAAACoME/8iv8pfKCif6TGIKBVAAAAACrME7/ifwofqOgfqTEIaBUAAACACvPEr/ifwgcq+kdqDAJaBQAAAKDCPPEr/qfwgYr+kRqDgFYBAAAAqDBP/Ir/KXygon+kxiCgVQAAAAAqzBO/4n8KH6joH6kxCGgVAAAAgArzxK/4n8IHKvpHagwCWgUAAACgwjzxK/6n8IGK/pEag4BWAQAAAKgwT/yK/yl8oKJ/pMYgoFUAAAAAKswTv+J/Ch+o6B+pMQhoFfZxww03jCjhvPPO04AiK1as+L/+r/9LszY2evTohQsXagwAAADQEk/8iv8pfKCif6TGIKBV2Mett946bty4ww47bP/991ei39eXv/xlm+GKK67QgCLPPvvsd77zHZvtz/7szzRsX7Zwu4tjjz128eLFGoOetHr16ssvv9xfx7/6q7+aOXPmK6+8ommd1K37BQAAVeSJX/E/hQ9U9I/UGAS0CsWefPLJCRMmhGAvf/RHf/TTn/40KbHZzNdff/3nPvc5LSI488wzn3/+ec2BHrZ06dK//du/1csW2Ev5wx/+cN26dZqjM7p1vwAAoKI88Sv+p/CBiv6RGoOAVqGh6dOnK6kFZ599dgtZbdmyZYcffrgWMWLEqFGjFixYoGnobT/60Y/0smX8+Z//+cMPP6w5OqNb9wsAACrKE7/ifwofqOgfqTEIaBUasjWgmBY0vz6hkbrrFuzfdoumobfZK66XbV+d/tPo1v0CAICK8sSv+J/CB+7N/RlqDAJahYZsDSijBbQKw82UKVP0smX8yZ/8ya9+9SvN0Rndul8AAFBRnvgV/1P4QE/+NWoMAlqFhmwNKKYFtArDzSOPPPIXf/EXeuWiSZMmdfqagW7dLwAAqChP/Ir/KXygJ/8aNQYBrUJDtgYU0wJahWFowYIF48aN89fuc5/73D/8wz+sXr1a0zqpW/cLAACqyBO/4n8KH+jJv0aNQUCr0JCtAc9qjlZheFq3bt28efPuvffep59++tVXX9Wtndet+wUAAJXjiV/xP4UP9ORfo8YgoFVoyNaAAn5AqwAAAIAe5Ilf8T+FD/TkX6PGIKBVaMjWgAJ+QKsAAACAHuSJX/E/hQ/05F+jxiCgVWjI1oACfkCrAAAAgB7kiV/xP4UP9ORfo8YgoFVoyNaAAn5AqwAAAIAe5Ilf8T+FD/TkX6PGIKBVaMjWgAJ+QKsAAACAHuSJX/E/hQ/05F+jxiCgVWjI1oACfkCrAAAAgB7kiV/xP4UP9ORfo8YgoFVoyNaAAn5AqwAAAIAe5Ilf8T+FD/TkX6PGIKBVaMjWgAJ+QKsAAACAHuSJX/E/hQ/05F+jxiCgVWjI1oACfkCrMGytWrXqxz/+8RFHHLFw4ULdNCi6db8AAKBaPPEr/qfwgZ78a9QYBLQKDdkaUMAPutsqvPLKK48//rgFx+9+97uHH374H/3RH2mJI0bYv+0Wu/3f/u3fhswv+3bx+doCV65cuXTp0nvvvfeKK67467/+68997nN2v6NHj+5oZO/W/QIAgKrzxK/4n8IHevKvUWMQ0Co0ZGsgRFPpVqtg81twHDVqlBYRHHzwweMi+7duDewuZs6caVFb4xuzZ6QxDdxwww1l5sw+qbrnm9fvauzc823EnqaW1VTbI3u37hcAAAwxnvgV/1P4QE/+NWoMAlqFhmwNKKwFg98qvPjii5dffrm/of65z33uhBNOuOeee5599tn8++j+HvxFF11Ue/d94sSJy5Yt0+QGLJHXvWFf82d/9mcWym+99dbanIcddtj++++vyRkW3L/zne/Yo/I57R/2vzb2y1/+suaIfJm2KJ8zr9PPtxF7mntbkH3ln2/bI3u37hcAAAwxnvgV/1P4QE/+NWoMAlqFhmwNKKwFg9wqWBQ+6qijfNRf/MVfPPDAA2XOtHnooYdsZh81YcKEpUuXakJjTz75pM3pQ5xl9Oeee06TMxYvXjx+/HjNFJx//vnr1q3T5H1Zmr/++uv9FBr7749+9KO1a9dqWpFBe77lWe/x3//7f/eFm0GL7N26XwAAUFGe+BX/U/hAT/41agwCWoWGbA0orAWD2SpYNDzkkEN8iCXF+fPna0IJ2dNamkT5rDlz5mQ/W2jyTGfNmvWFL3xB840YYf+rCUXsWdiDt9n6fRiD/HzLs23Aux0zmJG9W/cLAACqyBO/4n8KH7g392eoMQhoFRqyNeBZzQ1aq/Dss8/+7d/+rQaMGHHppZeWeX+95sknnxwzZoyP/fM///OHH35YExpbu3btaaed5kNMk2e6evXq7BvezTeSX/3qV3/yJ3/yF3/xF4sXL9ZNRQb/+ZZX63bMYEb2bt0vAACoIk/8iv8pfGAI/p9RYxDQKjRka8CzmjvppJPuSXfbbbfVzpAxZVqFW2+9VXMHtWuLS3rppZf+/u//XoNHjPiXf/kXTWgq+9785MmTm4R1W6DmGzFi+vTpurWITbV5rAlpfupRV55vSbQKAACg93niV/xP4QM9+deoMQhoFRqyNeBZrY3KtArn7ft1Q5aDLQ1rWjlTpkzR4NLDf/7zn9fOeDnhhBOef/55TciZNWuWz2Z+8IMf6NacdevWnX322TZPv9G/K8+3JFoFAADQ+zzxK/6n8IGe/GvUGAS0Cg3ZGvCs5gbtUwXL35o7mDBhwrPx+4VKyn5EcPLJJ7/44oua0Fj2NJ7m2TS7Wpo0FStXrvybv/mbL3zhC3PnztVNDXTl+ZZEqwAAAHqfJ37F/xQ+MAT/z6gxCGgVGrI14FnNDdq1CnfffXftDX5zzjnnpF6q20J0rjuN56677tKEnOwJSF//+tcff/xxTdiXX6hgz3f58uW6qYGuPN+SaBUAAEDv88Sv+J/CB3ryr1FjENAqNGRrwLOaG7RWwYLyv/3bv40aNcoC9N/+7d8+8sgjmlBaa9E52wOcf/75hZcr2KJsgZopfAtqo+3Er0A4++yz+8393Xq+ZdAqAACA3ueJX/E/hQ8Mwf8zagwCWoWGbA14VnOD1ioMXGvRee7cubUvQm10ZtHjjz/+9a9/3edxhZcRW5sxefJkm2qPRDd1Eq0CAAAYzjzxK/6n8IGe/GvUGAS0Cg3ZGvCs5qrSKqxbt+6qq67S/aVE5zKXK/g1zWPHjq01FYWXEfuFCn/yJ3/yq1/9Sjd1TMvPtwxaBQAA0Ps88Sv+p/CBnvxr1BgEtAoN2RrwrOZ6sFV45ZVXbGkPPPDAj370o7POOuvwww/P/pKaKx+dy1yu4N81dOONN9p9+Wz2j2XLlmly5El3/PjxqRcoN9fe51sGrQIAAOh9nvgV/1P4QE/+NWoMAlqFhmwNeFZzPdIqWA6eO3fuZZdd9ld/9Vf777+/lht9+ctfPi7Q/ydG5+zlCvkvQn3++edPOOGEr3/964888kitqSj86MDaDJtU5kKFfnX0+faLVgEAAPQ+T/yK/yl8oCf/GjUGAa1CQ7YGPKu57rYKzzzzzI9//OO//uu/zn5ZkP3bFnjRRRfdc889S5cureXyls/db365gufX73znOy+88EK2qcj/EJt//+mtt96q/083OM+3X7QKAACg93niV/xP4QM9+deoMQhoFRqyNeBZzXWlVXjllVd+8YtfWGrPJuY/+qM/+od/+If777+/0W+NtRyds5crfOUrX3n00Uc1IfAvNZoyZYr9O/uTbXWfHviHD61dqDDIz7dftAoAAKD3eeJX/E/hAz3516gxCGgVGrI14FnNDX6rYK+fhWaNDA499NAZM2b0G4Vbjs5NLlewZsB/fXnWrFn2v9mm4m/+5m9Wrlzpsxn/lqS6G8sY/OfbL1oFAADQ+zzxh/Cfxgd68q9RYxDQKjRka8CzmhvMVuHVV1/9yU9+8md/9mcaNmKE/fvHP/7x2rVrNUdTA4nO1113nUbue7nC8uXL7cHXfnPNlmlL9tnqsqx/S9LkyZMLf5mhUBefb3O0CgAAoPd54lf8T+EDPfnXqDEIaBUasjXgWc0NWqtgufnf/u3fspfwjhs3bsGCBZpcwkCic6PLFfzXl/1CBb/Fvw3JZT9/8NvLX6jQ3efbHK0CAADofZ74Ff9T+EBP/jVqDAJahYZsDXhWc4PWKtxzzz3Z7wA95JBDUpPiQKLzsmXLal+EWvsMwfgy/UIF558euNrt1khYO5GUbrv7fJvrVmTv1v0CAIAq8sSv+J/CB3ryr1FjENAqNGRrwLOaG5xW4ZlnnpkwYYLmDlf0WpLWtNIGEp0LL1eo3egXKrhHH330K1/5is9W+7TBL1TIfhzRXNefb3O0CgAAoPd54lf8T+EDPfnXqDEIaBUasjXgWc0NTqvwox/9SLMG55xzTgs/TTDA6Jy9XME/LvCLmLMfMhj/piOfzabaPHajrbTPfe5z559/fskLFXrh+TZBqwAAAHqfJ37F/xQ+MAT/z6gxCGgVGrI14FnNDUKr8Oyzzx511FGadcSIL3zhC3PnztW0FAOMzvnLFWxVWAOQvVDBWDNgLYHPZlN//vOf243+ewuFv/Sc1yPPtwlaBQAA0Ps88Sv+p/CBIfh/Ro1BQKvQkK0Bz2puEFoFv3RYs44YMX78eAvTmpZigNE5f7mCX6mcvVDB+S8tuOuuu27NmjXf/e538z/I0EiPPN8maBUAAEDv88Sv+J/CB3ryr1FjENAqNGRrwLOaG4RWIZu8Tcupd4DRue5yhR//+Mcnnnii/SP/WcGCBQtGjRrls9kQ2+DGjBlT/kKFHnm+TdAqAACA3ueJ39N/Eh/oyb9GjUFAq9CQrQHPam4QWoVs5DVdjM51j8TUXajgVq5c+Td/8zc+w/jx4++8884vfOEL+Q8fGumd59sIrQIAAOh9nvgV/1P4QE/+NWoMAlqFhmwNeFZzQ6NVWLdu3bPPPtvvYrOXK7jCzwpqP+FsbP6xY8faP0peqGB65/k2QqsAAAB6nyd+xf8UPtCTf40ag4BWoSFbA57V3OCfgNSJc/c9g06fPl3/34D/NrMWETT6rMAWpTmCwg8fGumd59tItyJ7t+4XAABUkSd+xf8UPtCTf40ag4BWoSFbA57V3CC0Cg8//PCf//mfa9ZWvxHo1Vdfvfbaa7WIBtG53xe37nIF0+izgrpLk+u+Jam53nm+jXQrsnfrfgEAQBV54lf8T+ED9+b+DDUGAa1CQ7YGPKu5QWgV1q5de+aZZ2rWIPV3BlavXj1lypT9999f43PRedasWSUTefat+iafFdR9/lD+QgXTU8+3EK0CAADofZ74Ff9T+EBP/jVqDAJahYZsDXhWc4PQKpj58+f/xV/8heYOv148Z84cTWvqlVde+c///M+/+qu/slEWjn24qTurx4J1yXOEspcrNPlSo+znD5/73OdSN5veeb6FaBUAAEDv88Sv+J/CB4bg/xk1BgGtQkN1Z+GfffbZSW94u+xvFJhRo0YtWLBA0xq45557LDFrQMi+zZOuheZf/OIXf/d3f2cz/9mf/dm0adPstaulZwviixcv9jmfeOKJww477LTTTlu7dq3f0kT244LmnxXUft25tVDeI8+3ULZfsn/cf//9mtBh3bpfAABQRZ74Ff9T+MAQ/D+jxiCgVSj25JNPTpgwwbOaszg7Y8YMy6maowSb+frrr//c5z6nRQRnnnlmvz87YFH4kEMO0YAQiG05q1ev1uTA+hZ7gX/4wx8eeuihNs/+++9//vnnW2dik1588cWTTz7Zxxqb4bzzzvuHf/gHa1Qsd86aNcuX0Fz244LmX2pUy7V1J/+U1wvPN88eQN0FGyeddJLfY0d1634BAEBFeeIP4T+ND1T0j9QYBLQKn1mzZo3ly3Hjxh122GHZ09+zvvzlL9sM3/nOd5p8V49FZ5vHWOTVsH3Zwu0ubIZbb71VY3L8LPzs2+3m4IMP9iXbP3RT6GEuuOCCp556SiODuhN7nDUtV1xxRfnPRvxyhX4/K7C2asyYMTbnv/zLv+imdF18vvYq+L1kHX744XUPxtVeuzpNXspGunW/AABgiPHEr/ifwgcq+kdqDAJahc/UvTndRPNLDmzVab7+WBbXmAbsId1zzz2TJ08+4ogjsgnSOpa//uu/vuiii+6///6XXnpJc+9r2bJlF154oc1p81vQPPHEE+fNm/fqq69qcgn+cUG/v75sLdZ3v/vdFi5UyOvK881ewN2yfl/KvG7dLwAAGGI88Sv+p/CBIfh/Ro1BQKsAAAAAVJgnfsX/FD5Q0T9SYxDQKgAAAAAV5olf8T+FD1T0j9QYBLQKAAAAQIV54lf8T+EDFf0jNQYBrQIAAABQYZ74Ff9T+EBF/0iNQUCrAAAAAFSYJ37F/xQ+UNE/UmMQ0CoAAAAAFeaJX/E/hQ9U9I/UGAS0CgAAAECFeeJX/E/hAxX9IzUGAa0CAAAAUGGe+BX/U/hARf9IjUFAqwAAAABUmCd+xf8UPlDRP1JjENAqAAAAABXmiV/xP4UPVPSP1BgEtAoAAABAhXniV/xP4QMV/SM1BgGtAgAAAFBhnvgV/1P4QEX/SI1BQKsAAAAAVJgnfsX/FD5Q0T9SYxDQKgAAAAAV5olf8T+FD1T0j9QYBLQKAAAAQIV54lf8T+EDFf0jNQYBrQIAAABQYZ74Ff9T+EBF/0iNQUCrAAAAAFSYJ37F/xQ+UNE/UmMQ0CoAAAAAFeaJX/E/hQ9U9I/UGAS0CgAAAECFeeJX/E/hAxX9IzUGAa0CAAAAUGGe+BX/U/hARf9IjUFAqwAAAABUmCd+xf8UPlDRP1JjENAqAAAAABXmiV/xP4UPVPSP1BgEtAoAAABAhXniV/xP4QMV/SM1BgGtAgAAAFBhnvgV/1P4QEX/SI1BQKsAAAAAVJgnfsX/FD5Q0T9SYxDQKgAAAAAV5olf8T+FD1T0j9QYBLQKAAAAQIV54lf8T+EDFf0jNQYBrQIAAABQYZ74Ff9T+EBF/0iNQUCrAAAAAFSYJ37F/xQ+UNE/UmMQ0CoAAAAAFeaJX/E/hQ9U9I/UGAS0CgAAAECFeeJX/E/hAxX9IzUGAa0CAAAAUGGe+BX/U/hARf9IjUFAqwAAAABUmCd+xf8UPlDRP1JjENAqAAAAABXmiV/xP4UPVPSP1BgEtAoAAABAhXniV/xP4QMV/SM1BgGtAgAAAFBhnvgV/1P4QEX/SI1BQKsAAAAAVJgnfsX/FD5Q0T9SYxDQKgAAAAAV5olf8T+FD1T0j9QYBLQKAAAAQIV54lf8T+EDFf0jNQYBrQIAAABQYZ74Ff9T+EBF/0iNQUCrAAAAAFSYJ37F/xQ+UNE/UmMQ0CoAAAAAFeaJX/E/hQ9U9I/UGAS0CgAAAECFeeJX/E/hAxX9IzUGAa0CAAAAUGGe+BX/U/hARf9IjUFAqwAAAABUmCd+xf8UPlDRP1JjENAqAAAAABXmiV/xP4UPVPSP1BgEtAoAAABAhXniV/xP4QMV/SM1BgGtAgAAAFBhnvgV/1P4QEX/SI1B0KxV0K0AAAAAepUnfsX/FD5Q0T/SQgNaBQAAAKDCPPEr/qfwgYr+kRYa0CoAAAAAFeaJX/E/hQ9U9I+00IBWAQAAAKgwT/yK/yl8oKJ/pIUGtAoAAABAhXniV/xP4QMV/SMtNKBVAAAAACrME7/ifwofqOgfaaEBrQIAAABQYZ74Ff9T+EBF/0gLDWgVAAAAgArzxK/4n8IHKvpHWmhAqwAAAABUmCd+xf8UPlDRP9JCA1oFAAAAoMI88Sv+p/CBiv6RFhrQKgAAAAAV5olf8T+FD1T0j7TQgFYBAAAAqDBP/Ir/KXygon+khQa0CgAAAECFeeJX/E/hAxX9Iy00oFUAAAAAKswTv+J/Ch+o6B9poQGtAgAAAFBhnvgV/1P4QEX/SAsNaBUAAACACvPEr/ifwgcq+kdaaECrAAAAAFSYJ37F/xQ+UNE/0kIDWgUAAACgwjzxK/6n8IGK/pEWGtAqAAAAABXmiV/xP4UPVPSPtNCAVgEAAACoME/8iv8pfKCif6SFBrQKAAAAQIV54lf8T+EDFf0jLTSgVQAAAAAqzBO/4n8KH6joH2mhAa0CAAAAUGGe+BX/U/hARf9ICw1oFQAAAIAK88Sv+J/CByr6R1poQKsAAAAAVJgnfsX/FD5Q0T/SQgNaBQAAAKDCPPEr/qfwgYr+kRYa0CoAAAAAFeaJX/E/hQ9U9I+00IBWAQAAAKgwT/yK/yl8oKJ/pIUGtAoAAABAhXniV/xP4QMV/SMtNKBVAAAAACrME7/ifwofqOgfaaEBrQIAAABQYZ74Ff9T+EBF/0gLDWgVAAAAgArzxK/4n8IHKvpHWmhAqwAAAABUmCd+xf8UPlDRP9JCA1oFAAAAoMI88Sv+p/CBiv6RFhrQKgAAAAAV5olf8T+FD1T0j7TQgFYBAAAAqDBP/Ir/KXygon+khQa0CgAAAECFeeJX/E/hAxX9Iy00oFUAAAAAKswTv+J/Ch+o6B9poQGtAgAAAFBhnvgV/1P4QEX/SAsNaBUAAACACvPEr/ifwgcq+kdaaECrAAAAAFSYJ37F/xQ+UNE/0kIDWgUAAACgwjzxK/6n8IGK/pEWGtAqAAAAABXmiV/xP4UPVPSPtNCAVgEAAACoME/8iv8pfKCif6SFBrQKAAAAQIV54lf8T+EDFf0jLTSgVQAAAAAqzBO/4n8KH6joH2mhAa0CAAAAUGGe+BX/U/hARf9ICw1oFQAAAIAK88Sv+J/CByr6R1po0LVW4eOPP/7e9743YgD222+/cePGnXTSSdddd91jjz22detWLRpAz9i4cePYsWP1R9sB55133s6dO3VnwKef9vX1TZ06VdtHu11//fW2fN0TAPQMT/yK/yl8oKJ/pIUGFW4V8o477rgHH3zQlqz7wIDt2LHjoYcemjhx4gEHHGBr+Bvf+MbNN9+8bds2TR5Ee/bssdA5Y8aM008//bDDDvNX3NgDGz9+vN1ok1566SWbTQMGpneeeNUtWbLEunp/sTrh2GOPHfjbBO+9996NN95or7It0F5xe90fffTRdm1LGGTvvvvuMccc45tHex1++OEbNmzQ3QBAL/HEr/ifwgcq+kdaaNC1VmH79u2XXXbZUYFFPQ9keQceeOCECRN8tqxRo0ZpjpxDDz104cKFHOYHzpLxueeeq9WaYet/3bp1mqnzLLXPmzdv3Lhxuvum7NX/+c9/bkM0uCU98sSHhltuuUWrL8davvDXfJT9jdtfum6N/GNDn8HYvwtbjq9+9atr167VnbXEOkyLgFpcxqWXXkpzWEX9dqd1m1ah7PsRNbfddhsfKQDoTZ74Ff9T+EBF/0gLDXrlWoVnn332oIMO0v44sr35xo0bNUfOzp07169ff/PNNxeGyIsvvvjDDz/UrEhnR8Rp06ZpbeaceuqptmFp1o6xx7BixYrjjjtO9xplG8iDDz5Yt2accsopmzdv1lIS9cITHzK2b98+adIkrbvAUto555zz/PPP79q1SzM1+Izxa1/7moV4zRFY/7969Wp7CTRHtGDBAs2RbuvWrRMnTtSCcoiGlWOvV6Ozj0aNGnXDDTfYMaXfN5Js47RGUcOi8ePHv/HGG5oDAHpMCPxDulWwTGDJQLvkyNJDmbOJbLc+b968/OcMZ5111vvvv6+ZkKj5GWL5GNd29rLeeeed2Y+b7N/XXnut9QB16W3Lli2nn366Zoq+9a1vvf3225ojRdef+FBiL401dVp3gb2m+aBWslVw27Ztq2s/LP9pWrrCPU9NyV0Qekfh2Ue267CNpPxnRMuWLct/zDVjxgxNBoDe44lf8T+FD1T0j7TQYCi0Cm716tVjxozRyMgiBacQtCb/fnDW2LFjm3zgM3DWJ1hXkD2L4KijjmpynsnPfvYzzZdx+eWX7969W3OU1t0nPsQsX7585MiRWneNP5NJahVM3e7CXi971TQt0SuvvHLIIYdoQTlcM105+bOPbFOxG8t/OrRjx44LLrhAg6NvfvOb77zzjuYAgN7jiV/xP4UPVPSPtNBg6LQKZvHixfm3gjiFoGVz5sxpdMqvHUoHeD1Ac7Nmzcre9ejRo1etWqVpRQpbhSOOOOLNN9/UHCm6+MSHmOzrYj2D7ZI0YV+prYJ1gFdddZXmGzFiwoQJW7Zs0bREhbnQ2TZgW4LmQxXkzz4aM2bMmjVrNLmcpUuXZvtbN3v2bE0GgJ7kid/TfxIfqOgfaaHBkGoVCk8w7TdlopH8mR6u5XN7StqwYUPdZaaWC5t8PtDoc4AmWbO5bj3xIcZesksuuUTrbsSI008/vdFHfKmtgnnhhRfsT9vnPOiggwbyN25RMv+BpLn66qttl6KZUAV1Zx/Zy7p69WpNK6dwU5w4cSJfxg2gx3niV/xP4QMV/SMtNBhSrYIpfEOotRNRYGz933DDDdkLBv7+7/++5SuGy+jLXVVsL6i9rJpcxIZcccUVmjvjxBNP/OCDDzRTosF/4kOPrXx7CXzt7bfffvPnz9eEnBZahR07dkyePFmzjhgxd+5cTWjJpk2bsldL2+t+00038fFR5SxatKj2eaD9Y9asWZpQWnYJjg+XAFSCJ37F/xQ+UNE/0kKDodYqFF7TNmbMmPXr12sOpNu2bdszzzzz+OOP5y8pbrutW7eecMIJeuWCMucR5Q/wZuCXIQ7mEx961q5d+9WvftVfC3tNm7wv20KrYGwHV3tf4KqrrtKtrbLX115le63tFW/06Qd62e7duy+//HLfHsyll16a+qGQHSzz36/Fl54BqIQQ+GkVSti5c+d5552n8RkDfNMRg2bVqlV1X5t7yimn9Pu9t3v27Jk9e3YtmPoXnqRuPGgv+6Pzl8PccssturVIa61C9lOLM88886OPPtIEDEtvvfVW7eu2Wvti0/nz5+c/Uli0aJEmA0AP88Sv+J/CByr6R1poMNRaBWMZUeMzfvjDH2oyels2X7rym4E1DFsDTjHvur7MBaajR49+4YUXNKFIa62CmTFjhs/c8iXsGDLef//9u+++e+LEiSNHjmzhlCHbb+R/YaO1YxAADD5P/Ir/KXygon+khQZDsFUo/DIc9vhVkX/5eO2qyFqF995777HHHrsuaH7ef8utwsaNGy+55JL7779/w4YN9Idwn3zySQsbw+zZs7XlRf1eJQUAvcMTv+J/Ch+o6B9poQGtAnrLD3/4Q71mEa/dkNdyqwC0xTvvvPPNb35TW17ENyMDqBBP/Ir/KXygon+khQa0CugttArDEK0Cuit/1DjwwAOXLVumyQDQ8zzxK/6n8IGK/pEWGtAqoLfQKgxDtAroojfeeGP8+PHa7KIWvkAJALrIE7/ifwofqOgfaaHBcGkVLrnkEn5aoRJoFYYhWgV0S19f32233aZtLur3QnwA6DWe+BX/U/hARf9ICw2GYKuQz5rmhhtu0GSk27Vr15IlS04++WRbk0cfffR7772nCR3QU63CYD7x4axHWgXbV86cOfPQQw+1e7ftULcOmIXRDz74wDYeOt4elP9teNP85+F73J49exYsWODH0zZuxgB6nCd+xf8UPlDRP9JCg6HWKmzfvn3SpEkan2G7Ts1Rju1t33zzzblz506ZMuXYY489+OCDtaDA/tdutEk2Q0d/nGvnzp3Lly+fPn36SSeddNhhh+nuw+8GjB8//sILL5w3b97Wxr9s1TL/1tH169fb8i+55JJRo0bpjod6q9DFJ+6sObG/hRkzZpx++unjxo2rfcu7/cP+17btWbNmDb3fg+tWq2B/X/aaPvfcc9YhnHLKKdkf5x54xrKX8u23354/f763muZnP/uZ32795+TJk2t7FdvM7A/cXlnbWftYt2PHjsceeyw754EHHvjtb3/bHu3AN0V7GC+++KLvW7L7N/u33WK321SbR3MPUfZ3VPfb8KYTG57tWDZu3GgvXN3fte/J7e+6tUOJ9TO29dpG4myvdeWVV9ryfeGmbjO25du92MPIvui+b7EH1qF9iz9336dlj2K22R9//PHXXHPN0qVL7S9RcwNolSd+xf8UPlDRP9JCg6HWKmzZsqX2Kzw1Y8eOtV2V5uiPra+bb755zJgxGlzCcccdt2jRojYeVm1n/dprr5177rnZ7NKI7ejPOOOMDRs2aHC6fDpvYuCJ2XKSltVWLWwtg/zEm3vrrbfsMG9ZUPfX1AknnLBixYq2H9S7ZRBaBXvt7BXUoktorVUofCI1d99997Jly4488kj9f46Fp4ceesheVktXCxcu9M83CtmcFg1b2wC2bdtmu7ja7xU2YfPYnLZL1Mghp/C4Y81DG/+yrN/7+c9/no3vTaQeSppvb6a2GdszWrlyZa1rbWTgR5Os8s/d9nu297N9oEYCSBcCP61CCRZDa2/Y1EyePLnMd97ZEfSGG24ozGp2o3UgRwX2j8J5bC+8adMmLWsArNu56KKL8s/C33+yB2D/zbcQ9pDsJbOEoaWkoFUoo3Otgm94+dfU3+1rtMnZ1OnTpw+NL3McJq3Ct7/97cJdR5bNYGHx+uuvz+8B6owZM2bdunW643IadSC1fUv2Td8aa0vuu+++1vYtvWz37t1XXXWVnmR0+OGHtysoWzq3zjB/dpOxVdrkUGINw3PPPaelNFWyVfjwww8vvfTSfreoGnt4lh78Llpjz33FihX2RLTEqLZPs//mH49thzfddNPQ2KcBg88Tv6f/JD7Qk3+NFhoMqVZh165dtkPU4GjkyJG2IjRHY2vXrq3br9lO3Pazq1evLvxsdOvWrXfffXfdY7ajwkDCje1eLUbn18Opp576/PPPZ99qsn/bLXVvEdmed8aMGS18uGGJ0/bdeYW5YeCJefny5bqDInaU0j1F9kLU+rQmLrvssu3bt+s+yhnkJ17INjy7R91HZJuibbTZDc+C2muvvXbeeedpjuif/umfUhukHjQIrYL9wZ555pn++tbJb3KmtVbBtkDbDm2Zhf181pFHHml38YMf/CAfFv/Lf/kv2bHWEkyZMsX2bPnHefnll5c/pd5W8tSpU7P5zP59zjnn1O1bbLZ58+bl24mLL77YEqdmGhJWrVo1evRoPb3otttua8tHCrZKb7zxxro0bK+g7XPeeecdzRT2+daZ/PM//3Pd1mJbhR2C+23PsicgzZ8///jjj9f4yLaxN954I/8r1PZIJk2adPXVV9sMxxxzTD6125qx9aO7SWTP/c4776x7Rna0euKJJ7L7NJvt8ccfz7cTp5xyyubNmzUTgNI88Yfwn8YHevKv0UKDIdUqLFu2LH/ctWNh84XYztr2s3WH4WOPPbbMOUtr1qype9gnnHDCli1bNDmFPYzZs2fXPX57VHbYbnTA2LZtW92FGbbHnzlzZlsOdcaWc/PNN2vRUefeXHd26NI9RambwcAN2hN/8skn67YfO77ecccdjd5Xs4OrHd01a2S3ZKNeFdnr2+lWoYkPPvjgf/yP/6F7jVprFWqafIhhz8sSUu2P2hJePqi5uj//3/zmNyNHjtS04IgjjnjzzTd9anO2rzj33HM1LLCHsWjRokb7CusKrDfQrJFluNZ2bj3I/mTy7ytZg2fBWnMMQOHfafOPnfNvGaTuzAv/iOwAUdcn2MNYsWJF3THltddes0Oe5ohOPfVUSw+aozR77tdee212k7aDmj2RRvso29dZ+1T3J2CrIvUTMwCe+BX/U/hARf9ICw2GTqvw9ttvf+tb39LIaMyYMZbmNUcDS5YsqQvo5d9Qsf349ddfr2FRa+9LLV68ON8n2EuoyQ08++yzBx10kAYEthr7fcrl5U8WGg6tghmEJ24vU90lMdYnzJo1q/nG8/rrr9ed+2vx8ZFHHtHkaupuq2DyW12HWoX8HsmyviV+Tc6wvYHtEzRTkF+mBaynnnpKkxvLJ1d7GMuXL9fkBvLvRBi7xW7XHFVW+L6SX3c+QPmsbM4+++x+P5PJH8JsIbZD0OT+FP4RZR166KELFy5s9MZT/pug7N6tmdTkcmzfZV1B9rnbSn7wwQeb79MKOytbFbZCNAeAEjzxe/pP4gMV/SMtNBgirULhWRz5Y22eHfZOP/10DYhOOOGE3/3ud5qjP3bErXurz4anfitRPjWWzH/2xPOXJyadltAcrUJNe594YWd7991399tkFl64b9twpQPc8GkV8i+x7Svyb+ia/JyFa6nfdJtPb/bv+fPna3JTmzdvrntsSeG1Z+3YseOCCy7QU4q++c1vZk8Naln+TZ8yfYLLHwjyvWUjzVuFMmf1zJgxQ3NH5513XtJ3E+Wfe8k3zmz3ddZZZ2lMZB1Xuw5kwHDgiV/xP4UPVPSPtNCg8q2C7WIKLwm1pT355JOaqbHC+036/Z2NGzeOHTtWI4ODDjoo6SxPywr5c0mnTp3a6BPbrAULFmhARvnTEvpFq1DTxidemFTsSFkm7tumVfc5kknd5HrNMGkVrMfLf8dL4XMvfLuhcM5+WwXbMOrOyE/6HeLZs2drWFT4LKrFDo117+8Ye6aaPAD59+bLZ333yCOP1D22knuGws3DlexV8vuWpENJ/kevk05hWrp0ad0TTzoQA/DE7+k/iQ9U9I+00KCSrUJf+Ekj27NMmTIl/yGysQPta6+9prmbKrxf8/Of/1xz9KcwE1jQ1OT+2HPJ/1ZoyVNmd+/effnll2tMRhszFq1CTRufeP709PLnvOXf+XPlN7keVJhyhl6rcP311+ffYS187rfccosmZxTO2bxVyA8pv6U56wryn2K1JVV3S+FqnDhxYupHwXnWgOWvf0g9H3XHjh2TJ0/W4KDkJzmFz8tYp/H+++9rpqbyn1iWfw/CDkZ1XydV/sMrZ+1Q/hP+wj8ZAIU88Sv+p/CBiv6RFhr0dKvQglGjRs2cObPRVaF51nKceOKJGhyNHDmy3xN5awbYKuTfhTIl9487d+7MfyWO4VOFgevcEy/8EKnk9/maG264QWMy+FRhgAanVSiM9YXPfYBz1tgxoO6d2tS/JouAl1xyiQZHlT7hbdGiRXWNemqobSR//UNr10nnH2GZT3IKN4+kBzCQY1n+CH7MMce8++67mlyOdcgaHA2Bj7CAQeOJ39N/Eh+o6B9pocHQaRWOPPJIaxJaOIDNmjWrbr+cdCAcYKuQf5M46VPXwveYU9NAE7QKNe164oVJpfzlg/nhpoWjck8pTDm0CnXKz+ny70+b5q1FIRuiwdFgvjTtZYfDU089VU8jau2rfuoUru3WLhvbunXrCSecoEVE/X6SU7h5JG3G5TfaOn1FX+8xderU1A8E8ntd29eVP5gCw1wI/MOvVTiwvy/UnzRp0g033PDYY48N5LPjPeFnifwnVO0ezzvvvKRfUhtIq1D4mcYpp5xS/vvLt2zZ8p3vfEcjg1GjRrVx39q5xNzI0G4VCj8ISvoUyFbFP/7jP2pkcMABBwzyX2vbFaYcWoU65ed069evz39ZQvnPS2vyfwtmwYIFmlwpc+bMGUij3sQLL7xQd02IaW0tWcK+4oortIio3zewCjePwWkVCnubuXPnanJphTGg8GQ8AHme+BX/U/hAT/41WmhQ+cuau24grUL+MjJjzY8ml2PHjxkzZhx//PHHHnvsNddc89vf/lYT2oFWoaYtT7zwmzFTv2Zkx44d999//0knnWTd8mWXXbZmzZqqn85bmHJoFeqUn9NZVtNM0dixY8v8XEydwq9ZS91N9YLCc//atXvJnzxzyCGHvPLKK5qcKP/a9XuSYeHmMTitQv5rAFtrSgu/3i119wgMW574Ff9T+EBF/0gLDWgVElgg++CDD5577rmZM2dOmTLFovnBBx+sx7qvkq2C7YU1IKOn3q6jVahpyxO3xeZPH+Jts8KUQ6tQp/yc5v9v735/pKzv/Y/vP8AdbpyEW9wyxhubhjQGAyFl44YaIQqJGL0BQaMx3Vg8Bj1W0XgqRwocRYKN5diNleqKrUUh5dhKsaBiDQKnpXKWHi2wWlBA5RCK/MiyfL/vfj6vz5yLa66Zva7PzM7ONTwfNwzudV3v+XXNzOs1c81M5ivTcftw5oNzX19f0R9HH3fV3+ZkiXbXrl1a3IDMm+aWW26x5wutUVB1+Dbr16/X4iyZ56E1VcHOmNYO4u68mWfAnmcbOWoAuHL4xK/4X4TfUNE/0FCHqjAKOwP2qP3MM8/MmTOn+itZa8lTFTKfy+NejBk7VIWKplzw6udUE/FOfYfJTDlUhZT8a5rTp08vWLBAKwVxd6XMB+dCx0m2g+PHj990000698GSJUvyfwdGHZnvFjbywPXJJ598+9vf1qCg/uvrmbtHC6pC5gff4x4tM89AE7+lA+hsPvEr/hfhN1T0DzTUoSpkO3ny5IYNG+bOnVv9GnCFLZoxY8aiRYuqD1HNUxUyH9lbGY/yoCpUNOWCV186k2dv6Wzjfl/ovKqQeQbi7kqZD85j/TjQdJlfINGs7w3LPJS0kV0o8+arX88yd49C5yH/TpuUebpxu0fmGWi350SgbfnEr/hfhN9Q0T/QUIeqcJmRkZG9e/cuXLiwVkP4zne+Yw++27dvP3HihP+F/MxHtzzhL/Mzzb29vTZZa7QBqkJF4xc88zPN3d3dBw4c0BpXqsy0QVVIyb+myXxEHfWLIjLNmDGj+vGwXK/1Vv86mCn0U3T1VT9cmEZ2ocz9p/5DUObuUeg85N9pkzK3mjhxol3h2oFys02q37ov+zdBAy3jE7/ifxF+Q0X/QEMdqsL/OXz4cPX36Hlz5szZsGFD5hGTmQ+UeapCxJNB61EVKhq/4JnP5bxmZsb9mrlCqkITlWi/vZT1M5eFvpN6VFQFrT028jyfAvCJX/G/CL+hon+goQ5V4R9GRkbs8lb/8POECRPuuOOOgwcP1vmGmcwHSqpCNKrCFWjcrxmqQlEl2m8zf+Zy+fLlEb94UAtVQWuPDaoCkIdP/Ir/RfgNffKv0FCHqvCPX+NftWpV9Tvs11577fvvv1+nJHiZD5RUhWhUhSvQuF8zV0hVGJe70viyB/DqXwebOnXqoUOHtEYzUBW0dlD/rAIYCz7xK/4X4TdU9A801LnSq4I9kQwMDFT3hNmzZ+f8AvLMB8o8VSHzkb2Rr+IeC1SFiqZc8OpLZ/veBx98oMVXqsz7AlUhJf+apunfyVNSmc8sa9asGfU1oELsLlz9JNLILpS5/9T/2tDM3aPQeci/0yZlftfWWD9NAKjmE7/ifxF+Q0X/QEOdK70q7Nixo/q4oxkzZvz1r3/VGqPJfHjNUxXOnTvX19enDYJWxqM8qAoVTbngy5cv17iEPHtLZ8tMOVSFlPxrmswz0Mg3/ZfRxYsXH3vsMV34YPr06YcPH9YaTZL5/NXILpT5Y2T1Hwkzd48WVIXM0437sT8AjfCJX/G/CL+hon+goc4VXRUyf7xz0qRJb7/9ttbIIfPhNWf4qw4opq2CI1WhoikX3J53NS5h1CfjjpeZNqgKKfnXNJkrj/Wdt93s27ev+pusn3/++aJvKZxx9D9Z7Klk9uzZOoGgkQeuiO6ReYsX2o3z77Qp1XefVt55AXg+8Sv+F+E3VPQPNNS5oqvCtm3bqt81XrRoUf1nhZTMh9eccf/VV1/VBgn2Ry2OMjQ01N/fX+gi1EFVqGjKBc88UGH58uVaHMViyk9+8pO2+o7dojJTDlUhJf+aXvVbWFdUgBseHn7kkUd0yYPe3t7PP/9ca+S2efPmiRMn3nfffR999JH/juyUzO9BbuRnhjMfKOr/VmPm7tGaqpD5RJbzSRBAs/jEr/hfhN9Q0T/QUOfKrQqZvzFp8jwyJjVSFTJ/vf/xxx9v5DjajRs32pDu7u5XXnml8R8ipSpUNOWCW5GbNm2aJgZ33XXXN998ozWK27Vrl+1FkydPXr16dbMqYotlphyqQkr+NT1LllopwZ4VtLg4q6OfffZZc4/yHzu7d++uPri06MO7sUfRxYsXa/uuri1btmjB5fwDb1IjHzyz86kpwah3h8zdozVVIfOJbP369VpcnD2O/c///E9mKwNQi0/8Pv0X4jdU9A801Llyq0LmL6CZoq+FNFIVvvzyyxtuuEHbBPPmzYt+LcoeYRctWuTnNOVbPqgKFU254JlP543cUsmjse3Z2mqDFpRK5tVCVUjJv6ZnO5XtWlovsD6pxcXZaU2YMOGhhx5q/7ewUvneu+mmm44fP641cktejXX2ycxr256DtbiIzJexRn0YzNw9WlMV7AnLnra0QXD//fdfuHBBaxRkD7+2py1cuLDpnyoBOphP/D79F+I3VPQPNNS5cqtC5sOiaWVVuHTp0rJly7RN0Ejg8y8w+zn2TMm7CtHG7oLbU68mJmzcuFGLC0oGlEZK5vjKTDlUhZT8a3qZcTn6k83JlyFmzpz5t7/9TQvakj35pV7ntui5adMmLS6iv79fI7q6FixYcPr0aS24XOZHqO3hPeJNmM8//7z6M82jPkRk7h6tqQp2Gau/kTb6k83Ja5Kfagby84nfp/9C/IaK/oGGOlSFtOZWhb///e+2grEMl/l2ajLcV9gDpT1cao3cLBksWbLET4h+XkyhKlQ064JnvvpY9BMynj1Dr1mzRiPG4CsgWyYz5VAVUvKvWVH9cSx7tLEnBi0uIjmqkReMWyDzipo/f35EkT5+/PhNN92kEaO9J1N9yFPcRyOqb7U8rwJkXurWVAWzf//+6k+Q59w2JTnqSvvOLqARPvH79F+I31DRP9BQ58qtCvbIW/2dFab+R8eqZT68VqpCJYLU+ohb5it/9kAZ8VLK22+/XWkdzXqBmapQ0awLnvkKnCWDt956S2vkNjg4WLnXWP2wEqIFZZOZcqgKKfnXrLAHgeovebv77ruL9lJ7Flm4cKHf3B5k2vw4N7srpaJ23P3L2NWrEW5I5YE9U+YHqYu+YVh9K+c885m7R8uqQvKFqgp71vviiy+0Rj6p6zD67VbgCuQTv+J/EX5DRf9AQ50rtypkfmeFKfqWcc6qUOeyZH78rujTuaXGymvV9tTSlLcUDFWhookX/PDhw9OnT9fcoOjT6rFjx26++WZtXOa3FExmyqEqpORfMyn5CoJnjw8DAwP59xZb8/nnn9fGXV2WCBs/snHs2BNepdVU2F/s71ojt9T9dObMmUePHtWyGo4cOdLT06MNnKL36+qek/MKz9w9WlYVTPKVi4oVK1ZY+tcaOSQvftwbQcAVywV+qkKzZX5ZaqG3jC3N22Nx9RBfFZKP3XXesrdn4uRhJBX5H2RTqfHee+9t1vVGVaho7gW3Lle92/T19eXsh7Za8vf75s2bx5elNqKDq4I9htgjidYOJk6cuGHDhjxtwdZ58803K69lTJ061RKhlrWl6ntW3DFXqbuYyXnYVfXPeua/X1c3DXtgt4d3La4rc/doZVWwXcUqaOrKt/9dtWpVzieyPXv2VF7wsuvQrkktAJCDT/w+/RfiN1T0DzTUuaKrgj1833333TqxhDwv0I6MjPzud7+79tprtc3ltm7dauscPXp05syZ/i/1D3KtflryfvCDH9T6FF3FgQMHZs2apQ26uuyZxp5vtKxhVIWK5l7wzABnFixYMOprkLaCraYNYg9XayuZKYeqkJJ/zZTMhxfLcE899VT9e9b58+dfeOEF6xWVTZr1duUYyTzgKuIBxNb/13/9V20f5DwYJjMx27RRz4O1/eT92hQqZpm7Ryurgqn1sPbAAw98/fXXWimLPZ9u2bLl6quv1gYlf5sUGBc+8Sv+F+E3VPQPNNRp66rQgo80JY/bqaj/eoY9ftlWyfe4U+/vG/+V0pXXt+y//n2GOqwSfO973/ObJ1kbsSceuxW1XsLx48dXrVpVeSI3dlk++ugjLW4G6zwaHeR5F74RbVIVWnDBLYdV/0iWsefLtWvXZn6ro+0GFt2ST6i2r7799ttlf0795ptv7rrrLl2koGVffpL53ZT2l4ivFqjIn7oyL3v+qrBu3TotrsuCWubLIjNmzLCIVn3/ssz37rvvJr8B0x7Enn322ZwvD48Xu950dgO7g+zevVuL87Eqfuedd2r7oFBxtWvJrqtUW7C2Vuetv4MHDyavbWMP5nv27NHiHMaoKhT9eQQ7G9Uty3R3d7/44ovVT2RWEuw564477kheXY888kjO92EAVPwj73dwVbCg89JLL+lBIqE1b0H+4Q9/qG4plr9/8pOf2HWnldyZtEfSDRs2zJkzRyu5p09Ldb/4xS/0/4Hl+yVLllQiXc4PGduD46OPPpp6gqm47rrr7MlmhfPggw/a/2pBYJfCLotmNYM94VV/l6udvTfffHOMsqldw3PnztUpBXa5/vznP2uNlmjZBbcTeu6555JlL2nKlCmLFi3yt/jSpUuvv/761L5hd5CNGzeWvSeYzKOcjd25WpBNLRpWf8NBT0/Pp59+qjWKy/yeq6effrr6xvrb3/5meV1rBBaVqi949dEp5l/+5V9yXkV1Hl7sj7Z32T5me9qTTz5566232q6lZY6tkP8wkvGS+rYiL/8nK+ymsT3hqaeeSl12r87XpGayBGzPoalR9oxgVT/5XOBPNPWKj7GnjKLfNJp5Jyr0SYm9e/dWf4uR9dhCF9zUf1izZy57/vIPa/b4lnzhw7vvvvvoCUAEn/gV/4vwG/rkX6GhzrhVhYMHD9oT0izHnikzn8CM/d2W+tXsee7cuXPavqmqX9GpsMc1O2l7hq5+4LM+8P7779tjfea73hV2EfJ/+Ub945rqsPNvl0JTCrJA5q/hFIuqmn655I2Skv9lsMwTrX7a8OzKt5tAK13O9qJyXfAU23/sGTrZP3OaPn367t27q6NnKWzatElXXI07V4XdFlqvsUcAu5Na6NGghN7e3sxoaOzvtlTrJdicWs3fn0qdmf7xxC5+5fzU2uf9mraL5l9TZ6K2uIcXuyz2dGDbakq7Sv4AQkVy/6mjzk3mxf103R//+MfMu7Y/V5knaveF/D+7XnkazbMbZ+639sD1j8tf925oO55fJ/8dMO5hzR5gbTdu5w/NA+3MJ37F/yL8hj75V2ioM25VIfOIo/rG9EAUe3j61a9+Vf3yXiZbza6f5Jn5+OOP7ZFUixPswTfnxweTbLLNz39mtmzZ0sjDa/UxP9FGPc6qolknantR9BHt43LBMw0PD2/bti3nM6t/K7/UL7xVHyiSRyOPAJkHV8SxOTZNcy+X81Ts4udc03bR/GvqTIwm/8OLPXw99NBDjby70jKZb7k0i0XY6Dt4/rt2xLVd6Gk0c7+t/lBWHUXvgPkvu13Dd9xxx+DgYElf+wDagU/8iv9F+A3/kfsTNNShKlxmZGTEzti6detuu+226xJH+PiXkxctWtTf3z80NJT5AptFt4GBgRtuuMFWtk2mTJny6KOPNvK79Pag+cUXX1jT6OvrS73kY+et/pkphKrQuAarQsXJkyet+D344IOplwltd7J9cu3atf/93//d5seB5EFVyF8A8q+pM5GPPbx89tln9pCVenixf9j/2h5o+6E9eWjt9maXJfNL5Jql8c8pJR/M7anEP0cYu4/feOONdtvZA0hE+W/zqlBx/PjxzZs3px7W/LOqXSF2tWR+NAtAIT7xK/4X4TdU9A801GmXjzUDAAAAiOATv+J/EX5DRf9AQx2qAgAAAFBiPvEr/hfhN1T0DzTUoSoAAAAAJeYTv+J/EX5DRf9AQx2qAgAAAFBiPvEr/hfhN1T0DzTUoSoAAAAAJeYTv+J/EX5DRf9AQx2qAgAAAFBiPvEr/hfhN1T0DzTUoSoAAAAAJeYTv+J/EX5DRf9AQx2qAgAAAFBiPvEr/hfhN1T0DzTUoSoAAAAAJeYTv+J/EX5DRf9AQx2qAgAAAFBiPvEr/hfhN1T0DzTUoSoAAAAAJeYTv+J/EX5DRf9AQx2qAgAAAFBiPvEr/hfhN1T0DzTUoSoAAAAAJeYTv+J/EX5DRf9AQx2qAgAAAFBiPvEr/hfhN1T0DzTUoSoAAAAAJeYTv+J/EX5DRf9AQx2qAgAAAFBiPvEr/hfhN1T0DzTUoSoAAAAAJeYTv+J/EX5DRf9AQx2qAgAAAFBiPvEr/hfhN1T0DzTUoSoAAAAAJeYTv+J/EX5DRf9AQx2qAgAAAFBiPvEr/hfhN1T0DzTUoSoAAAAAJeYTv+J/EX5DRf9AQx2qAgAAAFBiPvEr/hfhN1T0DzTUoSoAAAAAJeYTv+J/EX5DRf9AQx2qAgAAAFBiPvEr/hfhN1T0DzTUoSoAAAAAJeYTv+J/EX5DRf9AQx2qAgAAAFBiPvEr/hfhN1T0DzTUoSoAAAAAJeYTv+J/EX5DRf9AQx2qAgAAAFBiPvEr/hfhN1T0DzTUoSoAAAAAJeYTv+J/EX5DRf9AQx2qAgAAAFBiPvEr/hfhN1T0DzTUoSoAAAAAJeYTv+J/EX5DRf9AQx2qAgAAAFBiPvEr/hfhN1T0DzTUoSoAAAAAJeYTv+J/EX5DRf9AQx2qAgAAAFBiPvEr/hfhN1T0DzTUoSoAAAAAJeYTv+J/EX5DRf9AQx2qAgAAAFBiPvEr/hfhN1T0DzTUoSoAAAAAJeYTv+J/EX5DRf9AQx2qAgAAAFBiPvEr/hfhN1T0DzTUoSoAAAAAJeYTv+J/EX5DRf9AQx2qAgAAAFBiPvEr/hfhN1T0DzTUoSoAAAAAJeYTv+J/EX5DRf9AQx2qAgAAAFBiPvEr/hfhN1T0DzTUoSoAAAAAJeYTv+J/EX5DRf9AQx2qAgAAAFBiPvEr/hfhN1T0DzTUoSoAAAAAJeYTv+J/EX5DRf9AQx2qAgAAAFBiPvEr/hfhN1T0DzTUoSoAAAAAJeYTv+J/EX5DRf9AQx2qAgAAAFBiPvEr/hfhN1T0DzTUoSoAAAAAJeYTv+J/EX5DRf9AQx2qAgAAAFBiPvEr/hfhN1T0DzTUoSoAAAAAJeYTv+J/EX5DRf9AQx2qAgAAAFBiPvEr/hfhN1T0DzTUoSoAAAAAJeYTv+J/EX5DRf9AQx2qAgAAAFBiPvEr/hfhN1T0DzTUoSoAAAAAJeYTv+J/EX5DRf9AQx2qAgAAAFBiPvEr/hfhN1T0DzTUoSoAAAAAJeYTv+J/EX5DRf9AQx2qAgAAAFBiPvEr/hfhN1T0DzTUoSoAAAAAJeYTv+J/EX5DRf9AQx2qAgAAAFBiPvEr/hfhN1T0DzTUoSoAAAAAJeYTv+J/EX5DRf9AQx2qAgAAAFBiPvEr/hfhN1T0DzTUoSoAAAAAJeYTv+J/EX5DRf9AQx2qAgAAAFBiPvEr/hfhN1T0DzTUoSoAAAAAJeYTv+J/EX5DRf9AQx2qAgAAAFBiPvEr/hfhN1T0DzTUoSoAAAAAJeYTv+J/EX5DRf9AQx2qAgAAAFBiPvEr/hfhN1T0DzTUoSoAAAAAJeYTv+J/EX5DRf9AQx2qAgAAAFBiPvEr/hfhN1T0DzTUoSoAAAAAJeYTv+J/EX5DRf9AQx2qAgAAAFBiPvEr/hfhN1T0DzTUoSoAAAAAJeYTv+J/EX5DRf9AQx2qAgAAAFBiPvEr/hfhN1T0DzTUoSoAAAAAJeYTv+J/EX5DRf9AQx2qAgAAAFBiPvEr/hfhN1T0DzTUoSoAAAAAJeYTv+J/EX5DRf9AQx2qAgAAAFBiPvEr/hfhN1T0DzTUoSoAAAAAJeYTv+J/EX5DRf9AQx2qAgAAAFBiPvEr/hfhN1T0DzTUoSoAAAAAJeYTv+J/EX5DRf9AQx2qAgAAAFBiPvEr/hfhN1T0DzTUoSoAAAAAJeYTv+J/EX5DRf9AQx2qAgAAAFBiPvEr/hfhN1T0DzTUoSoAAAAAJeYTv+J/EX5DRf9AQx2qAgAAAFBiPvEr/hfhN1T0DzTUoSoAAAAAJeYTv+J/EX5DRf9AQx2qAgAAAFBiPvEr/hfhN1T0DzTUoSoAAAAAJeYTv+J/EX5DRf9AQx2qAgAAAFBiPvEr/hfhN1T0DzTUoSoAAAAAJeYTv+J/EX5DRf9AQx2qAgAAAFBiPvEr/hfhN1T0DzTUoSoAAAAAJeYTv+J/EX5DRf9AQx2qAgAAAFBiPvEr/hfhN1T0DzTUoSoAAAAAJeYTv+J/EX5DRf9AQx2qAgobHh7eunXrjTfe+Je//EV/AgAAwDjxiV/xvwi/oaJ/oKEOVSHeyMiIZeX+/v5FixbNmDFjwoQJXc6UKVNuu+22devWffbZZ5cuXdLazrFjx9599139T9nY5R0aGlqzZk13d7ddzG9961tUBQAAgHHnE7/ifxF+Q0X/QEMdqkIMu06fe+45n5i9q6++epbT09MzceJE/bWr6/rrr3/mmWe2OStXrrRNHn/88VR/aCsXL1784x//uD3h9ddff/LJJ2+99dbJkyfrUjlUBQAAgHbgE7/ifxF+Q0X/QEMdqkIx58+fHxgYsGLg4/KMGTMsSZ88eVKLHWsCX331la1mS/1qSQsWLDh9+rRWbT9nz5695557dF7ramVVOHPmzJo1a/zVPmfOnN///vcjIyNa1ip2s3722Wfr1q277bbbpkyZ4q8EY/+eO3eu9cBdu3ZduHBBa6MM2mG/AgCgcT7xK/4X4TdU9A801KEqFPDFF1/ceeedPiBOnDjxhRdesOagZVlSvcKbNm3a0NCQ1mg/1e8qeNu2bfvhD3+YfMOkZVXh2LFj8+fP16k6EyZMeO655+ysao0xZvHxvffemzdvnk6+q+u6667LfBPJbms7Y1a3tCXa2LjvVwAANItP/Ir/RfgNFf0DDXWoCnl9/PHHFg19pLBEaOk553FE+/fvnz59ut/QWBz54IMPtKxsNm7cqIvRwqrQ39+vk0y45ppr7IrVGmPpxIkTfX19/kRvv/126wyptw5sNzhy5EhlHWMB1GKoFqNdje9+BQBAE/nEr/hfhN9Q0T/QUIeqkItl4krcnzx58o4dO7Qgn8HBwalTp/rNzfr167WgbA4cOFD5hEbLqsITTzzhTzFl586dWmPM7N2719/udqPbPaLO0SnWFnp6evwZM9YWUoelod2M434FAEBz+cSv+F+E39An/woNdagKozt27NjNN9+sHNHV9fzzz0d8LtnaReVjwQ8//HBJD3KwbmANwV+KllWF1atX+1NMuuqqq/bt26c1xkal4E2aNOl3v/td/Ru9+jMeGzdu1DK0pfHarwAAaDqf+BX/i/AbKvoHGupQFUZhEfDee+9VjujqWrhwoV2hWlaEdYNVq1b5IbfccsupU6e0oFTGpSp8/PHHyfdkvEceeWR4eFhrjIFkP8xzWt98881dd93l1/fuv/9+PuXczsZlvwIAYCz4xK/4X4TfUNE/0FCHqjCKDRs2VH4wYdKkSXadakFxX3zxxezZs23Ot7/97U8++UR/LZVxqQrmwIEDlQ+K2M3x6KOPnjlzRsvGwKVLl9asWeNPzm70Xbt2aUFtdoPazeo38fr6+s6dO6fFaEst3q8AABgjPvH79F+I31DRP9BQh6pQz+HDh5OfSL7nnnsa/HKbl19+2Y+y20Z/KpXxqgpmeHj4T3/607vvvmuNK+IAsEI+//zz3t5efzFzvgV08uRJ3wMrnn32WS1DG2vlfgUAwBjxid+n/0L8hor+gYY6VIWaLl68uHz5cuU+96Ljtm3btCxWJYOuW7dOfyqVcawKrbR161Z/GU3On8yzdV5//fXKF+PyJUgAAKBlfOJX/C/Cb6joH2ioQ1WoKRmLzbx585rynTZWEmxaSQ9kv0KqQvIDr4VKnd2mX3311alTp3h9GgAAtIxP/Ir/RfgNFf0DDXWoCtks6j399NNKi479b1Py3/79+6+55prZs2eX8cs0r4SqcO7cueSPJLz88staAAAA0JZ84lf8L8JvqOgfaKhDVciWPFrdTJo0ac+ePVrWmLNnz/7zP//zihUr/vd//1d/Ko8roSqkvvaUqgAAANqcT/yK/0X4DRX9Aw11qArZNm/erKjo3HDDDV9++aWWXcGuhKrw1Vdfffe73/WX0VAVAABAm/OJX/G/CL+hon+goQ5VIcOFCxfuv/9+RUWnvD+a1lxUBQAAgHbjE380Rf9AQx2qQoajR4/OnDlTUdF59dVXtezKRlUAAABoN4r8sRT9Aw11qAoZdu7cOSH87Jpp4gcVyo6qAAAA0G4U+WMp+gca6lAVMvjvM62YNm3a0NCQll3Zxrcq2K48MDBw4403junpXjlV4cKFC4cOHfr5z38+Z84cu8h2wbVgbFy6dGnv3r12WlbF9af20Jr9CgCAseMCfzxF/0BDHapCWvUHFdrhi01HRkasrlig6evr6+3tnTx5ss5cV5f92/5if9+wYcNY/+JsK6uCXZBTp04dO3bs3XffXbt27dy5c/1bPWN9uuNYFWzf27Vr1xNPPGGxtXITT5w4saen5+GHH96+ffuZM2e0am6nT59+7733bFuvv7//ySefvO2226677jo/36tfFc6ePWvbLl68eMqUKX59+4f97x/+8AfbM7XS5ZKn+/rrry9dunTq1Kl+28yqcPz4cTtvdsYqP2Nn/7Ab/Zlnnjl8+HAT9+px2a/a5P4LAOhUivyxFP0DDXWoCmnWCqwb6GncueeeeywqaXHLWYB79tlnu7u7dW4cy3mzgurM9/vf/75WgGvQmFYFC+V+cn1NOV2L4xrXJA02CruVn3rqqWSCtKDsb99KdDZWG+677z6Lztosh+RNVketqnD+/PlXXnkltfsl3XnnnSdOnNDaCXVON1UV7OLce++9yUP+qi1cuLDQpU5q5X5Vra3uvwCATqXIH0vRP9BQh6qQNjQ0NG3aND1vOxYrtay1rJ+sWbPGx0cLUpaWtm/fbk2m+nVH/5rlypUrK1mzVoBrUDL/NT1abdq0Sekpoaenx/KxP0WvKae7du1anUCV1ClOmTJFC+qyM6/RBdlt99prryVfSrfzdvz4cS127EZ//fXXZ8yY4dexs7d69eqc9TX1roK3ZcuW22+/3U/zMqvCwYMH582b51ewXet73/veihUrrDmnbpG+vr7qtzsqp7t161bbUKs6lapgPeSFF16oTLOd/Prrr1+6dKmdiv33O9/5jv+7Z9fMO++84zcspJX7VVIb3n8BAJ1KkT+Won+goQ5VIe3AgQOplwDHpSpYdKiktKlTp3744Yd5jkz46KOPKod53HzzzceOHdOCJhnTqlCLZaZFixb5EzVjfbqWmC0368TG+AAkS5PLli2rvKD+wAMP1AmIFqx//OMfVwLuggULGkmTFu7vvvtuP8qkqoLtbJZrfYGx/w4MDNipVxY999xzfivPzv+2bdv80kyp+5SvCtYlvv/97/u/2NIXX3zRHqr8+p6d0Mcff1y5Fxjbt+0vWtywMd2v2vP+CwDoVD7xR1P0DzTUoSqkWY7xT9UVrTxa3bPIMn36dH/qlmAGBwe1IIfk4RYWQ4eHh7WgGcalKhi7USp5umOqgoX1Rx55xJ+KXbpnn3121BvL4uabb75Zee15/vz5jaTJ9evX+zkmWRXsVDZu3OhPpa+vr7qQvPPOO36rivrXUnK3MXZr2kyrOvZvu+D//u//XuczGHYBLTT7DY1dY03cpcdov7I57Xn/BQB0KkX+WIr+gYY6VIW0ojGo6U6ePGkRUKfd1fX000/neT2yIvmjENdcc83+/fu1oBmSmW+sI3tSK0+3NVXBIuCKFSt0Gl1d9u+codB2hoGBgUrAzTz4J6dkKk1WhR07dlhPsJNYu3Zt5c2EpOSGXv1rKXnzGXts8Xu4/dHC+qi79+7duyvtqLm79FjsV+18/wUAdCpF/lg++VdoqENVSCsag5pu8+bNOmGn6KmnvsFp3bp1WtAMrYzsSa083dZUhU2bNkXH/VTNeOmllwqF0Yrkrl6pCoODg1OnTrXzZmNrfbg2+WK8GTXRJm8+M2nSJPvv9OnTc+bgs2fP3nPPPX5b08RbZCz2q3a+/wIAOpUifyxF/0BDHapCWjI/eWMUFmtJfTmP5QZLD1qWz+rVq7Vx1OZ1tDKyJ7XydFtQFQ4fPpw8QCXi4hw5cqSnp8dPsKS+b98+LSgiuav7quCP9rEaUP9oKFu0atUq3xYmTpy4YcOG+l0lefN51kYKHZaT/KmTJu7SY7FftfP9FwDQqRT5Yyn6BxrqUBXSxr0qLF++XCfsWHQ7WfBXHZIXobnf9DoW0SqPVp7uWFcFy9mVjyiYogeoVPT392tE7K2cqgpHjx5dsmSJ/TvnIfJ2inZd5QmyyZvPTJ48eceOHVqWT/KwwFtuueXUqVNa0Jix2K/a+f4LAOhUivyxFP0DDXWoCmnJ52mv6WGxvm3btiWP7njssccuXryoZfmMXdRoZWRPauXpjnVVaNaR94cOHap8W86kSZMivkg0uZ/YRf6P//gP2/HG4ot3kjefiThiamfiywb8GyBa0Jix2K/a+f4LAOhUivyxFP0DDXWoCmnJ52mv6WGxvuHh4Q0bNnR3d1vgmD9/fsS3Q45d1GhlZE9q5emOaVWw1GjZUaMbu3UuXH5Q++LFizM/glxHcj+xne2f/umfrMNYk9Hi5knefMZyvxbklqwKTdwBxmK/auf7LwCgUynyx1L0DzTUoSqkJZ+nveaGxRYYu6gxFtEqj1ae7phWheRbAWb9+vVaECV5Q0dcLdW7+qpVq4q+BJ5H8uYznV0VGjd2918AQKdS5I+l6B9oqENVSBv3L0tt0PDw8E9/+lOddapCcWNaFZJfjzNp0qQ9e/ZoQRTb3H+bkFf0rKaqQk9Pz5EjR7SsqZI3n6Eq1DGm918AQKdS5I+l6B9oqENVSEuGEm9cfq05j5GREcu1H374YX9//4MPPtjb21s5CL6CqlDU2FWFixcvPvzww5rb1TVt2rShoSEti2Kb2xCN6+qy4YXeE0hVheaWoqTkzWeoCl7r778AgE6lyB9L0T/QUIeqkJZ6pda0VVWw3GDn8JlnnpkzZ87EiRN1FoMpU6bc5uj/qQrFjV1VOHXq1C233KK5zfh47smTJ2fPnq1xxb8aKFkVZs6cefToUS1otuTNZ67kqjC+918AQKdS5I+l6B9oqENVSEvFGtMOz9bHjx8fGBiYO3du8stV7N833HDDypUrt2/ffuzYscoXXCYjIFWhqLGrCqk3ARq/aWxzG6Jxxd+mSO4njfeWOlL3qSuwKrTJ/RcA0KkU+WMp+gca6lAV0lJJ0SxYsOD06dNa3FojIyN79+5duHBhMmFMnjx56dKlu3btqvWV9lSFRoxdVUheCtP0qlD0mqEqJM9YE8dWtNv9FwDQqRT5Yyn6BxrqUBXSrBVYN9ATtdPb23vixAktbqHDhw9byNCZcGbMmLFly5ZRowNVoRFUhaZLXfArpCq04f0XANCpFPljKfoHGupQFdJSnz013d3dBw4c0OKWuHTp0m9+85urr75a56Cry/49MDCQ84vzqQqNoCo0XeqCd3xVaNv7LwCgUynyx1L0DzTUoSpkWL9+vZ6og4ifwo1mOWPDhg3JjzzOmjWrUFehKjSCqtB0qQve2VWhne+/AIBOpcgfS9E/0FCHqpDhgw8+SB5bbNatW6dlDbMn/gceeOCVV16p9RLjjh07kt+ZOH369KIJhqrQiLGrCp988sm3v/1tzR2DqmDD7SS0LAeqwljsV+18/wUAdCpF/liK/oGGOlSFDEePHp05c6aeq52+vr5z585pcWP88Fqffzh+/PhNN92kU3WfgLTkoWW5URUaMXZVIfXdpnfdddc333yjZVFSn6spGvepCk3fr9r8/gsA6FSK/LEU/QMNdagKGS5cuHD//ffrudpp4rfOb9261QbW+rWs/v5+f4reY489VuhHtTyqQiPGripY27TOqbnNSOeps1q00FIVmr5ftfn9FwDQqRT5Yyn6BxrqUBWybd68Wc/VgUV8LWuA5QZLDzbN5utPCSdPnpw3b54/OTNp0qQ9e/ZoWRFUhUaMXVUw69at09xmXJADBw50d3drXPHD5KgKzd2v2v/+CwDoVIr8sRT9Aw11qArZqo9BinuBMOXQoUNTp07t7e39/PPP9aeEffv2XXXVVTq9rq7Zs2db+NCyIqgKjRjTqpD6LfAGPy7v36HyIoIpVaG5+1X7338BAJ1KkT+Won+goQ5VIdulS5eefvppPV07FvEt6GtxlMpM+6/9W39NSL2VEZ0SqAqNGNOqcObMmUWLFml0V9fq1au1IIptrkFdXbfccsupU6e0IB+qQnP3q/a//wIAOpUifyxF/0BDHapCTal8Y/r7+7UsyuDgoA2sk0iSEcFQFSpaebpjWhXMxo0bNToq31ekDneJOJ/J/YSq0PjY9r//AgA6lSJ/LEX/QEMdqkJNly5dWrNmjZ6xnZ6eniNHjmhxQWfOnPEfabWZmW8pmBZEjeHhYYuY0eGjudEqv1ae7lhXBbv+58+f74dPmjRp165dWlDQtm3bKl/pe9NNNx0/flwLckvuJ1SFxse2//0XANCpFPljKfoHGupQFeo5duzYzTffrCdtZ8WKFfZsrcW52Sa2oW1u02ym/loldQDDWBzr7LPRq6++qv8vqLnRKr9Wnu5YVwXz9ttvVz6xEBcoz58/v3jxYj/BCsNbb72lBUVQFZq7X7X//RcA0KkU+WMp+gca6lAVRmEZJfmDShbLXn/99VpvC2SylQcGBmzDUb9kff/+/ddcc41OKfYbVOzkfvazn2lEjagRkdW85kar/Fp5ui2oCpXqaGzH2LRpkxbkZt2g8pZCXH01VIXm7lftf/8FAHQqRf5Yiv6BhjpUhVHYM/fGjRuTbcH+/eabb+ZsC5bh+vv7LdUZKwz1tzp//vySJUt0Mk7Rr106c+bM6tWrJ06cqO2rosY777wTl2C85kar/Fp5ui2oCqZyQJqZOnXq4OCgFuRgK9smflsbYqO0oCCqQnP3q/a//wIAOpUifyxF/0BDHarC6Krbgj2X2zP6qBHt8OHDCxcutPWtJ6xatSrPS7/JFGjsRHfv3q1ldY2MjLz33ntz5syxrSoHt5jUURB2tqdNmzY0NKT/L6i50Sq/Vp5ua6qCSR7eZjf6Rx99pAV1HTlypLLV/Pnz6xzPNiqqQtP3qza//wIAOpUifyxF/0BDHapCLtYW3n///WuvvVZP4E53d/ezzz579OhRe5rXes6FCxd27dp13333+VcHrSfYavkPEdmxY0eyllhWqJ8M7NT37t17++2328pXX331K6+8YrmqkjYsuFS+4/XTTz/t6elZvHjx+fPn/V+K2pP4WQD7R/RHcotq5emeOHGit7fXn5Yp+rtmhdhpLViwwJ+Q3XavvfZaal9Ksp3QbuhZs2b59fv6+r7++msti7J+/Xo/yjTx98irpX5wIOLXJGwTbdzVZaNsoBY0Ziz2q3a+/wIAOpUifyxF/0BDHapCARbsHnroIYv+/lm8wv4yY8YMy3BmypQp+qvzrW99a9u2bTmPVqqw6DB9+nSNcAHipZdeSr2JYd3j8OHDzz33nJ20rWO1ZNmyZXYObdHZs2fvuecev62xFZ544omlS5dat7EIEv2zX3YG7r//fg117r77bn+KY6qVp2u5za7q5E2c//X+OHZjJY85+e53v/vmm2+mbmtfPu+44w5/xmx/GBgYaDAvJt+d8JYvXz4WGdRm2mSdhmOnW+ibxE6fPv29731PGzv2v3GfGE4au/2qPe+/AIAOpsgfS9E/0FCHqlCMhf6DBw9W3jGoY/LkyU899VT0QR0WLCxBJl+eNNddd50vJPYP/cmd0JNPPpn6+efUgRBenvc37NLdeuut/lSSent7U2fGs+uhp6dHKyXYEBulofls2rRJGycUPd38HxG2rHnXXXdps8BSnU7gcpVrPuXRRx89d+6cJjbg008/tRaa3Kmsc/qTSN7WyUCZU+a1aumzuvEau6rtCtdKCWvXrtW43Pzp1rr5Ku26zmRbZCvYrZx5X6vsAKPe4i3er7zxuv8CAK5MivyxFP0DDXWoCpHOnj27c+fOlStXzp07N/lOgoWAxYsXb9++PfUiYhw7FRv1+OOP33jjjcnYYadop2unvmvXrgsXLmjty1mg/NGPfuTPmwWgO+64409/+tOo72+kDiuPFnHkd/LQ+Wj5P1qQ+kxCnNSnThtk+4zd3A8//HAyH9vtbre+7QO2KOK0mnKtPvHEExqXW87TrTPZFmmluka9xVu8XyW1/v4LALgyKfLHUvQPNNShKgAAAAAlpsgfS9E/0FCHqgAAAACUmCJ/LEX/QEMdqgIAAABQYor8sRT9Aw11qAoAAABAiSnyx1L0DzTUoSoAAAAAJabIH0vRP9BQh6oAAAAAlJgifyxF/0BDHaoCAAAAUGKK/LEU/QMNdagKAAAAQIkp8sdS9A801KEqAAAAACWmyB9L0T/QUIeqAAAAAJSYIn8sRf9AQx2qAgAAAFBiivyxFP0DDXWoCgAAAECJKfLHUvQPNNShKgAAAAAlpsgfS9E/0FCHqgAAAACUmCJ/LEX/QEMdqgIAAABQYor8sRT9Aw11qAoAAABAiSnyx1L0DzTUoSoAAAAAJabIH0vRP9BQh6oAAAAAlJgifyxF/0BDHaoCAAAAUGKK/LEU/QMNdagKAAAAQIkp8sdS9A801KEqAAAAACWmyB9L0T/QUIeqAAAAAJSYIn8sRf9AQx2qAgAAAFBiivyxFP0DDXWoCgAAAECJKfLHUvQPNNShKgAAAAAlpsgfS9E/0FCHqgAAAACUmCJ/LEX/QEMdqgIAAABQYor8sRT9Aw11qAoAAABAiSnyx1L0DzTUoSoAAAAAJabIH0vRP9BQh6oAAAAAlJgifyxF/0BDHaoCAAAAUGKK/LEU/QMNdagKAAAAQIkp8sdS9A801KEqAAAAACWmyB9L0T/QUIeqAAAAAJSYIn8sRf9AQx2qAgAAAFBiivyxFP0DDXWoCgAAAECJKfLHUvQPNNShKgAAAAAlpsgfS9E/0FCHqgAAAACUmCJ/LEX/QEMdqgIAAABQYor8sRT9Aw11qAoAAABAiSnyx1L0DzTUoSoAAAAAJabIH0vRP9BQh6oAAAAAlJgifyxF/0BDHaoCAAAAUGKK/LEU/QMNdagKAAAAQIkp8sdS9A801KEqAAAAACWmyB9L0T/QUIeqAAAAAJSYIn8sRf9AQx2qAgAAAFBiivyxFP0DDXWoCgAAAECJKfLHUvQPNNShKgAAAAAlpsgfS9E/0FCHqgAAAACUmCJ/LEX/QEMdqgIAAABQYor8sRT9Aw11qAoAAABAiSnyx1L0DzTUoSoAAAAAJabIH0vRP9BQh6oAAAAAlJgifyxF/0BDHaoCAAAAUGKK/LEU/QMNdagKAAAAQIkp8sdS9A801KEqAAAAACWmyB9L0T/QUIeqAAAAAJSYIn8sRf9AQx2qAgAAAFBiivyxFP0DDXWoCgAAAECJKfLHUvQPNNShKgAAAAAlpsgfS9E/0FCHqgAAAACUmCJ/LEX/QEMdqgIAAABQYor8sRT9Aw11qAoAAABAiSnyx1L0DzTUoSoAAAAAJabIH0vRP9BQh6oAAAAAlJgifyxF/0BDHaoCAAAAUGKK/LEU/QMNdagKAAAAQIkp8sdS9A801KEqAAAAACWmyB9L0T/QUIeqAAAAAJSYIn8sRf9AQx2qAgAAAFBiivyxFP0DDXWoCgAAAECJKfLHUvQPNNShKgAAAAAlpsgfS9E/0FCHqgAAAACUmCJ/LEX/QEMdqgIAAABQYor8sRT9Aw11qAoAAABAiSnyx1L0DzTUoSoAAAAAJabIH0vRP9BQh6oAAAAAlJgifyxF/0BDHaoCAAAAUGKK/LEU/QMNdagKAAAAQIkp8sdS9A801KEqAAAAACWmyB9L0T/QUIeqAAAAAJSYIn8sRf9AQx2qAgAAAFBiivyxFP0DDXWoCgAAAECJKfLHUvQPNNShKgAAAAAlpsgfS9E/0FCHqgAAAACUmCJ/LEX/QEMdqgIAAABQYor8sRT9Aw11qAoAAABAiSnyx1L0DzTUoSoAAAAAJabIH0vRP9BQh6oAAAAAlJgifyxF/0BDHaoCAAAAUGKK/LEU/QMNdagKAAAAQIkp8sdS9A801KEqAAAAACWmyB9L0T/QUIeqAAAAAJSYIn8sRf9AQx2qAgAAAFBiivyxFP0DDXWoCkATDA8Pb9q06eDBg/p/AACAVlHkj6XoH2ioQ1UAGnLp0qXBwcGFCxd+61vf+stf/qK/AgAAtIoifyxF/0BDHarC/zl79uw999zTVcPzzz9voVCr5mCp0bKjNq5t586d2gBlMDQ0tD3YunXrypUrr7/+en9TUhUAAMC4UOSPpegfaKhDVfg/586de/TRR2fNmtXb2zt58mSf/yp6enqOHDmiVXM4ePDgrbfeatPMlClTNMWZOHGiTfOL9uzZow1QBi+//LJuxSpUBQAAMC4U+WMp+gca6lAVsp0/f3758uXKgMGaNWsKvbFQMTIysnnz5kmTJtmQJUuWnD59WgtQNpV3FbZs2XL77bf7HcOjKgAAgHGhyB9L0T/QUIeqUFP1EUTTp08/fPiwFhdk9WDBggXd3d0HDhzQn1By1icXL16snYOqAAAAxokifyxF/0BDHapCTV999dV3v/tdxcAg+o0F/0EIG2hj9SeU39atW7VnUBUAAMA4UeSPpegfaKhDVagpsypEv7FAVehIO3fu1J5BVQAAAONEkT+Won+goQ5VoabMqmCefvrpiDcWqAodiaoAAADGnSJ/LEX/QEMdqkJNvirMnTv33/7t3xQGnalTpx46dEgr5UZV6EhUBQAAMO4U+WMp+gca6lAVavJVwfL9kSNH5s2bpzzoRLyxQFXoSFQFAAAw7hT5Yyn6BxrqUBVqqlQFS/kbN25UHnQiQiFVoSNRFQAAwLhT5I+l6B9oqENVqClZFU6ePDl//nxFQmf58uUXL17UqjlQFToSVQEAAIw7Rf5Yiv6BhjpUhZqSVcH+d9OmTRMmTFAqLJ4LqQodiaoAAADGnSJ/LEX/QEMdqkJNqarQ4BsLVIWORFUAAADjTpE/lqJ/oKEOVaGmVFUwqTcWrrnmmv379/tFo6IqdCSqAgAAGHeK/LEU/QMNdagKNVVXBbsqFy5cqGDoPPbYYznfWKAqdCSqAgAAGHc+8UdT9A801KEq1FRdFcxbb70V98YCVaEjURUAAMC4U+SPpegfaKhDVagpsyrYtZl6Y+GRRx4ZHh7W4tqoCh2JqgAAAMadT/zRFP0DDXWoCjVlVgVT/cbCvn37tKw2qkJHoioAAIBxp8gfS9E/0FCHqlBTrapw5syZRYsWKR46ed5YaFZVsJtzy5YtfX19M2bMqDSWKVOm2Fnq7+//7LPPiv6MdHsaGRkZGhoaGBiwS9rb2zt58mR/SY392/5if9+wYcMXX3wxvpe3WVWhLJcXAAC0IZ/4oyn6BxrqUBVqqlUVzLZt24q+sdB4Vfj0008feuihiRMn+hO1M2BtYdasWT09PZU/mjlz5vz+97+36KnNRmPp1jKuNq7LYrG2qfLEE09opRpefvllrToau36effbZ7u5ubelcd911dkk9+7f+6thVWujy5mH3Gd/HKqdlef2mm2565plnBgcHk6fVeFVoh8sLAABKzSf+aIr+gYY6VIWa6lSF6jcWlixZcv78eS3O0khVsMkvvPCC7wPWEO69994///nPyfcxLDgePHjwgQceqBSYhQsXfvbZZ1pcl2146623pl7JTrr66qt9Zt2zZ4+2qbJ27dpUY6nwL4pv2rRJq9ZmV9GaNWv82bALYhdh+/btJ0+erH4d3S7v0NDQypUrK+f5zjvvPHHihBY3wIYsW7Ys84JUXHvttb/61a/8zd1IVWiHywsAADqAIn8sRf9AQx2qQk11qoJ55513Jk2a5HObsQy3e/duLcsSXRVOnz79/e9/35+K5fW9e/fWOgTF/m7nYfr06X5li/gWPfMfr2LZt7+/v1I2PKslmRc/kzWoRx55RFu66+QXv/hFns98G4vC8+bN8xtOnTr1ww8/zHPOP/roI1vZb3XzzTcfO3ZMC4qzOL5lyxa70vw07zvf+c7SpUtXrFjx5JNP3nbbbcmlCxYs+OKLL6KrwrhfXgAA0DEU+WMp+gca6lAVaqpfFXz096HNq//GQlxV+Prrr++++24/P2c0HBwcrKRJC+tvvvlm/rZw8eLF5cuX+229/AcOeYcOHfKnbpVjYGAg50lbwq40HAvcdhG0IAc7h35Ds2zZspzNJMVuuJUrV1Zqkv3joYce+vzzz7U48O/e/PCHP/RvO9gtYncTv4nJXxXG/fICAIBOosgfyyf/Cg11qAo11a8KptAbCxFV4cyZM319fX64JctPPvlEC0azY8eOypEqOb+gqWL//v22id/WrF+/XgvyOXHiRG9vr2046hFZFSdPnpw/f74/OfP000/n7zbm6NGjM2fO9Nvm/5mLJEvbK1as8BNMnndj7GL6mya5A+SsCuN+eQEAQIdR5I+l6B9oqENVqGnUqlD9xsLixYtr5eOiVcHi4/PPP+/HWh59++23tSAHy77JA4EWLlxoO4GWjSb1MYyHH344589Re7t27bJzW6ifbN68WSfmFH0f48KFC/fff7827upat26dFuRj1/PAwEDl/QSrWFa0tKwuu6FT78DkrArje3kBAEDn8Yk/mqJ/oKEOVaGmUauCSb2xYP+2rKxllytaFSxqV17dr9NAakm+OWA5OM+niiv6+/v9hqa3t7f6OJxarFQ89thjtlWhM5z69iTLwZaGtSyf1atXa+Pim+/cubPyDoyxepb/Nf7k2z4mZ1UY38sLAAA6jyJ/LEX/QEMdqkJNeaqCBWKLxUptTq2UXKgq+JX9wDr1o47kBLNo0SLLtVo2Gsu7lnr9hlYztm3bpgWjsVLhjz7auHGj/pRD6rX5m2+++eTJk1qWT/Lw/fq3V0rqWKB58+YVPemIjzWP4+UFAAAdSZE/lqJ/oKEOVaGmPFXB+ENuFNxqJ3uf3XNWheTMiPzqrVu3zk8whQ5qT9WM/Mcg+Z+bmDlz5tGjR/WnHFI/UvHYY48VOuTJREdnqzTazCnUcLyIqjCOlxcAAHQkRf5Yiv6BhjpUhZpyVoXqNxYyN/H5O09VqBzG4y1btqzQx14rkinWFDomPpmhc0Z/O9tWKmz9otl3eHh4w4YN3d3dFqDnz5//8ccfa0FucdE59amMQodaVURUhfG6vAAAoFMp8sdS9A801KEq1JSzKpjdu3cnj3efNGnSO++8o2VB/qqQ/Iobs3nzZi0oKHkckSn0AeXKd556W7du1YLa/Nm2+GvpWX9qlbjovGfPnuTbQUU/wO1FVIXGURUAAECSIn8sRf9AQx2qQk35q8L58+eXLFmi7OZUb5W/Klj6rBygYlm2zm8k11f53lJvwYIFp0+f1rLRpL5mJ89nZ/0X+0QfLhVteHj4pz/9qT+fJn90Th6gZeIqWeurQvTlBQAAnUqRP5aif6ChDlWhpvxVwYz6xkL+qpCMsI2kT3/+NcgdYGPlQctySH6n57Rp04aGhrQgS6VarF69Wn8aAyMjI3ahPvzww/7+/gcffNAuUfI693LeXufOnUt+eVF3d/eBAwe0rIgxrQpNvLwAAKCDKfLHUvQPNNShKtRUqCpUv7GQ+tKhnFWhcsS/l6da1OLPvwYVD7KFjoPyByyNxS+C2fW2Z8+eZ555Zs6cOf43kpOmTJlym6P/zx2dU1dO0R5V0fSqMEaXFwAAdDBF/liK/oGGOlSFmgpVBZP8JQQz4fKvGbUheaqCX00jmloVir5wniot9Y9B8h+DLvSVrPUdP358YGBg7ty5lWOxjP37hhtuWLly5fbt248dOzY8POxXjjh23zK9JXtt09V11113ffPNN1pWRLOqwlhfXgAA0MEU+WMp+gca6lAVaipaFSzJJX8j2SSjc86qkMr3EydO7OnpmRXFNky9LG25VieTT/JrPadOnXro0CEtuFzlO6AswupPsUZGRvbu3btw4cJkYp48efLSpUt37dpVq6tERGfrdVdddZW2aSBwN1gVWnZ5AQBAB1Pkj6XoH2ioQ1WoqWhVMNVvLLz11lt+UVxVaK6iVaHyk2perZ8d8K/Q1+kSOR0+fNhCs07MmTFjxpYtW0a9/iOiczLimyeeeEILCmqkKrTy8gIAgA6myB9L0T/QUIeqUFNEVah+Y8GyoN0AtsiGRFSFUdcfU5cuXVq2bJnOSu0fovbJNc+3JNViJ/Sb3/zm6quv9idk7N8DAwOZJ1etdFWh9ZcXAAB0MJ/4oyn6BxrqUBVqiqgKZv/+/ZlvLJSxKhiLwvWPQfI/ZGbrJD+YUYjl5g0bNiSPlZo1a1ahj1WUqyqMy+UFAAAdTJE/lqJ/oKEOVaGmuKpw8fLfWjb+jYWcVeGbb7656667tGXuX0oeOydPnpw3b57OTdanEXw16o36qWNvx44dye8AnT59etEj/iOic+r311pZFcbl8gIAgA7mE380Rf9AQx2qQk1xVcFUv7GwadOmnFUh9X3/RQ9/b7pLly49/fTTOjdZwbS/v9/+buvYmvpTEcePH7/pppv8cGMZ2pK0luUWEZ3tWrXrVts0cPRU0aowXpcXAAB0MEX+WIr+gYY6VIWaoqvCxYsXly9frijnzJ8//+jRo3mqgkluazXjgw8+0IJxsmvXrsoL8Kk0fPr06QULFthSW0d/Ksg3jYrHHnvMrj0tyy0iOqd+NSI6cBetCuN1eQEAQAdT5I+l6B9oqENVqCm6KpjUi9aW+F944YU77rgjT1V49dVXtZlT/7fPWuDUqVO33HKLzs3lxyD5rxy1tmCdQX8qInV0k1WOPXv2aFkREdHZlxxt09U1e/ZsOzNaVkShqjCOlxcAAHQwRf5Yiv6BhjpUhZoaqQrVbyx4eapC6iv/ly1bFndsTxOtW7dO5+byH4vwf+/v7/f/W1Tqkkbn9YjobDdQ8gfmpk2bNjQ0pGVFFKoK43h5AQBAB1Pkj6XoH2ioQ1WoqZGqYFJvLHh5qkLqVXz7t/1Fy6L87W9/++CDDyq/9RshmXGvueaa/fv32x/9+az8b4TNmzf7mV70VR0XnZOnPmHCBAv9WlBEcsioVWF8Ly8AAOhUivyxFP0DDXWoCjU1WBVSHwj28lQFkzyivZFPAhh/NizoW9zXn4rz34iqMxTeRvBfIlTrxxbySEZe0+LonOpyq1ev1oLcKj9T7Y1aFcb38gIAgE6lyB9L0T/QUIeqUFODVcEcOnRo6tSpynROzqqQ2jDuw6/e4OCgRdjkUUNxku3Fpp0+fdoXoVo/4ZxHC6Lz8PDwyZMnM8emgv68efOKHg6U+qqrdqgKdS4vAADoVIr8sRT9Aw11qAo1NV4Vqt9YyFkVbMM1a9ZoG/eVmrt379ayIqwe9PX1NfL7aBXJWHzVVVf953/+59y5cxv82YfUATljcey+f+vg1Vdf1f9f7p133pkUvtyp6LVU/cvco1aFcb+8AACgIynyx1L0DzTUoSrU1HhVMIcPH54+fbpiXe6qYE6cOJH8tpybb7752LFjWpaPZdkVK1bYtvfee2/jLzPbBLsq/JmpaOTtDpN6VT7uG4GsVv3sZz/TiBrRudbnEM6fP79kyRJtGX4sT8tGk/olNTNqVRj3ywsAADqST/zRFP0DDXWoCjU1pSqk3h/IXxXM4OBg8jCkBQsWWH/QstFYT+jv758wYYIVFasr+mtjNm7cqLPiRH8UuCKV1E3R7nHmzJnVq1dPnDhR21dFZ/++QZ1E/vHHHyevZCtXdtVpWW1DQ0OzZ8+2qvDDH/5QW3Z1dXd3HzhwQGtkaYfLCwAAOo8ifyxF/0BDHapCTU2pConRb3oAAAfiSURBVCb5xkKhqmAs+V199dV+WzNr1qy9e/da/dDiGk6fPv2DH/zA1o/7MeBaUp+giDi4v1qqDuU/1GpkZOS9996bM2eObVU5iMikjuqxYD3qF6Emr2TrPytXrrRMr2VZrA/YDWErWwlMflmqef755+vfOu1weQEAQIdR5I+l6B9oqENVqMkfyxH9+2IVyTcWilYFY90geQiTZdl77733z3/+c+aL33Zjv/jii93d3bamxdC333571F6RX+pzwBFfGZQpdSSPZd/6SddCs10nt99+u61sEf+VV16xvF5JzxbErdL4NT/99NOenp4839GUqmSWyN99993qa9iu3h//+Md+zeXLl9vYVFWwW8fO2ArHztiFCxe0ZUI7XF4AANBJXOCPp+gfaKhDVchmYcv/hpqFv/7+/gazV+WNhYiqYE6cOPHQQw/ZOXHhUCZOnGjTli5d6oPpgw8+eN1112mZO27eAmUTe4JX+WBug9++mpKqQxaIX3rppdRXNllwt6vxueeemzFjhq1jF3/ZsmX+iKyzl3+OwlZ44okn7JqxymSR2mqAn1DfgQMH/Gv2FRbob7311ieffNKuXpt2/fXX+5vA/rt27Vq/S6SqQlKd96Pa4fICAICOocgfS9E/0FCHqvB/9uzZM8vp7e1Nvu5rLMz5RZYdDx48qA1ys8j+/PPP25y4qmBswuDg4B133JEqDNWSmbLphoaGpk2bZqfS+Levpvij8FNXu5Uff7UnW5CtY/H9888/15ZO6sAez66rZ599Ns9nDzyL4C+++KJ/06AWqxMW9CsdrFIV7LTmzp3785///I9//KPdxObUqVN1qlo7XF4AANAZFPljKfoHGupQFf5PnVeIK0b9lptajhw50tPTE10VKuzmfOuttx5//PEbb7yxEjQtI86YMaOvr2/Lli22glYdAxcvXnz44YftFF9++WX9qaksrG/fvj116cyUKVMsiK9cuXLXrl2ZR/UYa0c/+tGPbE1b3/qS1ao//elPEe+r+PNgF9OuUl/M/Bs4duoW0EdGRrSeY/vMtddeOzAwEHe1t8PlBQAAZfePvN8ARf9AQx2qAgAAAFBiivyxFP0DDXWoCgAAAECJKfLHUvQPNNShKgAAAAAlpsgfS9E/0FCHqgAAAACUmCJ/LEX/QEMdqgIAAABQYor8sRT9Aw11qAoAAABAiSnyx1L0DzTUoSoAAAAAJabIH0vRP9BQh6oAAAAAlJgifyxF/0BDHaoCAAAAUGKK/LEU/QMNdagKAAAAQIkp8sdS9A801KEqAAAAACWmyB9L0T/QUIeqAAAAAJSYIn8sRf9AQx2qAgAAAFBiivyxFP0DDXWoCgAAAECJKfLHUvQPNNShKgAAAAAlpsgfS9E/0FCHqgAAAACUmCJ/LEX/QEMdqgIAAABQYor8sRT9Aw11qAoAAABAiSnyx1L0DzTUoSoAAAAAJabIH0vRP9BQh6oAAAAAlJgifyxF/0BDHaoCAAAAUGKK/LEU/QMNdagKAAAAQIkp8sdS9A801KEqAAAAACWmyB9L0T/QUIeqAAAAAJSYIn8sRf9AQx2qAgAAAFBiivyxFP0DDXWoCgAAAECJKfLHUvQPNNShKgAAAAAlpsgfS9E/0FCHqgAAAACUmCJ/LEX/QEMdqgIAAABQYor8sRT9Aw11qAoAAABAiSnyx1L0DzTUoSoAAAAAJabIH0vRP9BQh6oAAAAAlJgifyxF/0BDHaoCAAAAUGKK/LEU/QMNdagKAAAAQIkp8sdS9A801KEqAAAAACWmyB9L0T/QUIeqAAAAAJSYIn8sRf9AQ53LqsJrr72mVZxLly5pAQAAAIC2pMgfS9HfsTqgoc5lVeGNN97QWs758+e1AAAAAEBbUuRPmFub1khQ9HesDmioc1lV+O1vf6u1nK+//loLAAAAALQlRf7LqRlcTssup+jvWB3QUOeyqrBz506t5fz1r3/VAgAAAABtSZG/ivpBoL9WUfR3rA5oqHNZVRgcHNRazvvvv68FAAAAANqSIn8WtYTaPcEo+jtWBzTUuawqfPnll1or4OMKAAAAQDtT5K+hfk8wyv2O1QENdS6rCubXv/61VnRSxQIAAABAW1Hkj6Xc/8tfWhHQxCBdFfbt26d1nTfeeIM3FgAAAIC2pcgfS7n/l7+0IqCJQboq/P3vf9e6we7du7UMAAAAQJtR5I+l0P/LX1oR0MQgXRXM3r17tXrAVyEBAAAA7UmRP5YP/FYBNC4hoyqcO3cu9Vts5r/+67+0GAAAAEDbUOSPZVHfwr9VAI1LyKgK5tChQ74hJPHeAgAAANBuFPljWc638K9Zl8uuCqb6MCSze/duPuUMAAAAtA9F/liZhx55NauCSf14s/fGG28MDg5SGAAAAIB2oMgfS1Oy1KsKJrMteO+///5f//rXr7/+2mrDpUuXtAEAAACAFlLkj6UpWUapCibzSCQAAAAA5VXnuKOK0auCOXToUPV3IgEAAAAoHQv2tT7HnJKrKphz587x9gIAAABQahbpM78XNVPequD9/e9/37dv369//WudFAAAAIC2ZwHeYnz17zHXV6wqVHz55ZeDg4M7d+787W9/+8Ybb7z22ms6FwAAAADGlYVzi+gW1C2uW2i36K4QX1BkVQAAAADQ2agKAAAAADJQFQAAAABkoCoAAAAAyEBVAAAAAFDl//2//w8RiGk7A3pioAAAAABJRU5ErkJggg==;" parent="1" vertex="1">
          <mxGeometry x="551.57" y="90" width="203.01" height="230" as="geometry"/>
        </mxCell>
      </root>
    </mxGraphModel>
  </diagram>
</mxfile>
